<svg width="22" height="22" viewBox="0 0 22 22" fill="none" xmlns="http://www.w3.org/2000/svg">
  <path d="M0.167358 10.8391V21.3391H10.6674H21.1674V10.8391V0.339111H17.1537H13.1427L13.1244 0.546486C13.0745 1.14236 12.812 1.68836 12.371 2.11361C12.1347 2.33674 11.9956 2.43649 11.7121 2.57036C11.3472 2.74624 11.1372 2.78824 10.6674 2.78824C10.2001 2.78824 10.0032 2.74886 9.63048 2.57299C9.34698 2.43911 9.20261 2.33936 8.96373 2.11361C8.52011 1.68574 8.26023 1.14499 8.21036 0.546486L8.19198 0.339111H4.18098H0.167358V10.8391ZM16.6655 9.94661C17.4425 10.0569 18.0541 10.3929 18.503 10.9494C18.671 11.1594 18.8731 11.4639 18.8547 11.4796C18.6342 11.6371 17.348 12.4377 17.3349 12.422C17.327 12.4115 17.264 12.3249 17.1984 12.2304C17.033 11.9941 16.8414 11.8235 16.6314 11.7237C16.4607 11.6424 16.4424 11.6397 16.1142 11.6397C15.794 11.6397 15.7651 11.645 15.6234 11.7132C15.4632 11.792 15.3477 11.9075 15.2559 12.0807C15.2034 12.1752 15.1955 12.2304 15.1955 12.4535C15.1955 12.6871 15.2034 12.7317 15.269 12.8656C15.3976 13.1307 15.668 13.3014 16.6104 13.7135C18.1827 14.4039 18.7655 14.8317 19.133 15.5772C19.3062 15.929 19.3745 16.1652 19.4112 16.5669C19.4795 17.2704 19.3062 17.9502 18.9309 18.4516C18.713 18.743 18.3035 19.0659 17.9281 19.2417C17.0566 19.6486 15.7257 19.6906 14.702 19.3415C14.0536 19.121 13.4551 18.7167 13.0955 18.2574C12.8986 18.0054 12.6545 17.6064 12.6834 17.5827C12.6965 17.5696 14.0694 16.7716 14.24 16.6771C14.2505 16.6719 14.2899 16.7165 14.3292 16.7795C14.4657 16.9869 14.7204 17.2756 14.891 17.4147C15.2217 17.693 15.5525 17.8111 16.0486 17.8374C16.6944 17.8715 17.1957 17.6536 17.39 17.252C17.516 16.9947 17.4792 16.5905 17.3112 16.3595C17.1774 16.1731 16.7705 15.929 16.1142 15.6429C14.7886 15.0627 14.4894 14.8921 14.0615 14.48C13.5732 14.0075 13.337 13.514 13.2661 12.8131C13.1165 11.3615 14.0064 10.2091 15.4711 9.95974C15.71 9.91774 16.4135 9.91249 16.6655 9.94661ZM10.7199 14.6716C11.8959 17.2704 12.8645 19.4097 12.8671 19.4229C12.8724 19.4412 12.5154 19.4491 11.8539 19.4491H10.8301L10.7067 19.1551C10.6385 18.9924 10.5387 18.7561 10.4889 18.6275L10.3944 18.3991L8.48073 18.4044L6.56711 18.4122L6.35186 18.9294L6.13923 19.4491H5.20211C4.68498 19.4491 4.26236 19.4412 4.26236 19.4334C4.26236 19.4202 8.23661 10.2879 8.36523 10.0044C8.38623 9.95974 8.41248 9.94661 8.48598 9.94661L8.58048 9.94924L10.7199 14.6716Z" fill="black"/>
  <path d="M8.38361 13.7056C8.21561 14.2988 7.96098 15.005 7.62498 15.8109C7.42286 16.3017 7.25486 16.7112 7.25486 16.7244C7.25486 16.7349 7.79823 16.7454 8.46236 16.7454C9.12648 16.7454 9.66986 16.7349 9.66986 16.7244C9.66986 16.7112 9.55698 16.4304 9.41786 16.0996C8.92961 14.9315 8.74586 14.4432 8.52798 13.7187C8.49123 13.5927 8.45711 13.4903 8.45186 13.4903C8.44923 13.4903 8.41773 13.5875 8.38361 13.7056Z" fill="black"/>
</svg>