<svg width="58" height="22" viewBox="0 0 58 22" fill="none" xmlns="http://www.w3.org/2000/svg">
  <path d="M5.2175 6.74814C5.13988 6.74814 5.06227 6.67053 5.13989 6.59291L5.68317 5.8168C5.76078 5.73919 5.83839 5.66157 5.99361 5.66157H15.7727C15.8503 5.66157 15.9279 5.73919 15.8503 5.8168L15.3846 6.5153C15.307 6.59291 15.2294 6.67053 15.0742 6.67053L5.2175 6.74814ZM1.10408 9.23171C1.02647 9.23171 0.94886 9.1541 1.02647 9.07649L1.56975 8.30037C1.64736 8.22276 1.72498 8.14515 1.8802 8.14515H14.3757C14.4533 8.14515 14.5309 8.22276 14.5309 8.30037L14.298 9.07649C14.298 9.1541 14.1428 9.23171 14.0652 9.23171H1.10408ZM7.70107 11.7929C7.62345 11.7929 7.54584 11.7153 7.62345 11.6377L8.01151 10.9392C8.08912 10.8616 8.16673 10.7839 8.32196 10.7839H13.7548C13.8324 10.7839 13.91 10.8616 13.91 10.9392L13.8324 11.5601C13.8324 11.6377 13.7548 11.7153 13.6772 11.7153L7.70107 11.7929ZM36.1069 6.20486L31.5278 7.36903C31.1398 7.44664 31.0621 7.52425 30.7517 7.05858C30.3636 6.59292 30.0532 6.28247 29.4323 6.04963C27.7249 5.19591 26.0174 5.42874 24.4652 6.43769C22.6025 7.60186 21.6711 9.38693 21.6711 11.6377C21.6711 13.8108 23.2234 15.5959 25.3965 15.9063C27.2592 16.1391 28.8114 15.5182 30.0532 14.1212C30.286 13.8108 30.5189 13.5003 30.8293 13.1123H25.5517C25.0084 13.1123 24.8532 12.7242 25.0084 12.2586C25.3965 11.4048 26.0174 10.0078 26.4055 9.30932C26.4831 9.1541 26.7159 8.84365 27.104 8.84365H37.0382C36.9606 9.61977 36.9606 10.3183 36.883 11.0944C36.5726 13.0347 35.8741 14.8974 34.6323 16.4496C32.692 19.0108 30.1308 20.6406 26.8711 21.1063C24.1547 21.4943 21.6711 20.9511 19.498 19.3212C17.4801 17.769 16.316 15.7511 16.0055 13.2675C15.6174 10.3183 16.5488 7.60186 18.3339 5.27352C20.2741 2.71234 22.8353 1.08249 26.0174 0.539213C28.5786 0.0735437 31.0621 0.383989 33.2353 1.85861C34.7099 2.78995 35.7188 4.10934 36.4173 5.73919C36.495 6.04963 36.4173 6.12724 36.1069 6.20486Z" fill="black"/>
  <path d="M45.1098 21.3391C42.6263 21.2615 40.3755 20.563 38.4352 18.9331C36.8054 17.5361 35.7965 15.7511 35.486 13.6556C35.0203 10.5511 35.8741 7.83469 37.7367 5.42874C39.7546 2.78994 42.1606 1.47055 45.4203 0.849654C48.2143 0.383984 50.8531 0.616818 53.1814 2.24666C55.3546 3.72128 56.674 5.73918 57.062 8.37797C57.5277 12.1033 56.4411 15.0526 53.9576 17.6138C52.1725 19.4764 49.9218 20.563 47.4382 21.1063C46.5845 21.2615 45.8083 21.2615 45.1098 21.3391ZM51.6292 10.3183C51.6292 9.93021 51.6292 9.69737 51.5516 9.38692C51.0859 6.67052 48.6024 5.11829 45.9636 5.73918C43.4024 6.28246 41.7725 7.91231 41.1516 10.4735C40.686 12.569 41.6949 14.7421 43.6352 15.6735C45.1098 16.2944 46.6621 16.2167 48.0591 15.5182C50.3098 14.4317 51.474 12.6466 51.6292 10.3183Z" fill="black"/>
</svg>