<svg width="21" height="22" viewBox="0 0 21 22" fill="none" xmlns="http://www.w3.org/2000/svg">
  <path d="M0 0.339111V21.3391H21V0.339111H0ZM11.25 16.6516C11.25 18.6958 10.0425 19.6924 8.29453 19.6924C6.71578 19.6924 5.79938 18.8749 5.33438 17.8882L6.94125 16.9155C7.25109 17.4654 7.48641 17.9304 8.16281 17.9304C8.72531 17.9304 9.1875 17.6768 9.1875 16.69V10.0891H11.25V16.6516ZM15.907 19.6455C14.0747 19.6455 12.8906 18.8186 12.3127 17.6768L13.9219 16.7454C14.3438 17.4363 14.8945 17.8966 15.8672 17.8966C16.6847 17.8966 17.1595 17.5347 17.1595 16.9708C17.1595 16.2944 16.6706 16.0549 15.7683 15.6583L15.2752 15.4465C13.8511 14.8408 12.907 14.0796 12.907 12.4722C12.907 10.9924 14.0344 9.91146 15.7964 9.91146C17.0513 9.91146 17.9527 10.3015 18.6019 11.4433L17.0625 12.4329C16.7241 11.8268 16.3594 11.5891 15.7941 11.5891C15.2161 11.5891 14.8495 11.9557 14.8495 12.4329C14.8495 13.0249 15.2161 13.2644 16.0617 13.631L16.5548 13.8424C18.2325 14.5615 19.177 15.2955 19.177 16.9436C19.1775 18.7202 17.782 19.6455 15.907 19.6455Z" fill="black"/>
</svg>