<svg width="21" height="22" viewBox="0 0 21 22" fill="none" xmlns="http://www.w3.org/2000/svg">
  <path d="M9.84244 2.81252C9.84244 2.73056 9.85858 2.64941 9.88994 2.57369C9.92131 2.49797 9.96728 2.42917 10.0252 2.37122C10.0832 2.31326 10.152 2.26729 10.2277 2.23593C10.3034 2.20457 10.3846 2.18842 10.4665 2.18842C10.5485 2.18842 10.6296 2.20457 10.7054 2.23593C10.7811 2.26729 10.8499 2.31326 10.9078 2.37122C10.9658 2.42917 11.0118 2.49797 11.0431 2.57369C11.0745 2.64941 11.0906 2.73056 11.0906 2.81252C11.0906 2.97804 11.0249 3.13678 10.9078 3.25382C10.7908 3.37086 10.6321 3.43661 10.4665 3.43661C10.301 3.43661 10.1423 3.37086 10.0252 3.25382C9.90819 3.13678 9.84244 2.97804 9.84244 2.81252ZM2.39663 8.46283C2.39663 8.38087 2.41277 8.29972 2.44413 8.224C2.47549 8.14828 2.52147 8.07948 2.57942 8.02153C2.63737 7.96358 2.70617 7.91761 2.78189 7.88624C2.85761 7.85488 2.93876 7.83874 3.02072 7.83874C3.10268 7.83874 3.18383 7.85488 3.25955 7.88624C3.33527 7.91761 3.40407 7.96358 3.46202 8.02153C3.51997 8.07948 3.56594 8.14828 3.59731 8.224C3.62867 8.29972 3.64481 8.38087 3.64481 8.46283C3.64481 8.62835 3.57906 8.78709 3.46202 8.90413C3.34498 9.02117 3.18624 9.08692 3.02072 9.08692C2.8552 9.08692 2.69646 9.02117 2.57942 8.90413C2.46238 8.78709 2.39663 8.62835 2.39663 8.46283ZM17.2882 8.4917C17.2882 8.32619 17.354 8.16744 17.471 8.0504C17.5881 7.93336 17.7468 7.86761 17.9123 7.86761C18.0779 7.86761 18.2366 7.93336 18.3536 8.0504C18.4707 8.16744 18.5364 8.32619 18.5364 8.4917C18.5364 8.65723 18.4707 8.81597 18.3536 8.93301C18.2366 9.05005 18.0779 9.1158 17.9123 9.1158C17.7468 9.1158 17.5881 9.05005 17.471 8.93301C17.354 8.81597 17.2882 8.65723 17.2882 8.4917ZM4.20263 9.34877C4.34053 9.28718 4.44841 9.17346 4.50265 9.03251C4.55689 8.89155 4.55307 8.73485 4.49203 8.59671L4.21509 7.97064H5.30447V12.8794H3.10669C2.83551 11.9267 2.75105 10.9307 2.85797 9.94596L4.20263 9.34877ZM8.75831 9.46952V8.02249H11.3518C11.4857 8.02249 12.2968 8.17736 12.2968 8.78374C12.2968 9.28774 11.6734 9.46886 11.1615 9.46886L8.75831 9.46952ZM5.21719 17.2599C5.21719 17.1779 5.23333 17.0968 5.26469 17.021C5.29606 16.9453 5.34203 16.8765 5.39998 16.8186C5.45793 16.7606 5.52673 16.7146 5.60245 16.6833C5.67817 16.6519 5.75932 16.6358 5.84128 16.6358C5.92324 16.6358 6.00439 16.6519 6.08011 16.6833C6.15583 16.7146 6.22463 16.7606 6.28258 16.8186C6.34053 16.8765 6.38651 16.9453 6.41787 17.021C6.44923 17.0968 6.46537 17.1779 6.46537 17.2599C6.46537 17.4254 6.39962 17.5841 6.28258 17.7012C6.16554 17.8182 6.0068 17.884 5.84128 17.884C5.67576 17.884 5.51702 17.8182 5.39998 17.7012C5.28294 17.5841 5.21719 17.4254 5.21719 17.2599ZM14.4657 17.2887C14.4657 17.1232 14.5315 16.9645 14.6485 16.8474C14.7656 16.7304 14.9243 16.6646 15.0898 16.6646C15.2553 16.6646 15.4141 16.7304 15.5311 16.8474C15.6482 16.9645 15.7139 17.1232 15.7139 17.2887C15.7139 17.4543 15.6482 17.613 15.5311 17.73C15.4141 17.8471 15.2553 17.9128 15.0898 17.9128C14.9243 17.9128 14.7656 17.8471 14.6485 17.73C14.5315 17.613 14.4657 17.4543 14.4657 17.2887ZM14.6587 15.8732C14.3502 15.8076 14.0483 16.0031 13.9827 16.3109L13.6697 17.7731C12.6622 18.2294 11.5681 18.4628 10.4622 18.4575C9.35621 18.4522 8.26443 18.2082 7.26141 17.7422L6.94838 16.2801C6.88275 15.9716 6.58088 15.7761 6.27244 15.8424L4.98159 16.1193C4.74175 15.8723 4.51878 15.6094 4.31419 15.3325H10.5945C10.6654 15.3325 10.7126 15.3193 10.7126 15.255V13.0336C10.7126 12.968 10.6654 12.9562 10.5945 12.9562H8.757V11.5479H10.7435C10.9246 11.5479 11.7127 11.6004 11.9654 12.607L12.3362 14.2477C12.4543 14.6086 12.9353 15.3325 13.4472 15.3325H16.6891C16.4715 15.6235 16.2336 15.8987 15.9771 16.1561L14.6587 15.8732ZM18.146 10.0076C18.1901 10.451 18.1956 10.8974 18.1624 11.3418H17.3749C17.2961 11.3418 17.2633 11.3943 17.2633 11.4711V11.8333C17.2633 12.6865 16.7829 12.8702 16.3616 12.9181C15.9613 12.9641 15.5151 12.7501 15.4612 12.5047C15.225 11.1738 14.8313 10.8903 14.2144 10.3981C14.9868 9.90724 15.7907 9.18405 15.7907 8.21477C15.7907 7.16871 15.0734 6.50983 14.5845 6.18695C13.8987 5.73414 13.1394 5.64424 12.9347 5.64424H4.77422C5.90143 4.38473 7.41246 3.532 9.07331 3.21808L10.0347 4.22674C10.2513 4.45446 10.6122 4.46299 10.8393 4.24511L11.9155 3.21677C13.0118 3.42204 14.0503 3.86349 14.9588 4.51047C15.8674 5.15744 16.6242 5.99443 17.1767 6.9633L16.4404 8.62624C16.3793 8.76438 16.3755 8.92108 16.4298 9.06204C16.484 9.20299 16.5919 9.31671 16.7298 9.3783L18.146 10.0076ZM19.9822 10.0339L19.9572 9.77664L20.7158 9.06921C20.8701 8.92483 20.8123 8.63608 20.6154 8.56258L19.6462 8.20033L19.57 7.95096L20.1738 7.11096C20.2972 6.94033 20.1836 6.66799 19.9769 6.63386L18.9545 6.46783L18.8317 6.23814L19.2616 5.29511C19.3495 5.10283 19.1861 4.85739 18.9748 4.86527L17.9379 4.90136L17.7739 4.70252L18.0121 3.69189C18.06 3.48649 17.852 3.27846 17.6466 3.32636L16.6359 3.56458L16.4364 3.40052L16.4725 2.36364C16.4804 2.15364 16.235 1.98958 16.0433 2.07686L15.101 2.50671L14.8713 2.38333L14.7046 1.36089C14.6718 1.15352 14.3981 1.04064 14.2275 1.16402L13.3875 1.76777L13.1381 1.6923L12.7759 0.723018C12.7024 0.526143 12.413 0.468393 12.2692 0.621955L11.5618 1.38058L11.3046 1.35564L10.7586 0.472986C10.6483 0.294486 10.3517 0.294486 10.2421 0.472986L9.69609 1.35564L9.43884 1.38058L8.73009 0.620643C8.58572 0.46708 8.29697 0.524174 8.22347 0.721705L7.86122 1.69099L7.61184 1.76646L6.77184 1.16271C6.60122 1.03933 6.32822 1.15286 6.29475 1.35958L6.12806 2.38202L5.89838 2.50539L4.956 2.07555C4.76438 1.98827 4.51828 2.15233 4.52681 2.36233L4.56291 3.39921L4.36341 3.56327L3.35278 3.32505C3.14738 3.27714 2.93934 3.48517 2.98725 3.69058L3.22547 4.70121L3.06141 4.90005L2.02453 4.86396C1.81453 4.85739 1.65047 5.10152 1.73775 5.2938L2.16759 6.23683L2.04422 6.46652L1.02178 6.63255C0.814406 6.66536 0.701531 6.93902 0.824906 7.10964L1.42866 7.94964L1.35253 8.19902L0.38325 8.56127C0.186375 8.63477 0.128625 8.92417 0.282844 9.06789L1.04147 9.77533L1.01653 10.0326L0.133875 10.5786C-0.044625 10.6888 -0.044625 10.9855 0.133875 11.0951L1.01653 11.6411L1.04147 11.8983L0.280875 12.6084C0.127313 12.7527 0.184406 13.0415 0.381281 13.115L1.35056 13.4772L1.42669 13.7266L0.822938 14.5666C0.700219 14.7372 0.813094 15.0102 1.01981 15.0437L2.04159 15.2097L2.16497 15.4394L1.73512 16.3818C1.64784 16.5734 1.81256 16.8195 2.02191 16.8116L3.05878 16.7756L3.22284 16.975L2.98463 17.9857C2.93672 18.1904 3.14475 18.3991 3.35016 18.3506L4.36078 18.1123L4.56028 18.2764L4.52419 19.3133C4.51631 19.5233 4.76175 19.6873 4.95338 19.6L5.89575 19.1702L6.12544 19.2936L6.29213 20.3154C6.32494 20.5234 6.59859 20.6356 6.76922 20.5136L7.60922 19.9085L7.85859 19.9846L8.22084 20.9539C8.29434 21.1508 8.58375 21.2085 8.72747 21.0543L9.43491 20.2957L9.69216 20.3219L10.2382 21.2046C10.3484 21.3818 10.6437 21.3831 10.7546 21.2046L11.3006 20.3219L11.5579 20.2957L12.2653 21.0543C12.4097 21.2085 12.6984 21.1508 12.7719 20.9539L13.1342 19.9846L13.3836 19.9085L14.2236 20.5136C14.3942 20.6363 14.6672 20.5234 14.7007 20.3154L14.8673 19.2936L15.097 19.1702L16.0394 19.6C16.231 19.6873 16.4765 19.5239 16.4686 19.3133L16.4325 18.2764L16.6313 18.1123L17.642 18.3506C17.8474 18.3985 18.0554 18.1904 18.0075 17.9857L17.7693 16.975L17.9333 16.7756L18.9702 16.8116C19.1802 16.8202 19.3443 16.5734 19.257 16.3818L18.8272 15.4394L18.9499 15.2097L19.9723 15.0437C20.1803 15.0109 20.2939 14.7379 20.1692 14.5666L19.5654 13.7266L19.6416 13.4772L20.6108 13.115C20.8077 13.0408 20.8655 12.7521 20.7113 12.6084L19.9526 11.9009L19.9776 11.6437L20.8602 11.0977C21.0387 10.9874 21.0394 10.6921 20.8602 10.5812L19.9822 10.0339Z" fill="black"/>
</svg>