<svg width="21" height="22" viewBox="0 0 21 22" fill="none" xmlns="http://www.w3.org/2000/svg">
  <path d="M0 10.8394V21.3391H21V0.339111H0V10.8394ZM16.9232 10.0027C17.4564 10.136 17.8632 10.3729 18.2366 10.7594C18.4302 10.9661 18.7166 11.3428 18.7399 11.4327C18.7465 11.4589 17.8334 12.0725 17.2798 12.416C17.2601 12.4292 17.1798 12.3429 17.0895 12.2093C16.8195 11.8156 16.5363 11.6459 16.1029 11.6161C15.4663 11.5728 15.0529 11.9061 15.0595 12.4626C15.0595 12.626 15.0825 12.7225 15.1494 12.8564C15.2895 13.1464 15.5497 13.3197 16.366 13.6734C17.8695 14.3198 18.5126 14.7463 18.9122 15.3533C19.3584 16.0299 19.4588 17.11 19.1557 17.9133C18.8223 18.7867 17.9958 19.3799 16.8326 19.5768C16.4727 19.6401 15.6192 19.6303 15.2327 19.5604C14.3895 19.4105 13.5895 18.9937 13.096 18.4471C12.9025 18.2338 12.5261 17.677 12.5494 17.6367C12.5592 17.6235 12.6462 17.5701 12.743 17.5133L13.5229 17.0638L14.1267 16.7137L14.2533 16.9007C14.4298 17.1707 14.8167 17.5405 15.05 17.6639C15.72 18.0173 16.64 17.9671 17.0931 17.5605C17.2867 17.384 17.3665 17.2006 17.3665 16.9306C17.3665 16.6871 17.3369 16.5805 17.2099 16.3974C17.0465 16.1644 16.7132 15.9675 15.7662 15.5574C14.6828 15.0908 14.2162 14.8008 13.7897 14.3408C13.5429 14.074 13.3096 13.6474 13.2129 13.2908C13.1328 12.9942 13.1128 12.2507 13.1761 11.9508C13.3992 10.9008 14.1893 10.174 15.3295 9.95747C15.6996 9.88758 16.56 9.91416 16.9228 10.0041L16.9232 10.0027ZM11.9932 10.8788L11.9998 11.7385H9.26662V19.5049H7.33336V11.7385H4.60017V10.8952L4.62314 10.029C4.63298 10.0159 6.29652 10.0093 8.31312 10.0126L11.9831 10.0224L11.9932 10.8788Z" fill="black"/>
</svg>