<svg width="185" height="61" viewBox="0 0 185 61" fill="none" xmlns="http://www.w3.org/2000/svg">
<path d="M0.658692 9.725L11.8337 7.925V19.55H25.2587V28.85H11.8337V42.725C11.8337 45.075 12.2337 46.95 13.0337 48.35C13.8837 49.75 15.5587 50.45 18.0587 50.45C19.2587 50.45 20.4837 50.35 21.7337 50.15C23.0337 49.9 24.2087 49.575 25.2587 49.175L26.8337 57.875C25.4837 58.425 23.9837 58.9 22.3337 59.3C20.6837 59.7 18.6587 59.9 16.2587 59.9C13.2087 59.9 10.6837 59.5 8.68369 58.7C6.68369 57.85 5.08369 56.7 3.88369 55.25C2.68369 53.75 1.83369 51.95 1.33369 49.85C0.883692 47.75 0.658692 45.425 0.658692 42.875V9.725ZM34.3589 59V2.6L45.5339 0.799998V19.7C46.2839 19.45 47.2339 19.225 48.3839 19.025C49.5839 18.775 50.7339 18.65 51.8339 18.65C55.0339 18.65 57.6839 19.1 59.7839 20C61.9339 20.85 63.6339 22.075 64.8839 23.675C66.1839 25.275 67.0839 27.175 67.5839 29.375C68.1339 31.575 68.4089 34.025 68.4089 36.725V59H57.2339V38.075C57.2339 34.475 56.7589 31.925 55.8089 30.425C54.9089 28.925 53.2089 28.175 50.7089 28.175C49.7089 28.175 48.7589 28.275 47.8589 28.475C47.0089 28.625 46.2339 28.8 45.5339 29V59H34.3589ZM120.776 9.725L131.951 7.925V19.55H145.376V28.85H131.951V42.725C131.951 45.075 132.351 46.95 133.151 48.35C134.001 49.75 135.676 50.45 138.176 50.45C139.376 50.45 140.601 50.35 141.851 50.15C143.151 49.9 144.326 49.575 145.376 49.175L146.951 57.875C145.601 58.425 144.101 58.9 142.451 59.3C140.801 59.7 138.776 59.9 136.376 59.9C133.326 59.9 130.801 59.5 128.801 58.7C126.801 57.85 125.201 56.7 124.001 55.25C122.801 53.75 121.951 51.95 121.451 49.85C121.001 47.75 120.776 45.425 120.776 42.875V9.725ZM168.086 51.2C169.186 51.2 170.236 51.175 171.236 51.125C172.236 51.075 173.036 51 173.636 50.9V42.425C173.186 42.325 172.511 42.225 171.611 42.125C170.711 42.025 169.886 41.975 169.136 41.975C168.086 41.975 167.086 42.05 166.136 42.2C165.236 42.3 164.436 42.525 163.736 42.875C163.036 43.225 162.486 43.7 162.086 44.3C161.686 44.9 161.486 45.65 161.486 46.55C161.486 48.3 162.061 49.525 163.211 50.225C164.411 50.875 166.036 51.2 168.086 51.2ZM167.186 18.5C170.486 18.5 173.236 18.875 175.436 19.625C177.636 20.375 179.386 21.45 180.686 22.85C182.036 24.25 182.986 25.95 183.536 27.95C184.086 29.95 184.361 32.175 184.361 34.625V57.875C182.761 58.225 180.536 58.625 177.686 59.075C174.836 59.575 171.386 59.825 167.336 59.825C164.786 59.825 162.461 59.6 160.361 59.15C158.311 58.7 156.536 57.975 155.036 56.975C153.536 55.925 152.386 54.575 151.586 52.925C150.786 51.275 150.386 49.25 150.386 46.85C150.386 44.55 150.836 42.6 151.736 41C152.686 39.4 153.936 38.125 155.486 37.175C157.036 36.225 158.811 35.55 160.811 35.15C162.811 34.7 164.886 34.475 167.036 34.475C168.486 34.475 169.761 34.55 170.861 34.7C172.011 34.8 172.936 34.95 173.636 35.15V34.1C173.636 32.2 173.061 30.675 171.911 29.525C170.761 28.375 168.761 27.8 165.911 27.8C164.011 27.8 162.136 27.95 160.286 28.25C158.436 28.5 156.836 28.875 155.486 29.375L154.061 20.375C154.711 20.175 155.511 19.975 156.461 19.775C157.461 19.525 158.536 19.325 159.686 19.175C160.836 18.975 162.036 18.825 163.286 18.725C164.586 18.575 165.886 18.5 167.186 18.5Z" fill="black"/>
<path d="M113.024 44.525C113.024 46.775 112.624 48.85 111.824 50.75C111.074 52.6 109.924 54.225 108.374 55.625C106.824 57.025 104.874 58.125 102.524 58.925C100.224 59.675 97.5489 60.05 94.4989 60.05C90.9989 60.05 88.0739 59.575 85.7239 58.625C83.4239 57.625 81.5489 56.4 80.0989 54.95C78.6989 53.5 77.6989 51.925 77.0989 50.225C76.4989 48.475 76.1989 46.875 76.1989 45.425C76.1989 43.925 76.3989 42.55 76.7989 41.3C77.1989 40.05 77.7489 38.925 78.4489 37.925C79.1489 36.875 79.9239 35.925 80.7739 35.075C81.6739 34.225 82.6239 33.425 83.6239 32.675C81.4739 30.925 79.8739 29.2 78.8239 27.5C77.8239 25.8 77.3239 23.625 77.3239 20.975C77.3239 18.975 77.7239 17.05 78.5239 15.2C79.3739 13.35 80.5489 11.75 82.0489 10.4C83.5489 9 85.3489 7.9 87.4489 7.1C89.5989 6.25 91.9739 5.825 94.5739 5.825C97.6239 5.825 100.224 6.275 102.374 7.175C104.574 8.025 106.374 9.125 107.774 10.475C109.174 11.825 110.174 13.35 110.774 15.05C111.424 16.7 111.749 18.35 111.749 20C111.749 22.4 111.099 24.65 109.799 26.75C108.549 28.8 106.974 30.425 105.074 31.625C107.924 33.475 109.949 35.425 111.149 37.475C112.399 39.475 113.024 41.825 113.024 44.525ZM87.0739 44.975C87.0739 45.575 87.1989 46.25 87.4489 47C87.7489 47.7 88.1989 48.35 88.7989 48.95C89.3989 49.55 90.1739 50.05 91.1239 50.45C92.0739 50.85 93.2239 51.05 94.5739 51.05C97.1739 51.05 99.0739 50.425 100.274 49.175C101.474 47.925 102.074 46.525 102.074 44.975C102.074 43.825 101.799 42.8 101.249 41.9C100.749 41 100.049 40.225 99.1489 39.575C98.2489 38.875 97.1739 38.275 95.9239 37.775C94.7239 37.225 93.4239 36.725 92.0239 36.275C90.6239 37.325 89.4489 38.55 88.4989 39.95C87.5489 41.35 87.0739 43.025 87.0739 44.975ZM100.949 20.3C100.949 19.75 100.824 19.175 100.574 18.575C100.374 17.925 99.9989 17.325 99.4489 16.775C98.9489 16.225 98.2989 15.775 97.4989 15.425C96.6989 15.025 95.7239 14.825 94.5739 14.825C93.4739 14.825 92.5239 15 91.7239 15.35C90.9239 15.7 90.2489 16.175 89.6989 16.775C89.1989 17.325 88.8239 17.925 88.5739 18.575C88.3239 19.225 88.1989 19.85 88.1989 20.45C88.1989 22.05 88.7739 23.55 89.9239 24.95C91.1239 26.35 93.1489 27.55 95.9989 28.55C97.5989 27.55 98.8239 26.4 99.6739 25.1C100.524 23.8 100.949 22.2 100.949 20.3Z" fill="url(#paint0_linear_99_6277)"/>
<defs>
<linearGradient id="paint0_linear_99_6277" x1="43.25" y1="7.96429" x2="66.3457" y2="76.3003" gradientUnits="userSpaceOnUse">
<stop stop-color="#FC9867"/>
<stop offset="1" stop-color="#AB9DF2"/>
</linearGradient>
</defs>
</svg>
