<svg width="198" height="74" viewBox="0 0 198 74" fill="none" xmlns="http://www.w3.org/2000/svg">
<g filter="url(#filter0_d_731_318)">
<path d="M40.6225 42.25C39.8527 43.5833 37.9282 43.5833 37.1584 42.25L20.271 13C19.5012 11.6667 20.4634 10 22.003 10H55.778C57.3176 10 58.2798 11.6667 57.51 13L40.6225 42.25Z" fill="black"/>
</g>
<path fill-rule="evenodd" clip-rule="evenodd" d="M37.1584 42.25C37.9282 43.5833 39.8527 43.5833 40.6225 42.25L57.51 13C57.5142 12.9927 57.5184 12.9854 57.5225 12.9781L43.2204 37.75L27.199 10H22.003C20.4634 10 19.5011 11.6667 20.2709 13L37.1584 42.25Z" fill="url(#paint0_linear_731_318)"/>
<path d="M76.0605 20.16V26.28H83.2605V29.07H76.0605V35.46H84.1605V38.25H72.6405V17.37H84.1605V20.16H76.0605ZM116.903 38.25L112.103 29.91H109.493V38.25H106.073V17.4H113.273C114.873 17.4 116.223 17.68 117.323 18.24C118.443 18.8 119.273 19.55 119.813 20.49C120.373 21.43 120.653 22.48 120.653 23.64C120.653 25 120.253 26.24 119.453 27.36C118.673 28.46 117.463 29.21 115.823 29.61L120.983 38.25H116.903ZM109.493 27.18H113.273C114.553 27.18 115.513 26.86 116.153 26.22C116.813 25.58 117.143 24.72 117.143 23.64C117.143 22.56 116.823 21.72 116.183 21.12C115.543 20.5 114.573 20.19 113.273 20.19H109.493V27.18ZM156.199 17.4V20.19H150.649V38.25H147.229V20.19H141.649V17.4H156.199ZM186.872 38.46C184.932 38.46 183.142 38.01 181.502 37.11C179.882 36.19 178.592 34.92 177.632 33.3C176.692 31.66 176.222 29.82 176.222 27.78C176.222 25.74 176.692 23.91 177.632 22.29C178.592 20.67 179.882 19.41 181.502 18.51C183.142 17.59 184.932 17.13 186.872 17.13C188.832 17.13 190.622 17.59 192.242 18.51C193.882 19.41 195.172 20.67 196.112 22.29C197.052 23.91 197.522 25.74 197.522 27.78C197.522 29.82 197.052 31.66 196.112 33.3C195.172 34.92 193.882 36.19 192.242 37.11C190.622 38.01 188.832 38.46 186.872 38.46ZM186.872 35.49C188.252 35.49 189.482 35.18 190.562 34.56C191.642 33.92 192.482 33.02 193.082 31.86C193.702 30.68 194.012 29.32 194.012 27.78C194.012 26.24 193.702 24.89 193.082 23.73C192.482 22.57 191.642 21.68 190.562 21.06C189.482 20.44 188.252 20.13 186.872 20.13C185.492 20.13 184.262 20.44 183.182 21.06C182.102 21.68 181.252 22.57 180.632 23.73C180.032 24.89 179.732 26.24 179.732 27.78C179.732 29.32 180.032 30.68 180.632 31.86C181.252 33.02 182.102 33.92 183.182 34.56C184.262 35.18 185.492 35.49 186.872 35.49Z" fill="black"/>
<defs>
<filter id="filter0_d_731_318" x="9.15527e-05" y="0" width="77.7809" height="73.25" filterUnits="userSpaceOnUse" color-interpolation-filters="sRGB">
<feFlood flood-opacity="0" result="BackgroundImageFix"/>
<feColorMatrix in="SourceAlpha" type="matrix" values="0 0 0 0 0 0 0 0 0 0 0 0 0 0 0 0 0 0 127 0" result="hardAlpha"/>
<feOffset dy="10"/>
<feGaussianBlur stdDeviation="10"/>
<feColorMatrix type="matrix" values="0 0 0 0 0 0 0 0 0 0 0 0 0 0 0 0 0 0 0.2 0"/>
<feBlend mode="normal" in2="BackgroundImageFix" result="effect1_dropShadow_731_318"/>
<feBlend mode="normal" in="SourceGraphic" in2="effect1_dropShadow_731_318" result="shape"/>
</filter>
<linearGradient id="paint0_linear_731_318" x1="20" y1="14.5565" x2="35.763" y2="41.4377" gradientUnits="userSpaceOnUse">
<stop stop-color="#B288DE"/>
<stop offset="1" stop-color="#9853BB"/>
</linearGradient>
</defs>
</svg>
