<svg width="269" height="299" viewBox="0 0 269 299" fill="none" xmlns="http://www.w3.org/2000/svg">
<g clip-path="url(#clip0_236_1859)">
<g filter="url(#filter0_d_236_1859)">
<rect y="0.339111" width="569" height="367" rx="6" fill="black"/>
</g>
<path d="M37.55 58.8391V56.6291H37.47L36 60.2191L34.53 56.6291H34.45V58.8391V62.3391H33.68V55.3591H34.76L35.99 58.4391H36.05L37.28 55.3591H38.32V62.3391H37.55V58.8391ZM44.1461 62.3391C43.8328 62.3391 43.6094 62.2591 43.4761 62.0991C43.3428 61.9391 43.2594 61.7391 43.2261 61.4991H43.1761C43.0628 61.7991 42.8794 62.0358 42.6261 62.2091C42.3794 62.3758 42.0461 62.4591 41.6261 62.4591C41.0861 62.4591 40.6561 62.3191 40.3361 62.0391C40.0161 61.7591 39.8561 61.3758 39.8561 60.8891C39.8561 60.4091 40.0294 60.0391 40.3761 59.7791C40.7294 59.5191 41.2961 59.3891 42.0761 59.3891H43.1761V58.8791C43.1761 58.4991 43.0694 58.2158 42.8561 58.0291C42.6428 57.8358 42.3394 57.7391 41.9461 57.7391C41.5994 57.7391 41.3161 57.8091 41.0961 57.9491C40.8761 58.0824 40.6994 58.2658 40.5661 58.4991L40.0261 58.0991C40.0928 57.9658 40.1828 57.8358 40.2961 57.7091C40.4094 57.5824 40.5494 57.4724 40.7161 57.3791C40.8828 57.2791 41.0728 57.2024 41.2861 57.1491C41.4994 57.0891 41.7361 57.0591 41.9961 57.0591C42.6028 57.0591 43.0828 57.2124 43.4361 57.5191C43.7961 57.8258 43.9761 58.2524 43.9761 58.7991V61.6391H44.6961V62.3391H44.1461ZM41.7661 61.7891C41.9728 61.7891 42.1594 61.7658 42.3261 61.7191C42.4994 61.6658 42.6494 61.5991 42.7761 61.5191C42.9028 61.4324 42.9994 61.3324 43.0661 61.2191C43.1394 61.0991 43.1761 60.9724 43.1761 60.8391V59.9891H42.0761C41.5961 59.9891 41.2461 60.0558 41.0261 60.1891C40.8061 60.3224 40.6961 60.5158 40.6961 60.7691V60.9791C40.6961 61.2458 40.7894 61.4491 40.9761 61.5891C41.1694 61.7224 41.4328 61.7891 41.7661 61.7891ZM48.6422 62.3391C48.2489 62.3391 47.9589 62.2291 47.7722 62.0091C47.5922 61.7891 47.5022 61.5058 47.5022 61.1591V57.8591H45.7822V57.1791H47.0622C47.2355 57.1791 47.3555 57.1458 47.4222 57.0791C47.4955 57.0058 47.5322 56.8824 47.5322 56.7091V55.3591H48.3022V57.1791H50.6522V57.8591H48.3022V61.6591H50.6522V62.3391H48.6422ZM52.5683 54.9391H53.3683V58.0191H53.4083C53.4616 57.8924 53.5283 57.7724 53.6083 57.6591C53.6883 57.5391 53.7849 57.4358 53.8983 57.3491C54.0183 57.2624 54.1583 57.1924 54.3183 57.1391C54.4783 57.0858 54.6649 57.0591 54.8783 57.0591C55.4183 57.0591 55.8516 57.2324 56.1783 57.5791C56.5049 57.9191 56.6683 58.4024 56.6683 59.0291V62.3391H55.8683V59.1691C55.8683 58.6958 55.7649 58.3458 55.5583 58.1191C55.3516 57.8858 55.0483 57.7691 54.6483 57.7691C54.4883 57.7691 54.3316 57.7891 54.1783 57.8291C54.0249 57.8691 53.8883 57.9291 53.7683 58.0091C53.6483 58.0891 53.5516 58.1924 53.4783 58.3191C53.4049 58.4458 53.3683 58.5924 53.3683 58.7591V62.3391H52.5683V54.9391Z" fill="#F2994A"/>
<path d="M60.7844 62.4291C60.511 62.4291 60.3177 62.3724 60.2044 62.2591C60.0977 62.1458 60.0444 62.0024 60.0444 61.8291V61.6491C60.0444 61.4758 60.0977 61.3324 60.2044 61.2191C60.3177 61.1058 60.511 61.0491 60.7844 61.0491C61.0577 61.0491 61.2477 61.1058 61.3544 61.2191C61.4677 61.3324 61.5244 61.4758 61.5244 61.6491V61.8291C61.5244 62.0024 61.4677 62.1458 61.3544 62.2591C61.2477 62.3724 61.0577 62.4291 60.7844 62.4291ZM103.207 59.2291C103.207 58.7424 103.26 58.2758 103.367 57.8291C103.48 57.3758 103.63 56.9558 103.817 56.5691C104.01 56.1824 104.234 55.8358 104.487 55.5291C104.74 55.2158 105.007 54.9524 105.287 54.7391H106.097C105.804 54.9591 105.527 55.2158 105.267 55.5091C105.014 55.7958 104.787 56.1124 104.587 56.4591C104.394 56.7991 104.24 57.1691 104.127 57.5691C104.014 57.9624 103.957 58.3724 103.957 58.7991V59.6591C103.957 60.0858 104.014 60.4991 104.127 60.8991C104.24 61.2924 104.394 61.6624 104.587 62.0091C104.787 62.3491 105.014 62.6624 105.267 62.9491C105.527 63.2424 105.804 63.4991 106.097 63.7191H105.287C105.007 63.5124 104.74 63.2524 104.487 62.9391C104.234 62.6258 104.01 62.2758 103.817 61.8891C103.63 61.5024 103.48 61.0858 103.367 60.6391C103.26 60.1858 103.207 59.7158 103.207 59.2291ZM111.303 59.2291C111.303 59.7158 111.246 60.1858 111.133 60.6391C111.026 61.0858 110.876 61.5024 110.683 61.8891C110.496 62.2758 110.276 62.6258 110.023 62.9391C109.77 63.2524 109.503 63.5124 109.223 63.7191H108.413C108.7 63.4991 108.973 63.2424 109.233 62.9491C109.493 62.6624 109.72 62.3491 109.913 62.0091C110.113 61.6624 110.27 61.2924 110.383 60.8991C110.496 60.4991 110.553 60.0858 110.553 59.6591V58.7991C110.553 58.3724 110.496 57.9624 110.383 57.5691C110.27 57.1691 110.113 56.7991 109.913 56.4591C109.72 56.1124 109.493 55.7958 109.233 55.5091C108.973 55.2158 108.7 54.9591 108.413 54.7391H109.223C109.503 54.9524 109.77 55.2158 110.023 55.5291C110.276 55.8358 110.496 56.1824 110.683 56.5691C110.876 56.9558 111.026 57.3758 111.133 57.8291C111.246 58.2758 111.303 58.7424 111.303 59.2291ZM116.119 60.9791H117.409L116.259 63.7491H115.589L116.119 60.9791ZM116.549 58.4691C116.276 58.4691 116.083 58.4124 115.969 58.2991C115.863 58.1858 115.809 58.0424 115.809 57.8691V57.6891C115.809 57.5158 115.863 57.3724 115.969 57.2591C116.083 57.1458 116.276 57.0891 116.549 57.0891C116.823 57.0891 117.013 57.1458 117.119 57.2591C117.233 57.3724 117.289 57.5158 117.289 57.6891V57.8691C117.289 58.0424 117.233 58.1858 117.119 58.2991C117.013 58.4124 116.823 58.4691 116.549 58.4691Z" fill="#CDCDCD"/>
<path d="M64.7505 61.6591H66.2605V57.8591H64.7505V57.1791H67.0605V58.4791H67.1105C67.2171 58.0724 67.4171 57.7558 67.7105 57.5291C68.0105 57.2958 68.3905 57.1791 68.8505 57.1791H69.5705V57.9791H68.6005C68.1405 57.9791 67.7671 58.1124 67.4805 58.3791C67.2005 58.6458 67.0605 58.9958 67.0605 59.4291V61.6591H69.0605V62.3391H64.7505V61.6591ZM75.1266 62.3391C74.8132 62.3391 74.5899 62.2591 74.4566 62.0991C74.3232 61.9391 74.2399 61.7391 74.2066 61.4991H74.1566C74.0432 61.7991 73.8599 62.0358 73.6066 62.2091C73.3599 62.3758 73.0266 62.4591 72.6066 62.4591C72.0666 62.4591 71.6366 62.3191 71.3166 62.0391C70.9966 61.7591 70.8366 61.3758 70.8366 60.8891C70.8366 60.4091 71.0099 60.0391 71.3566 59.7791C71.7099 59.5191 72.2766 59.3891 73.0566 59.3891H74.1566V58.8791C74.1566 58.4991 74.0499 58.2158 73.8366 58.0291C73.6232 57.8358 73.3199 57.7391 72.9266 57.7391C72.5799 57.7391 72.2966 57.8091 72.0766 57.9491C71.8566 58.0824 71.6799 58.2658 71.5466 58.4991L71.0066 58.0991C71.0732 57.9658 71.1632 57.8358 71.2766 57.7091C71.3899 57.5824 71.5299 57.4724 71.6966 57.3791C71.8632 57.2791 72.0532 57.2024 72.2666 57.1491C72.4799 57.0891 72.7166 57.0591 72.9766 57.0591C73.5832 57.0591 74.0632 57.2124 74.4166 57.5191C74.7766 57.8258 74.9566 58.2524 74.9566 58.7991V61.6391H75.6766V62.3391H75.1266ZM72.7466 61.7891C72.9532 61.7891 73.1399 61.7658 73.3066 61.7191C73.4799 61.6658 73.6299 61.5991 73.7566 61.5191C73.8832 61.4324 73.9799 61.3324 74.0466 61.2191C74.1199 61.0991 74.1566 60.9724 74.1566 60.8391V59.9891H73.0566C72.5766 59.9891 72.2266 60.0558 72.0066 60.1891C71.7866 60.3224 71.6766 60.5158 71.6766 60.7691V60.9791C71.6766 61.2458 71.7699 61.4491 71.9566 61.5891C72.1499 61.7224 72.4132 61.7891 72.7466 61.7891ZM77.3527 62.3391V57.1791H78.1527V58.0191H78.1927C78.246 57.8924 78.3127 57.7724 78.3927 57.6591C78.4727 57.5391 78.5693 57.4358 78.6827 57.3491C78.8027 57.2624 78.9427 57.1924 79.1027 57.1391C79.2627 57.0858 79.4493 57.0591 79.6627 57.0591C80.2027 57.0591 80.636 57.2324 80.9627 57.5791C81.2893 57.9191 81.4527 58.4024 81.4527 59.0291V62.3391H80.6527V59.1691C80.6527 58.6958 80.5493 58.3458 80.3427 58.1191C80.136 57.8858 79.8327 57.7691 79.4327 57.7691C79.2727 57.7691 79.116 57.7891 78.9627 57.8291C78.8093 57.8691 78.6727 57.9291 78.5527 58.0091C78.4327 58.0891 78.336 58.1924 78.2627 58.3191C78.1893 58.4458 78.1527 58.5924 78.1527 58.7591V62.3391H77.3527ZM86.8187 61.4991H86.7787C86.4454 62.1391 85.9154 62.4591 85.1887 62.4591C84.5554 62.4591 84.0587 62.2224 83.6987 61.7491C83.3454 61.2758 83.1687 60.6124 83.1687 59.7591C83.1687 58.9058 83.3454 58.2424 83.6987 57.7691C84.0587 57.2958 84.5554 57.0591 85.1887 57.0591C85.9154 57.0591 86.4454 57.3791 86.7787 58.0191H86.8187V54.9391H87.6187V62.3391H86.8187V61.4991ZM85.4987 61.7491C85.6787 61.7491 85.8487 61.7258 86.0087 61.6791C86.1687 61.6324 86.3087 61.5658 86.4287 61.4791C86.5487 61.3858 86.6421 61.2758 86.7087 61.1491C86.7821 61.0158 86.8187 60.8624 86.8187 60.6891V58.8291C86.8187 58.6558 86.7821 58.5058 86.7087 58.3791C86.6421 58.2458 86.5487 58.1358 86.4287 58.0491C86.3087 57.9558 86.1687 57.8858 86.0087 57.8391C85.8487 57.7924 85.6787 57.7691 85.4987 57.7691C85.0321 57.7691 84.6687 57.9124 84.4087 58.1991C84.1554 58.4791 84.0287 58.8524 84.0287 59.3191V60.1991C84.0287 60.6658 84.1554 61.0424 84.4087 61.3291C84.6687 61.6091 85.0321 61.7491 85.4987 61.7491ZM91.7648 62.4591C91.4048 62.4591 91.0782 62.3958 90.7848 62.2691C90.4982 62.1424 90.2515 61.9624 90.0448 61.7291C89.8448 61.4891 89.6915 61.2058 89.5848 60.8791C89.4782 60.5458 89.4248 60.1724 89.4248 59.7591C89.4248 59.3524 89.4782 58.9824 89.5848 58.6491C89.6915 58.3158 89.8448 58.0324 90.0448 57.7991C90.2515 57.5591 90.4982 57.3758 90.7848 57.2491C91.0782 57.1224 91.4048 57.0591 91.7648 57.0591C92.1248 57.0591 92.4482 57.1224 92.7348 57.2491C93.0282 57.3758 93.2748 57.5591 93.4748 57.7991C93.6815 58.0324 93.8382 58.3158 93.9448 58.6491C94.0515 58.9824 94.1048 59.3524 94.1048 59.7591C94.1048 60.1724 94.0515 60.5458 93.9448 60.8791C93.8382 61.2058 93.6815 61.4891 93.4748 61.7291C93.2748 61.9624 93.0282 62.1424 92.7348 62.2691C92.4482 62.3958 92.1248 62.4591 91.7648 62.4591ZM91.7648 61.7691C92.2115 61.7691 92.5715 61.6358 92.8448 61.3691C93.1182 61.1024 93.2548 60.6891 93.2548 60.1291V59.3891C93.2548 58.8291 93.1182 58.4158 92.8448 58.1491C92.5715 57.8824 92.2115 57.7491 91.7648 57.7491C91.3182 57.7491 90.9582 57.8824 90.6848 58.1491C90.4115 58.4158 90.2748 58.8291 90.2748 59.3891V60.1291C90.2748 60.6891 90.4115 61.1024 90.6848 61.3691C90.9582 61.6358 91.3182 61.7691 91.7648 61.7691ZM95.5009 62.3391V57.1791H96.2409V57.7791H96.2809C96.3609 57.5791 96.4743 57.4091 96.6209 57.2691C96.7676 57.1291 96.9843 57.0591 97.2709 57.0591C97.5709 57.0591 97.7943 57.1358 97.9409 57.2891C98.0876 57.4358 98.1776 57.6291 98.2109 57.8691H98.2409C98.3343 57.6358 98.4676 57.4424 98.6409 57.2891C98.8143 57.1358 99.0543 57.0591 99.3609 57.0591C99.7809 57.0591 100.061 57.2058 100.201 57.4991C100.348 57.7924 100.421 58.2124 100.421 58.7591V62.3391H99.6809V58.8891C99.6809 58.4491 99.6343 58.1458 99.5409 57.9791C99.4543 57.8058 99.2909 57.7191 99.0509 57.7191C98.8376 57.7191 98.6643 57.7891 98.5309 57.9291C98.3976 58.0624 98.3309 58.2691 98.3309 58.5491V62.3391H97.5909V58.8891C97.5909 58.4491 97.5443 58.1458 97.4509 57.9791C97.3643 57.8058 97.2043 57.7191 96.9709 57.7191C96.7576 57.7191 96.5809 57.7891 96.4409 57.9291C96.3076 58.0624 96.2409 58.2691 96.2409 58.5491V62.3391H95.5009Z" fill="#3AA6E3"/>
<path d="M36.18 81.4591C35.8067 81.4591 35.4733 81.3958 35.18 81.2691C34.8933 81.1358 34.65 80.9524 34.45 80.7191C34.25 80.4858 34.0967 80.2024 33.99 79.8691C33.89 79.5358 33.84 79.1658 33.84 78.7591C33.84 78.3524 33.8933 77.9824 34 77.6491C34.1067 77.3158 34.26 77.0324 34.46 76.7991C34.66 76.5591 34.9033 76.3758 35.19 76.2491C35.4767 76.1224 35.8033 76.0591 36.17 76.0591C36.67 76.0591 37.0767 76.1691 37.39 76.3891C37.7033 76.6091 37.9333 76.8958 38.08 77.2491L37.44 77.5891C37.3467 77.3224 37.19 77.1158 36.97 76.9691C36.7567 76.8224 36.49 76.7491 36.17 76.7491C35.9367 76.7491 35.7267 76.7891 35.54 76.8691C35.36 76.9424 35.2067 77.0491 35.08 77.1891C34.9533 77.3291 34.8567 77.4958 34.79 77.6891C34.73 77.8824 34.7 78.0924 34.7 78.3191V79.1991C34.7 79.4258 34.73 79.6358 34.79 79.8291C34.8567 80.0224 34.9533 80.1891 35.08 80.3291C35.2067 80.4691 35.3633 80.5791 35.55 80.6591C35.7367 80.7324 35.95 80.7691 36.19 80.7691C36.5367 80.7691 36.8233 80.6891 37.05 80.5291C37.2767 80.3691 37.4567 80.1491 37.59 79.8691L38.16 80.2591C38.0067 80.6058 37.7667 80.8924 37.44 81.1191C37.12 81.3458 36.7 81.4591 36.18 81.4591ZM39.9661 80.6591H41.4761V76.8591H39.9661V76.1791H42.2761V77.4791H42.3261C42.4328 77.0724 42.6328 76.7558 42.9261 76.5291C43.2261 76.2958 43.6061 76.1791 44.0661 76.1791H44.7861V76.9791H43.8161C43.3561 76.9791 42.9828 77.1124 42.6961 77.3791C42.4161 77.6458 42.2761 77.9958 42.2761 78.4291V80.6591H44.2761V81.3391H39.9661V80.6591ZM50.0622 76.1791H50.8622L48.3022 82.4691C48.2422 82.6158 48.1755 82.7424 48.1022 82.8491C48.0289 82.9624 47.9422 83.0524 47.8422 83.1191C47.7422 83.1924 47.6222 83.2458 47.4822 83.2791C47.3422 83.3191 47.1755 83.3391 46.9822 83.3391H46.2222V82.6591H47.4222L48.0022 81.2391L45.9222 76.1791H46.7422L47.6122 78.3391L48.3822 80.2991H48.4222L49.1922 78.3391L50.0622 76.1791ZM52.5383 76.1791H53.3383V77.0191H53.3783C53.7116 76.3791 54.2416 76.0591 54.9683 76.0591C55.6016 76.0591 56.0949 76.2958 56.4483 76.7691C56.8083 77.2424 56.9883 77.9058 56.9883 78.7591C56.9883 79.6124 56.8083 80.2758 56.4483 80.7491C56.0949 81.2224 55.6016 81.4591 54.9683 81.4591C54.2416 81.4591 53.7116 81.1391 53.3783 80.4991H53.3383V83.3391H52.5383V76.1791ZM54.6583 80.7491C55.1249 80.7491 55.4849 80.6091 55.7383 80.3291C55.9983 80.0424 56.1283 79.6658 56.1283 79.1991V78.3191C56.1283 77.8524 55.9983 77.4791 55.7383 77.1991C55.4849 76.9124 55.1249 76.7691 54.6583 76.7691C54.4783 76.7691 54.3083 76.7924 54.1483 76.8391C53.9883 76.8858 53.8483 76.9558 53.7283 77.0491C53.6083 77.1358 53.5116 77.2458 53.4383 77.3791C53.3716 77.5058 53.3383 77.6558 53.3383 77.8291V79.6891C53.3383 79.8624 53.3716 80.0158 53.4383 80.1491C53.5116 80.2758 53.6083 80.3858 53.7283 80.4791C53.8483 80.5658 53.9883 80.6324 54.1483 80.6791C54.3083 80.7258 54.4783 80.7491 54.6583 80.7491ZM61.0344 81.3391C60.641 81.3391 60.351 81.2291 60.1644 81.0091C59.9844 80.7891 59.8944 80.5058 59.8944 80.1591V76.8591H58.1744V76.1791H59.4544C59.6277 76.1791 59.7477 76.1458 59.8144 76.0791C59.8877 76.0058 59.9244 75.8824 59.9244 75.7091V74.3591H60.6944V76.1791H63.0444V76.8591H60.6944V80.6591H63.0444V81.3391H61.0344ZM66.9805 81.4591C66.6205 81.4591 66.2938 81.3958 66.0005 81.2691C65.7138 81.1424 65.4671 80.9624 65.2605 80.7291C65.0605 80.4891 64.9071 80.2058 64.8005 79.8791C64.6938 79.5458 64.6405 79.1724 64.6405 78.7591C64.6405 78.3524 64.6938 77.9824 64.8005 77.6491C64.9071 77.3158 65.0605 77.0324 65.2605 76.7991C65.4671 76.5591 65.7138 76.3758 66.0005 76.2491C66.2938 76.1224 66.6205 76.0591 66.9805 76.0591C67.3405 76.0591 67.6638 76.1224 67.9505 76.2491C68.2438 76.3758 68.4905 76.5591 68.6905 76.7991C68.8971 77.0324 69.0538 77.3158 69.1605 77.6491C69.2671 77.9824 69.3205 78.3524 69.3205 78.7591C69.3205 79.1724 69.2671 79.5458 69.1605 79.8791C69.0538 80.2058 68.8971 80.4891 68.6905 80.7291C68.4905 80.9624 68.2438 81.1424 67.9505 81.2691C67.6638 81.3958 67.3405 81.4591 66.9805 81.4591ZM66.9805 80.7691C67.4271 80.7691 67.7871 80.6358 68.0605 80.3691C68.3338 80.1024 68.4705 79.6891 68.4705 79.1291V78.3891C68.4705 77.8291 68.3338 77.4158 68.0605 77.1491C67.7871 76.8824 67.4271 76.7491 66.9805 76.7491C66.5338 76.7491 66.1738 76.8824 65.9005 77.1491C65.6271 77.4158 65.4905 77.8291 65.4905 78.3891V79.1291C65.4905 79.6891 65.6271 80.1024 65.9005 80.3691C66.1738 80.6358 66.5338 80.7691 66.9805 80.7691ZM73.1766 81.4291C72.9032 81.4291 72.7099 81.3724 72.5966 81.2591C72.4899 81.1458 72.4366 81.0024 72.4366 80.8291V80.6491C72.4366 80.4758 72.4899 80.3324 72.5966 80.2191C72.7099 80.1058 72.9032 80.0491 73.1766 80.0491C73.4499 80.0491 73.6399 80.1058 73.7466 80.2191C73.8599 80.3324 73.9166 80.4758 73.9166 80.6491V80.8291C73.9166 81.0024 73.8599 81.1458 73.7466 81.2591C73.6399 81.3724 73.4499 81.4291 73.1766 81.4291ZM171.364 78.2291C171.364 77.7424 171.417 77.2758 171.524 76.8291C171.637 76.3758 171.787 75.9558 171.974 75.5691C172.167 75.1824 172.391 74.8358 172.644 74.5291C172.897 74.2158 173.164 73.9524 173.444 73.7391H174.254C173.961 73.9591 173.684 74.2158 173.424 74.5091C173.171 74.7958 172.944 75.1124 172.744 75.4591C172.551 75.7991 172.397 76.1691 172.284 76.5691C172.171 76.9624 172.114 77.3724 172.114 77.7991V78.6591C172.114 79.0858 172.171 79.4991 172.284 79.8991C172.397 80.2924 172.551 80.6624 172.744 81.0091C172.944 81.3491 173.171 81.6624 173.424 81.9491C173.684 82.2424 173.961 82.4991 174.254 82.7191H173.444C173.164 82.5124 172.897 82.2524 172.644 81.9391C172.391 81.6258 172.167 81.2758 171.974 80.8891C171.787 80.5024 171.637 80.0858 171.524 79.6391C171.417 79.1858 171.364 78.7158 171.364 78.2291ZM179.46 78.2291C179.46 78.7158 179.403 79.1858 179.29 79.6391C179.183 80.0858 179.033 80.5024 178.84 80.8891C178.653 81.2758 178.433 81.6258 178.18 81.9391C177.927 82.2524 177.66 82.5124 177.38 82.7191H176.57C176.857 82.4991 177.13 82.2424 177.39 81.9491C177.65 81.6624 177.877 81.3491 178.07 81.0091C178.27 80.6624 178.427 80.2924 178.54 79.8991C178.653 79.4991 178.71 79.0858 178.71 78.6591V77.7991C178.71 77.3724 178.653 76.9624 178.54 76.5691C178.427 76.1691 178.27 75.7991 178.07 75.4591C177.877 75.1124 177.65 74.7958 177.39 74.5091C177.13 74.2158 176.857 73.9591 176.57 73.7391H177.38C177.66 73.9524 177.927 74.2158 178.18 74.5291C178.433 74.8358 178.653 75.1824 178.84 75.5691C179.033 75.9558 179.183 76.3758 179.29 76.8291C179.403 77.2758 179.46 77.7424 179.46 78.2291ZM184.276 79.9791H185.566L184.416 82.7491H183.746L184.276 79.9791ZM184.706 77.4691C184.433 77.4691 184.24 77.4124 184.126 77.2991C184.02 77.1858 183.966 77.0424 183.966 76.8691V76.6891C183.966 76.5158 184.02 76.3724 184.126 76.2591C184.24 76.1458 184.433 76.0891 184.706 76.0891C184.98 76.0891 185.17 76.1458 185.276 76.2591C185.39 76.3724 185.446 76.5158 185.446 76.6891V76.8691C185.446 77.0424 185.39 77.1858 185.276 77.2991C185.17 77.4124 184.98 77.4691 184.706 77.4691Z" fill="#CDCDCD"/>
<path d="M81.9827 81.9291C81.9827 82.4491 81.766 82.8324 81.3327 83.0791C80.8993 83.3324 80.2493 83.4591 79.3827 83.4591C78.5493 83.4591 77.9493 83.3491 77.5827 83.1291C77.2227 82.9091 77.0427 82.5924 77.0427 82.1791C77.0427 81.8991 77.116 81.6824 77.2627 81.5291C77.4093 81.3758 77.616 81.2624 77.8827 81.1891V81.0691C77.736 80.9958 77.6227 80.9024 77.5427 80.7891C77.4627 80.6758 77.4227 80.5324 77.4227 80.3591C77.4227 80.0924 77.5093 79.8924 77.6827 79.7591C77.8627 79.6258 78.086 79.5258 78.3527 79.4591V79.4191C78.0327 79.2791 77.7827 79.0724 77.6027 78.7991C77.4293 78.5258 77.3427 78.2058 77.3427 77.8391C77.3427 77.5791 77.3893 77.3391 77.4827 77.1191C77.576 76.8991 77.7093 76.7124 77.8827 76.5591C78.0627 76.3991 78.276 76.2758 78.5227 76.1891C78.7693 76.1024 79.0427 76.0591 79.3427 76.0591C79.7293 76.0591 80.0693 76.1291 80.3627 76.2691V76.1791C80.3627 75.9791 80.4093 75.8124 80.5027 75.6791C80.596 75.5458 80.756 75.4791 80.9827 75.4791H81.9327V76.1791H80.7727V76.5291C80.9593 76.6891 81.1027 76.8791 81.2027 77.0991C81.3027 77.3191 81.3527 77.5658 81.3527 77.8391C81.3527 78.0991 81.3027 78.3391 81.2027 78.5591C81.1093 78.7791 80.976 78.9691 80.8027 79.1291C80.6293 79.2824 80.416 79.4024 80.1627 79.4891C79.916 79.5758 79.6427 79.6191 79.3427 79.6191C79.256 79.6191 79.1727 79.6158 79.0927 79.6091C79.0127 79.6024 78.9327 79.5924 78.8527 79.5791C78.7727 79.5924 78.6893 79.6158 78.6027 79.6491C78.516 79.6758 78.436 79.7158 78.3627 79.7691C78.2893 79.8158 78.2293 79.8724 78.1827 79.9391C78.136 80.0058 78.1127 80.0824 78.1127 80.1691C78.1127 80.3224 78.1893 80.4258 78.3427 80.4791C78.496 80.5258 78.696 80.5491 78.9427 80.5491H80.0827C80.7493 80.5491 81.2327 80.6758 81.5327 80.9291C81.8327 81.1758 81.9827 81.5091 81.9827 81.9291ZM81.2327 81.9691C81.2327 81.7624 81.1493 81.5958 80.9827 81.4691C80.816 81.3491 80.526 81.2891 80.1127 81.2891H78.3227C77.976 81.4291 77.8027 81.6624 77.8027 81.9891C77.8027 82.2158 77.8927 82.4091 78.0727 82.5691C78.2527 82.7358 78.5527 82.8191 78.9727 82.8191H79.7527C80.2193 82.8191 80.5827 82.7458 80.8427 82.5991C81.1027 82.4591 81.2327 82.2491 81.2327 81.9691ZM79.3427 78.9991C79.7427 78.9991 80.036 78.9058 80.2227 78.7191C80.416 78.5324 80.5127 78.2858 80.5127 77.9791V77.6891C80.5127 77.3824 80.416 77.1391 80.2227 76.9591C80.036 76.7724 79.7427 76.6791 79.3427 76.6791C78.9427 76.6791 78.6493 76.7724 78.4627 76.9591C78.276 77.1391 78.1827 77.3824 78.1827 77.6891V77.9791C78.1827 78.2858 78.276 78.5324 78.4627 78.7191C78.6493 78.9058 78.9427 78.9991 79.3427 78.9991ZM85.6587 81.4591C85.2854 81.4591 84.9487 81.3958 84.6487 81.2691C84.3554 81.1424 84.1021 80.9624 83.8887 80.7291C83.6821 80.4891 83.5221 80.2058 83.4087 79.8791C83.2954 79.5458 83.2387 79.1758 83.2387 78.7691C83.2387 78.3558 83.2954 77.9824 83.4087 77.6491C83.5287 77.3158 83.6921 77.0324 83.8987 76.7991C84.1054 76.5591 84.3521 76.3758 84.6387 76.2491C84.9321 76.1224 85.2554 76.0591 85.6087 76.0591C85.9554 76.0591 86.2687 76.1224 86.5487 76.2491C86.8354 76.3758 87.0787 76.5524 87.2787 76.7791C87.4787 76.9991 87.6321 77.2624 87.7387 77.5691C87.8454 77.8758 87.8987 78.2124 87.8987 78.5791V78.9591H84.0787V79.1991C84.0787 79.4258 84.1154 79.6358 84.1887 79.8291C84.2621 80.0224 84.3654 80.1891 84.4987 80.3291C84.6387 80.4691 84.8054 80.5791 84.9987 80.6591C85.1987 80.7324 85.4187 80.7691 85.6587 80.7691C86.0054 80.7691 86.3054 80.6891 86.5587 80.5291C86.8121 80.3691 87.0054 80.1491 87.1387 79.8691L87.7287 80.2691C87.5754 80.6158 87.3187 80.9024 86.9587 81.1291C86.6054 81.3491 86.1721 81.4591 85.6587 81.4591ZM85.6087 76.7191C85.3887 76.7191 85.1854 76.7591 84.9987 76.8391C84.8121 76.9191 84.6487 77.0291 84.5087 77.1691C84.3754 77.3091 84.2687 77.4758 84.1887 77.6691C84.1154 77.8558 84.0787 78.0624 84.0787 78.2891V78.3591H87.0387V78.2491C87.0387 78.0224 87.0021 77.8158 86.9287 77.6291C86.8621 77.4424 86.7654 77.2824 86.6387 77.1491C86.5187 77.0091 86.3687 76.9024 86.1887 76.8291C86.0154 76.7558 85.8221 76.7191 85.6087 76.7191ZM92.0148 81.3391C91.6215 81.3391 91.3315 81.2291 91.1448 81.0091C90.9648 80.7891 90.8748 80.5058 90.8748 80.1591V76.8591H89.1548V76.1791H90.4348C90.6082 76.1791 90.7282 76.1458 90.7948 76.0791C90.8682 76.0058 90.9048 75.8824 90.9048 75.7091V74.3591H91.6748V76.1791H94.0248V76.8591H91.6748V80.6591H94.0248V81.3391H92.0148ZM96.7009 81.3391H95.8609V74.3591H98.4009C99.0476 74.3591 99.5409 74.5358 99.8809 74.8891C100.221 75.2424 100.391 75.7358 100.391 76.3691C100.391 76.9358 100.244 77.3891 99.9509 77.7291C99.6576 78.0691 99.2309 78.2658 98.6709 78.3191L100.451 81.3391H99.5109L97.8109 78.3591H96.7009V81.3391ZM98.3809 77.6491C98.7343 77.6491 99.0076 77.5624 99.2009 77.3891C99.4009 77.2091 99.5009 76.9558 99.5009 76.6291V76.1091C99.5009 75.7824 99.4009 75.5324 99.2009 75.3591C99.0076 75.1791 98.7343 75.0891 98.3809 75.0891H96.7009V77.6491H98.3809ZM106.107 81.3391C105.794 81.3391 105.57 81.2591 105.437 81.0991C105.304 80.9391 105.22 80.7391 105.187 80.4991H105.137C105.024 80.7991 104.84 81.0358 104.587 81.2091C104.34 81.3758 104.007 81.4591 103.587 81.4591C103.047 81.4591 102.617 81.3191 102.297 81.0391C101.977 80.7591 101.817 80.3758 101.817 79.8891C101.817 79.4091 101.99 79.0391 102.337 78.7791C102.69 78.5191 103.257 78.3891 104.037 78.3891H105.137V77.8791C105.137 77.4991 105.03 77.2158 104.817 77.0291C104.604 76.8358 104.3 76.7391 103.907 76.7391C103.56 76.7391 103.277 76.8091 103.057 76.9491C102.837 77.0824 102.66 77.2658 102.527 77.4991L101.987 77.0991C102.054 76.9658 102.144 76.8358 102.257 76.7091C102.37 76.5824 102.51 76.4724 102.677 76.3791C102.844 76.2791 103.034 76.2024 103.247 76.1491C103.46 76.0891 103.697 76.0591 103.957 76.0591C104.564 76.0591 105.044 76.2124 105.397 76.5191C105.757 76.8258 105.937 77.2524 105.937 77.7991V80.6391H106.657V81.3391H106.107ZM103.727 80.7891C103.934 80.7891 104.12 80.7658 104.287 80.7191C104.46 80.6658 104.61 80.5991 104.737 80.5191C104.864 80.4324 104.96 80.3324 105.027 80.2191C105.1 80.0991 105.137 79.9724 105.137 79.8391V78.9891H104.037C103.557 78.9891 103.207 79.0558 102.987 79.1891C102.767 79.3224 102.657 79.5158 102.657 79.7691V79.9791C102.657 80.2458 102.75 80.4491 102.937 80.5891C103.13 80.7224 103.394 80.7891 103.727 80.7891ZM108.333 81.3391V76.1791H109.133V77.0191H109.173C109.226 76.8924 109.293 76.7724 109.373 76.6591C109.453 76.5391 109.55 76.4358 109.663 76.3491C109.783 76.2624 109.923 76.1924 110.083 76.1391C110.243 76.0858 110.43 76.0591 110.643 76.0591C111.183 76.0591 111.616 76.2324 111.943 76.5791C112.27 76.9191 112.433 77.4024 112.433 78.0291V81.3391H111.633V78.1691C111.633 77.6958 111.53 77.3458 111.323 77.1191C111.116 76.8858 110.813 76.7691 110.413 76.7691C110.253 76.7691 110.096 76.7891 109.943 76.8291C109.79 76.8691 109.653 76.9291 109.533 77.0091C109.413 77.0891 109.316 77.1924 109.243 77.3191C109.17 77.4458 109.133 77.5924 109.133 77.7591V81.3391H108.333ZM117.799 80.4991H117.759C117.426 81.1391 116.896 81.4591 116.169 81.4591C115.536 81.4591 115.039 81.2224 114.679 80.7491C114.326 80.2758 114.149 79.6124 114.149 78.7591C114.149 77.9058 114.326 77.2424 114.679 76.7691C115.039 76.2958 115.536 76.0591 116.169 76.0591C116.896 76.0591 117.426 76.3791 117.759 77.0191H117.799V73.9391H118.599V81.3391H117.799V80.4991ZM116.479 80.7491C116.659 80.7491 116.829 80.7258 116.989 80.6791C117.149 80.6324 117.289 80.5658 117.409 80.4791C117.529 80.3858 117.623 80.2758 117.689 80.1491C117.763 80.0158 117.799 79.8624 117.799 79.6891V77.8291C117.799 77.6558 117.763 77.5058 117.689 77.3791C117.623 77.2458 117.529 77.1358 117.409 77.0491C117.289 76.9558 117.149 76.8858 116.989 76.8391C116.829 76.7924 116.659 76.7691 116.479 76.7691C116.013 76.7691 115.649 76.9124 115.389 77.1991C115.136 77.4791 115.009 77.8524 115.009 78.3191V79.1991C115.009 79.6658 115.136 80.0424 115.389 80.3291C115.649 80.6091 116.013 80.7491 116.479 80.7491ZM122.745 81.4591C122.385 81.4591 122.059 81.3958 121.765 81.2691C121.479 81.1424 121.232 80.9624 121.025 80.7291C120.825 80.4891 120.672 80.2058 120.565 79.8791C120.459 79.5458 120.405 79.1724 120.405 78.7591C120.405 78.3524 120.459 77.9824 120.565 77.6491C120.672 77.3158 120.825 77.0324 121.025 76.7991C121.232 76.5591 121.479 76.3758 121.765 76.2491C122.059 76.1224 122.385 76.0591 122.745 76.0591C123.105 76.0591 123.429 76.1224 123.715 76.2491C124.009 76.3758 124.255 76.5591 124.455 76.7991C124.662 77.0324 124.819 77.3158 124.925 77.6491C125.032 77.9824 125.085 78.3524 125.085 78.7591C125.085 79.1724 125.032 79.5458 124.925 79.8791C124.819 80.2058 124.662 80.4891 124.455 80.7291C124.255 80.9624 124.009 81.1424 123.715 81.2691C123.429 81.3958 123.105 81.4591 122.745 81.4591ZM122.745 80.7691C123.192 80.7691 123.552 80.6358 123.825 80.3691C124.099 80.1024 124.235 79.6891 124.235 79.1291V78.3891C124.235 77.8291 124.099 77.4158 123.825 77.1491C123.552 76.8824 123.192 76.7491 122.745 76.7491C122.299 76.7491 121.939 76.8824 121.665 77.1491C121.392 77.4158 121.255 77.8291 121.255 78.3891V79.1291C121.255 79.6891 121.392 80.1024 121.665 80.3691C121.939 80.6358 122.299 80.7691 122.745 80.7691ZM126.481 81.3391V76.1791H127.221V76.7791H127.261C127.341 76.5791 127.455 76.4091 127.601 76.2691C127.748 76.1291 127.965 76.0591 128.251 76.0591C128.551 76.0591 128.775 76.1358 128.921 76.2891C129.068 76.4358 129.158 76.6291 129.191 76.8691H129.221C129.315 76.6358 129.448 76.4424 129.621 76.2891C129.795 76.1358 130.035 76.0591 130.341 76.0591C130.761 76.0591 131.041 76.2058 131.181 76.4991C131.328 76.7924 131.401 77.2124 131.401 77.7591V81.3391H130.661V77.8891C130.661 77.4491 130.615 77.1458 130.521 76.9791C130.435 76.8058 130.271 76.7191 130.031 76.7191C129.818 76.7191 129.645 76.7891 129.511 76.9291C129.378 77.0624 129.311 77.2691 129.311 77.5491V81.3391H128.571V77.8891C128.571 77.4491 128.525 77.1458 128.431 76.9791C128.345 76.8058 128.185 76.7191 127.951 76.7191C127.738 76.7191 127.561 76.7891 127.421 76.9291C127.288 77.0624 127.221 77.2691 127.221 77.5491V81.3391H126.481ZM134.567 81.3391L132.497 74.3591H133.387L134.377 77.8491L135.127 80.4891H135.177L135.927 77.8491L136.917 74.3591H137.777L135.707 81.3391H134.567ZM143.284 81.3391C142.97 81.3391 142.747 81.2591 142.614 81.0991C142.48 80.9391 142.397 80.7391 142.364 80.4991H142.314C142.2 80.7991 142.017 81.0358 141.764 81.2091C141.517 81.3758 141.184 81.4591 140.764 81.4591C140.224 81.4591 139.794 81.3191 139.474 81.0391C139.154 80.7591 138.994 80.3758 138.994 79.8891C138.994 79.4091 139.167 79.0391 139.514 78.7791C139.867 78.5191 140.434 78.3891 141.214 78.3891H142.314V77.8791C142.314 77.4991 142.207 77.2158 141.994 77.0291C141.78 76.8358 141.477 76.7391 141.084 76.7391C140.737 76.7391 140.454 76.8091 140.234 76.9491C140.014 77.0824 139.837 77.2658 139.704 77.4991L139.164 77.0991C139.23 76.9658 139.32 76.8358 139.434 76.7091C139.547 76.5824 139.687 76.4724 139.854 76.3791C140.02 76.2791 140.21 76.2024 140.424 76.1491C140.637 76.0891 140.874 76.0591 141.134 76.0591C141.74 76.0591 142.22 76.2124 142.574 76.5191C142.934 76.8258 143.114 77.2524 143.114 77.7991V80.6391H143.834V81.3391H143.284ZM140.904 80.7891C141.11 80.7891 141.297 80.7658 141.464 80.7191C141.637 80.6658 141.787 80.5991 141.914 80.5191C142.04 80.4324 142.137 80.3324 142.204 80.2191C142.277 80.0991 142.314 79.9724 142.314 79.8391V78.9891H141.214C140.734 78.9891 140.384 79.0558 140.164 79.1891C139.944 79.3224 139.834 79.5158 139.834 79.7691V79.9791C139.834 80.2458 139.927 80.4491 140.114 80.5891C140.307 80.7224 140.57 80.7891 140.904 80.7891ZM145.33 80.6591H147.13V74.6191H145.33V73.9391H147.93V80.6591H149.73V81.3391H145.33V80.6591ZM154.946 80.4991H154.906C154.852 80.6258 154.786 80.7491 154.706 80.8691C154.626 80.9824 154.526 81.0824 154.406 81.1691C154.292 81.2558 154.156 81.3258 153.996 81.3791C153.836 81.4324 153.649 81.4591 153.436 81.4591C152.896 81.4591 152.462 81.2891 152.136 80.9491C151.809 80.6024 151.646 80.1158 151.646 79.4891V76.1791H152.446V79.3491C152.446 79.8224 152.549 80.1758 152.756 80.4091C152.962 80.6358 153.266 80.7491 153.666 80.7491C153.826 80.7491 153.982 80.7291 154.136 80.6891C154.289 80.6491 154.426 80.5891 154.546 80.5091C154.666 80.4291 154.762 80.3291 154.836 80.2091C154.909 80.0824 154.946 79.9324 154.946 79.7591V76.1791H155.746V81.3391H154.946V80.4991ZM160.012 81.4591C159.639 81.4591 159.302 81.3958 159.002 81.2691C158.709 81.1424 158.455 80.9624 158.242 80.7291C158.035 80.4891 157.875 80.2058 157.762 79.8791C157.649 79.5458 157.592 79.1758 157.592 78.7691C157.592 78.3558 157.649 77.9824 157.762 77.6491C157.882 77.3158 158.045 77.0324 158.252 76.7991C158.459 76.5591 158.705 76.3758 158.992 76.2491C159.285 76.1224 159.609 76.0591 159.962 76.0591C160.309 76.0591 160.622 76.1224 160.902 76.2491C161.189 76.3758 161.432 76.5524 161.632 76.7791C161.832 76.9991 161.985 77.2624 162.092 77.5691C162.199 77.8758 162.252 78.2124 162.252 78.5791V78.9591H158.432V79.1991C158.432 79.4258 158.469 79.6358 158.542 79.8291C158.615 80.0224 158.719 80.1891 158.852 80.3291C158.992 80.4691 159.159 80.5791 159.352 80.6591C159.552 80.7324 159.772 80.7691 160.012 80.7691C160.359 80.7691 160.659 80.6891 160.912 80.5291C161.165 80.3691 161.359 80.1491 161.492 79.8691L162.082 80.2691C161.929 80.6158 161.672 80.9024 161.312 81.1291C160.959 81.3491 160.525 81.4591 160.012 81.4591ZM159.962 76.7191C159.742 76.7191 159.539 76.7591 159.352 76.8391C159.165 76.9191 159.002 77.0291 158.862 77.1691C158.729 77.3091 158.622 77.4758 158.542 77.6691C158.469 77.8558 158.432 78.0624 158.432 78.2891V78.3591H161.392V78.2491C161.392 78.0224 161.355 77.8158 161.282 77.6291C161.215 77.4424 161.119 77.2824 160.992 77.1491C160.872 77.0091 160.722 76.9024 160.542 76.8291C160.369 76.7558 160.175 76.7191 159.962 76.7191ZM166.178 81.4591C165.638 81.4591 165.171 81.3691 164.778 81.1891C164.391 81.0024 164.061 80.7558 163.788 80.4491L164.328 79.9791C164.575 80.2391 164.845 80.4391 165.138 80.5791C165.431 80.7191 165.785 80.7891 166.198 80.7891C166.598 80.7891 166.925 80.7191 167.178 80.5791C167.438 80.4324 167.568 80.2058 167.568 79.8991C167.568 79.7658 167.541 79.6558 167.488 79.5691C167.441 79.4758 167.375 79.4024 167.288 79.3491C167.201 79.2958 167.105 79.2558 166.998 79.2291C166.891 79.1958 166.778 79.1691 166.658 79.1491L165.848 79.0291C165.668 79.0024 165.471 78.9658 165.258 78.9191C165.051 78.8724 164.861 78.7991 164.688 78.6991C164.515 78.5924 164.368 78.4524 164.248 78.2791C164.135 78.1058 164.078 77.8791 164.078 77.5991C164.078 77.3391 164.128 77.1158 164.228 76.9291C164.335 76.7358 164.481 76.5758 164.668 76.4491C164.855 76.3158 165.075 76.2191 165.328 76.1591C165.581 76.0924 165.858 76.0591 166.158 76.0591C166.625 76.0591 167.028 76.1324 167.368 76.2791C167.715 76.4258 168.011 76.6291 168.258 76.8891L167.738 77.3791C167.678 77.3058 167.601 77.2324 167.508 77.1591C167.421 77.0791 167.311 77.0091 167.178 76.9491C167.051 76.8824 166.901 76.8291 166.728 76.7891C166.555 76.7491 166.355 76.7291 166.128 76.7291C165.721 76.7291 165.408 76.7991 165.188 76.9391C164.975 77.0791 164.868 77.2824 164.868 77.5491C164.868 77.6824 164.891 77.7958 164.938 77.8891C164.991 77.9758 165.061 78.0458 165.148 78.0991C165.235 78.1524 165.331 78.1958 165.438 78.2291C165.551 78.2558 165.665 78.2791 165.778 78.2991L166.588 78.4191C166.775 78.4458 166.971 78.4824 167.178 78.5291C167.385 78.5758 167.575 78.6524 167.748 78.7591C167.921 78.8591 168.065 78.9958 168.178 79.1691C168.298 79.3424 168.358 79.5691 168.358 79.8491C168.358 80.3624 168.158 80.7591 167.758 81.0391C167.365 81.3191 166.838 81.4591 166.178 81.4591Z" fill="#3AA6E3"/>
<path d="M33.95 95.1791H34.75V96.0191H34.79C35.1233 95.3791 35.6533 95.0591 36.38 95.0591C37.0133 95.0591 37.5067 95.2958 37.86 95.7691C38.22 96.2424 38.4 96.9058 38.4 97.7591C38.4 98.6124 38.22 99.2758 37.86 99.7491C37.5067 100.222 37.0133 100.459 36.38 100.459C35.6533 100.459 35.1233 100.139 34.79 99.4991H34.75V102.339H33.95V95.1791ZM36.07 99.7491C36.5367 99.7491 36.8967 99.6091 37.15 99.3291C37.41 99.0424 37.54 98.6658 37.54 98.1991V97.3191C37.54 96.8524 37.41 96.4791 37.15 96.1991C36.8967 95.9124 36.5367 95.7691 36.07 95.7691C35.89 95.7691 35.72 95.7924 35.56 95.8391C35.4 95.8858 35.26 95.9558 35.14 96.0491C35.02 96.1358 34.9233 96.2458 34.85 96.3791C34.7833 96.5058 34.75 96.6558 34.75 96.8291V98.6891C34.75 98.8624 34.7833 99.0158 34.85 99.1491C34.9233 99.2758 35.02 99.3858 35.14 99.4791C35.26 99.5658 35.4 99.6324 35.56 99.6791C35.72 99.7258 35.89 99.7491 36.07 99.7491ZM42.2861 100.459C41.9128 100.459 41.5761 100.396 41.2761 100.269C40.9828 100.142 40.7294 99.9624 40.5161 99.7291C40.3094 99.4891 40.1494 99.2058 40.0361 98.8791C39.9228 98.5458 39.8661 98.1758 39.8661 97.7691C39.8661 97.3558 39.9228 96.9824 40.0361 96.6491C40.1561 96.3158 40.3194 96.0324 40.5261 95.7991C40.7328 95.5591 40.9794 95.3758 41.2661 95.2491C41.5594 95.1224 41.8828 95.0591 42.2361 95.0591C42.5828 95.0591 42.8961 95.1224 43.1761 95.2491C43.4628 95.3758 43.7061 95.5524 43.9061 95.7791C44.1061 95.9991 44.2594 96.2624 44.3661 96.5691C44.4728 96.8758 44.5261 97.2124 44.5261 97.5791V97.9591H40.7061V98.1991C40.7061 98.4258 40.7428 98.6358 40.8161 98.8291C40.8894 99.0224 40.9928 99.1891 41.1261 99.3291C41.2661 99.4691 41.4328 99.5791 41.6261 99.6591C41.8261 99.7324 42.0461 99.7691 42.2861 99.7691C42.6328 99.7691 42.9328 99.6891 43.1861 99.5291C43.4394 99.3691 43.6328 99.1491 43.7661 98.8691L44.3561 99.2691C44.2028 99.6158 43.9461 99.9024 43.5861 100.129C43.2328 100.349 42.7994 100.459 42.2861 100.459ZM42.2361 95.7191C42.0161 95.7191 41.8128 95.7591 41.6261 95.8391C41.4394 95.9191 41.2761 96.0291 41.1361 96.1691C41.0028 96.3091 40.8961 96.4758 40.8161 96.6691C40.7428 96.8558 40.7061 97.0624 40.7061 97.2891V97.3591H43.6661V97.2491C43.6661 97.0224 43.6294 96.8158 43.5561 96.6291C43.4894 96.4424 43.3928 96.2824 43.2661 96.1491C43.1461 96.0091 42.9961 95.9024 42.8161 95.8291C42.6428 95.7558 42.4494 95.7191 42.2361 95.7191ZM46.1622 99.6591H47.6722V95.8591H46.1622V95.1791H48.4722V96.4791H48.5222C48.6289 96.0724 48.8289 95.7558 49.1222 95.5291C49.4222 95.2958 49.8022 95.1791 50.2622 95.1791H50.9822V95.9791H50.0122C49.5522 95.9791 49.1789 96.1124 48.8922 96.3791C48.6122 96.6458 48.4722 96.9958 48.4722 97.4291V99.6591H50.4722V100.339H46.1622V99.6591ZM52.4183 99.6591H54.1583V95.8591H52.3183V95.1791H54.1583V94.1191C54.1583 93.7724 54.2483 93.4891 54.4283 93.2691C54.6149 93.0491 54.9049 92.9391 55.2983 92.9391H57.0283V93.6191H54.9583V95.1791H57.0283V95.8591H54.9583V99.6591H56.7983V100.339H52.4183V99.6591ZM60.7844 100.459C60.4244 100.459 60.0977 100.396 59.8044 100.269C59.5177 100.142 59.271 99.9624 59.0644 99.7291C58.8644 99.4891 58.711 99.2058 58.6044 98.8791C58.4977 98.5458 58.4444 98.1724 58.4444 97.7591C58.4444 97.3524 58.4977 96.9824 58.6044 96.6491C58.711 96.3158 58.8644 96.0324 59.0644 95.7991C59.271 95.5591 59.5177 95.3758 59.8044 95.2491C60.0977 95.1224 60.4244 95.0591 60.7844 95.0591C61.1444 95.0591 61.4677 95.1224 61.7544 95.2491C62.0477 95.3758 62.2944 95.5591 62.4944 95.7991C62.701 96.0324 62.8577 96.3158 62.9644 96.6491C63.071 96.9824 63.1244 97.3524 63.1244 97.7591C63.1244 98.1724 63.071 98.5458 62.9644 98.8791C62.8577 99.2058 62.701 99.4891 62.4944 99.7291C62.2944 99.9624 62.0477 100.142 61.7544 100.269C61.4677 100.396 61.1444 100.459 60.7844 100.459ZM60.7844 99.7691C61.231 99.7691 61.591 99.6358 61.8644 99.3691C62.1377 99.1024 62.2744 98.6891 62.2744 98.1291V97.3891C62.2744 96.8291 62.1377 96.4158 61.8644 96.1491C61.591 95.8824 61.231 95.7491 60.7844 95.7491C60.3377 95.7491 59.9777 95.8824 59.7044 96.1491C59.431 96.4158 59.2944 96.8291 59.2944 97.3891V98.1291C59.2944 98.6891 59.431 99.1024 59.7044 99.3691C59.9777 99.6358 60.3377 99.7691 60.7844 99.7691ZM64.7505 99.6591H66.2605V95.8591H64.7505V95.1791H67.0605V96.4791H67.1105C67.2171 96.0724 67.4171 95.7558 67.7105 95.5291C68.0105 95.2958 68.3905 95.1791 68.8505 95.1791H69.5705V95.9791H68.6005C68.1405 95.9791 67.7671 96.1124 67.4805 96.3791C67.2005 96.6458 67.0605 96.9958 67.0605 97.4291V99.6591H69.0605V100.339H64.7505V99.6591ZM70.7166 100.339V95.1791H71.4566V95.7791H71.4966C71.5766 95.5791 71.6899 95.4091 71.8366 95.2691C71.9832 95.1291 72.1999 95.0591 72.4866 95.0591C72.7866 95.0591 73.0099 95.1358 73.1566 95.2891C73.3032 95.4358 73.3932 95.6291 73.4266 95.8691H73.4566C73.5499 95.6358 73.6832 95.4424 73.8566 95.2891C74.0299 95.1358 74.2699 95.0591 74.5766 95.0591C74.9966 95.0591 75.2766 95.2058 75.4166 95.4991C75.5632 95.7924 75.6366 96.2124 75.6366 96.7591V100.339H74.8966V96.8891C74.8966 96.4491 74.8499 96.1458 74.7566 95.9791C74.6699 95.8058 74.5066 95.7191 74.2666 95.7191C74.0532 95.7191 73.8799 95.7891 73.7466 95.9291C73.6132 96.0624 73.5466 96.2691 73.5466 96.5491V100.339H72.8066V96.8891C72.8066 96.4491 72.7599 96.1458 72.6666 95.9791C72.5799 95.8058 72.4199 95.7191 72.1866 95.7191C71.9732 95.7191 71.7966 95.7891 71.6566 95.9291C71.5232 96.0624 71.4566 96.2691 71.4566 96.5491V100.339H70.7166ZM81.3227 100.339C81.0093 100.339 80.786 100.259 80.6527 100.099C80.5193 99.9391 80.436 99.7391 80.4027 99.4991H80.3527C80.2393 99.7991 80.056 100.036 79.8027 100.209C79.556 100.376 79.2227 100.459 78.8027 100.459C78.2627 100.459 77.8327 100.319 77.5127 100.039C77.1927 99.7591 77.0327 99.3758 77.0327 98.8891C77.0327 98.4091 77.206 98.0391 77.5527 97.7791C77.906 97.5191 78.4727 97.3891 79.2527 97.3891H80.3527V96.8791C80.3527 96.4991 80.246 96.2158 80.0327 96.0291C79.8193 95.8358 79.516 95.7391 79.1227 95.7391C78.776 95.7391 78.4927 95.8091 78.2727 95.9491C78.0527 96.0824 77.876 96.2658 77.7427 96.4991L77.2027 96.0991C77.2693 95.9658 77.3593 95.8358 77.4727 95.7091C77.586 95.5824 77.726 95.4724 77.8927 95.3791C78.0593 95.2791 78.2493 95.2024 78.4627 95.1491C78.676 95.0891 78.9127 95.0591 79.1727 95.0591C79.7793 95.0591 80.2593 95.2124 80.6127 95.5191C80.9727 95.8258 81.1527 96.2524 81.1527 96.7991V99.6391H81.8727V100.339H81.3227ZM78.9427 99.7891C79.1493 99.7891 79.336 99.7658 79.5027 99.7191C79.676 99.6658 79.826 99.5991 79.9527 99.5191C80.0793 99.4324 80.176 99.3324 80.2427 99.2191C80.316 99.0991 80.3527 98.9724 80.3527 98.8391V97.9891H79.2527C78.7727 97.9891 78.4227 98.0558 78.2027 98.1891C77.9827 98.3224 77.8727 98.5158 77.8727 98.7691V98.9791C77.8727 99.2458 77.966 99.4491 78.1527 99.5891C78.346 99.7224 78.6093 99.7891 78.9427 99.7891ZM83.5487 100.339V95.1791H84.3487V96.0191H84.3887C84.4421 95.8924 84.5087 95.7724 84.5887 95.6591C84.6687 95.5391 84.7654 95.4358 84.8787 95.3491C84.9987 95.2624 85.1387 95.1924 85.2987 95.1391C85.4587 95.0858 85.6454 95.0591 85.8587 95.0591C86.3987 95.0591 86.8321 95.2324 87.1587 95.5791C87.4854 95.9191 87.6487 96.4024 87.6487 97.0291V100.339H86.8487V97.1691C86.8487 96.6958 86.7454 96.3458 86.5387 96.1191C86.3321 95.8858 86.0287 95.7691 85.6287 95.7691C85.4687 95.7691 85.3121 95.7891 85.1587 95.8291C85.0054 95.8691 84.8687 95.9291 84.7487 96.0091C84.6287 96.0891 84.5321 96.1924 84.4587 96.3191C84.3854 96.4458 84.3487 96.5924 84.3487 96.7591V100.339H83.5487ZM91.9448 100.459C91.5715 100.459 91.2382 100.396 90.9448 100.269C90.6582 100.136 90.4148 99.9524 90.2148 99.7191C90.0148 99.4858 89.8615 99.2024 89.7548 98.8691C89.6548 98.5358 89.6048 98.1658 89.6048 97.7591C89.6048 97.3524 89.6582 96.9824 89.7648 96.6491C89.8715 96.3158 90.0248 96.0324 90.2248 95.7991C90.4248 95.5591 90.6682 95.3758 90.9548 95.2491C91.2415 95.1224 91.5682 95.0591 91.9348 95.0591C92.4348 95.0591 92.8415 95.1691 93.1548 95.3891C93.4682 95.6091 93.6982 95.8958 93.8448 96.2491L93.2048 96.5891C93.1115 96.3224 92.9548 96.1158 92.7348 95.9691C92.5215 95.8224 92.2548 95.7491 91.9348 95.7491C91.7015 95.7491 91.4915 95.7891 91.3048 95.8691C91.1248 95.9424 90.9715 96.0491 90.8448 96.1891C90.7182 96.3291 90.6215 96.4958 90.5548 96.6891C90.4948 96.8824 90.4648 97.0924 90.4648 97.3191V98.1991C90.4648 98.4258 90.4948 98.6358 90.5548 98.8291C90.6215 99.0224 90.7182 99.1891 90.8448 99.3291C90.9715 99.4691 91.1282 99.5791 91.3148 99.6591C91.5015 99.7324 91.7148 99.7691 91.9548 99.7691C92.3015 99.7691 92.5882 99.6891 92.8148 99.5291C93.0415 99.3691 93.2215 99.1491 93.3548 98.8691L93.9248 99.2591C93.7715 99.6058 93.5315 99.8924 93.2048 100.119C92.8848 100.346 92.4648 100.459 91.9448 100.459ZM98.0509 100.459C97.6776 100.459 97.3409 100.396 97.0409 100.269C96.7476 100.142 96.4943 99.9624 96.2809 99.7291C96.0743 99.4891 95.9143 99.2058 95.8009 98.8791C95.6876 98.5458 95.6309 98.1758 95.6309 97.7691C95.6309 97.3558 95.6876 96.9824 95.8009 96.6491C95.9209 96.3158 96.0843 96.0324 96.2909 95.7991C96.4976 95.5591 96.7443 95.3758 97.0309 95.2491C97.3243 95.1224 97.6476 95.0591 98.0009 95.0591C98.3476 95.0591 98.6609 95.1224 98.9409 95.2491C99.2276 95.3758 99.4709 95.5524 99.6709 95.7791C99.8709 95.9991 100.024 96.2624 100.131 96.5691C100.238 96.8758 100.291 97.2124 100.291 97.5791V97.9591H96.4709V98.1991C96.4709 98.4258 96.5076 98.6358 96.5809 98.8291C96.6543 99.0224 96.7576 99.1891 96.8909 99.3291C97.0309 99.4691 97.1976 99.5791 97.3909 99.6591C97.5909 99.7324 97.8109 99.7691 98.0509 99.7691C98.3976 99.7691 98.6976 99.6891 98.9509 99.5291C99.2043 99.3691 99.3976 99.1491 99.5309 98.8691L100.121 99.2691C99.9676 99.6158 99.7109 99.9024 99.3509 100.129C98.9976 100.349 98.5643 100.459 98.0509 100.459ZM98.0009 95.7191C97.7809 95.7191 97.5776 95.7591 97.3909 95.8391C97.2043 95.9191 97.0409 96.0291 96.9009 96.1691C96.7676 96.3091 96.6609 96.4758 96.5809 96.6691C96.5076 96.8558 96.4709 97.0624 96.4709 97.2891V97.3591H99.4309V97.2491C99.4309 97.0224 99.3943 96.8158 99.3209 96.6291C99.2543 96.4424 99.1576 96.2824 99.0309 96.1491C98.9109 96.0091 98.7609 95.9024 98.5809 95.8291C98.4076 95.7558 98.2143 95.7191 98.0009 95.7191ZM104.157 100.429C103.884 100.429 103.69 100.372 103.577 100.259C103.47 100.146 103.417 100.002 103.417 99.8291V99.6491C103.417 99.4758 103.47 99.3324 103.577 99.2191C103.69 99.1058 103.884 99.0491 104.157 99.0491C104.43 99.0491 104.62 99.1058 104.727 99.2191C104.84 99.3324 104.897 99.4758 104.897 99.6491V99.8291C104.897 100.002 104.84 100.146 104.727 100.259C104.62 100.372 104.43 100.429 104.157 100.429ZM127.991 97.2291C127.991 96.7424 128.045 96.2758 128.151 95.8291C128.265 95.3758 128.415 94.9558 128.601 94.5691C128.795 94.1824 129.018 93.8358 129.271 93.5291C129.525 93.2158 129.791 92.9524 130.071 92.7391H130.881C130.588 92.9591 130.311 93.2158 130.051 93.5091C129.798 93.7958 129.571 94.1124 129.371 94.4591C129.178 94.7991 129.025 95.1691 128.911 95.5691C128.798 95.9624 128.741 96.3724 128.741 96.7991V97.6591C128.741 98.0858 128.798 98.4991 128.911 98.8991C129.025 99.2924 129.178 99.6624 129.371 100.009C129.571 100.349 129.798 100.662 130.051 100.949C130.311 101.242 130.588 101.499 130.881 101.719H130.071C129.791 101.512 129.525 101.252 129.271 100.939C129.018 100.626 128.795 100.276 128.601 99.8891C128.415 99.5024 128.265 99.0858 128.151 98.6391C128.045 98.1858 127.991 97.7158 127.991 97.2291ZM136.087 97.2291C136.087 97.7158 136.031 98.1858 135.917 98.6391C135.811 99.0858 135.661 99.5024 135.467 99.8891C135.281 100.276 135.061 100.626 134.807 100.939C134.554 101.252 134.287 101.512 134.007 101.719H133.197C133.484 101.499 133.757 101.242 134.017 100.949C134.277 100.662 134.504 100.349 134.697 100.009C134.897 99.6624 135.054 99.2924 135.167 98.8991C135.281 98.4991 135.337 98.0858 135.337 97.6591V96.7991C135.337 96.3724 135.281 95.9624 135.167 95.5691C135.054 95.1691 134.897 94.7991 134.697 94.4591C134.504 94.1124 134.277 93.7958 134.017 93.5091C133.757 93.2158 133.484 92.9591 133.197 92.7391H134.007C134.287 92.9524 134.554 93.2158 134.807 93.5291C135.061 93.8358 135.281 94.1824 135.467 94.5691C135.661 94.9558 135.811 95.3758 135.917 95.8291C136.031 96.2758 136.087 96.7424 136.087 97.2291ZM140.904 98.9791H142.194L141.044 101.749H140.374L140.904 98.9791ZM141.334 96.4691C141.06 96.4691 140.867 96.4124 140.754 96.2991C140.647 96.1858 140.594 96.0424 140.594 95.8691V95.6891C140.594 95.5158 140.647 95.3724 140.754 95.2591C140.867 95.1458 141.06 95.0891 141.334 95.0891C141.607 95.0891 141.797 95.1458 141.904 95.2591C142.017 95.3724 142.074 95.5158 142.074 95.6891V95.8691C142.074 96.0424 142.017 96.1858 141.904 96.2991C141.797 96.4124 141.607 96.4691 141.334 96.4691Z" fill="#CDCDCD"/>
<path d="M108.333 100.339V95.1791H109.133V96.0191H109.173C109.226 95.8924 109.293 95.7724 109.373 95.6591C109.453 95.5391 109.55 95.4358 109.663 95.3491C109.783 95.2624 109.923 95.1924 110.083 95.1391C110.243 95.0858 110.43 95.0591 110.643 95.0591C111.183 95.0591 111.616 95.2324 111.943 95.5791C112.27 95.9191 112.433 96.4024 112.433 97.0291V100.339H111.633V97.1691C111.633 96.6958 111.53 96.3458 111.323 96.1191C111.116 95.8858 110.813 95.7691 110.413 95.7691C110.253 95.7691 110.096 95.7891 109.943 95.8291C109.79 95.8691 109.653 95.9291 109.533 96.0091C109.413 96.0891 109.316 96.1924 109.243 96.3191C109.17 96.4458 109.133 96.5924 109.133 96.7591V100.339H108.333ZM116.549 100.459C116.189 100.459 115.863 100.396 115.569 100.269C115.283 100.142 115.036 99.9624 114.829 99.7291C114.629 99.4891 114.476 99.2058 114.369 98.8791C114.263 98.5458 114.209 98.1724 114.209 97.7591C114.209 97.3524 114.263 96.9824 114.369 96.6491C114.476 96.3158 114.629 96.0324 114.829 95.7991C115.036 95.5591 115.283 95.3758 115.569 95.2491C115.863 95.1224 116.189 95.0591 116.549 95.0591C116.909 95.0591 117.233 95.1224 117.519 95.2491C117.813 95.3758 118.059 95.5591 118.259 95.7991C118.466 96.0324 118.623 96.3158 118.729 96.6491C118.836 96.9824 118.889 97.3524 118.889 97.7591C118.889 98.1724 118.836 98.5458 118.729 98.8791C118.623 99.2058 118.466 99.4891 118.259 99.7291C118.059 99.9624 117.813 100.142 117.519 100.269C117.233 100.396 116.909 100.459 116.549 100.459ZM116.549 99.7691C116.996 99.7691 117.356 99.6358 117.629 99.3691C117.903 99.1024 118.039 98.6891 118.039 98.1291V97.3891C118.039 96.8291 117.903 96.4158 117.629 96.1491C117.356 95.8824 116.996 95.7491 116.549 95.7491C116.103 95.7491 115.743 95.8824 115.469 96.1491C115.196 96.4158 115.059 96.8291 115.059 97.3891V98.1291C115.059 98.6891 115.196 99.1024 115.469 99.3691C115.743 99.6358 116.103 99.7691 116.549 99.7691ZM120.045 95.1791H120.755L121.345 99.6391H121.435L122.315 95.1791H123.195L124.075 99.6391H124.165L124.755 95.1791H125.445L124.655 100.339H123.615L122.795 96.0191H122.715L121.875 100.339H120.835L120.045 95.1791Z" fill="#3AA6E3"/>
<path d="M33.9 139.38L37.38 130.4H38.1L34.62 139.38H33.9ZM40.0961 139.38L43.5761 130.4H44.2961L40.8161 139.38H40.0961ZM54.5883 138.09C54.3149 138.09 54.1216 138.033 54.0083 137.92C53.9016 137.807 53.8483 137.663 53.8483 137.49V137.31C53.8483 137.137 53.9016 136.993 54.0083 136.88C54.1216 136.767 54.3149 136.71 54.5883 136.71C54.8616 136.71 55.0516 136.767 55.1583 136.88C55.2716 136.993 55.3283 137.137 55.3283 137.31V137.49C55.3283 137.663 55.2716 137.807 55.1583 137.92C55.0516 138.033 54.8616 138.09 54.5883 138.09ZM60.7844 138.09C60.511 138.09 60.3177 138.033 60.2044 137.92C60.0977 137.807 60.0444 137.663 60.0444 137.49V137.31C60.0444 137.137 60.0977 136.993 60.2044 136.88C60.3177 136.767 60.511 136.71 60.7844 136.71C61.0577 136.71 61.2477 136.767 61.3544 136.88C61.4677 136.993 61.5244 137.137 61.5244 137.31V137.49C61.5244 137.663 61.4677 137.807 61.3544 137.92C61.2477 138.033 61.0577 138.09 60.7844 138.09Z" fill="#CDCDCD"/>
<path d="M33.98 119V113.84H34.78V114.68H34.82C34.8733 114.553 34.94 114.433 35.02 114.32C35.1 114.2 35.1967 114.097 35.31 114.01C35.43 113.923 35.57 113.853 35.73 113.8C35.89 113.747 36.0767 113.72 36.29 113.72C36.83 113.72 37.2633 113.893 37.59 114.24C37.9167 114.58 38.08 115.063 38.08 115.69V119H37.28V115.83C37.28 115.357 37.1767 115.007 36.97 114.78C36.7633 114.547 36.46 114.43 36.06 114.43C35.9 114.43 35.7433 114.45 35.59 114.49C35.4367 114.53 35.3 114.59 35.18 114.67C35.06 114.75 34.9633 114.853 34.89 114.98C34.8167 115.107 34.78 115.253 34.78 115.42V119H33.98ZM42.2861 119.12C41.9128 119.12 41.5761 119.057 41.2761 118.93C40.9828 118.803 40.7294 118.623 40.5161 118.39C40.3094 118.15 40.1494 117.867 40.0361 117.54C39.9228 117.207 39.8661 116.837 39.8661 116.43C39.8661 116.017 39.9228 115.643 40.0361 115.31C40.1561 114.977 40.3194 114.693 40.5261 114.46C40.7328 114.22 40.9794 114.037 41.2661 113.91C41.5594 113.783 41.8828 113.72 42.2361 113.72C42.5828 113.72 42.8961 113.783 43.1761 113.91C43.4628 114.037 43.7061 114.213 43.9061 114.44C44.1061 114.66 44.2594 114.923 44.3661 115.23C44.4728 115.537 44.5261 115.873 44.5261 116.24V116.62H40.7061V116.86C40.7061 117.087 40.7428 117.297 40.8161 117.49C40.8894 117.683 40.9928 117.85 41.1261 117.99C41.2661 118.13 41.4328 118.24 41.6261 118.32C41.8261 118.393 42.0461 118.43 42.2861 118.43C42.6328 118.43 42.9328 118.35 43.1861 118.19C43.4394 118.03 43.6328 117.81 43.7661 117.53L44.3561 117.93C44.2028 118.277 43.9461 118.563 43.5861 118.79C43.2328 119.01 42.7994 119.12 42.2861 119.12ZM42.2361 114.38C42.0161 114.38 41.8128 114.42 41.6261 114.5C41.4394 114.58 41.2761 114.69 41.1361 114.83C41.0028 114.97 40.8961 115.137 40.8161 115.33C40.7428 115.517 40.7061 115.723 40.7061 115.95V116.02H43.6661V115.91C43.6661 115.683 43.6294 115.477 43.5561 115.29C43.4894 115.103 43.3928 114.943 43.2661 114.81C43.1461 114.67 42.9961 114.563 42.8161 114.49C42.6428 114.417 42.4494 114.38 42.2361 114.38ZM45.6922 113.84H46.4022L46.9922 118.3H47.0822L47.9622 113.84H48.8422L49.7222 118.3H49.8122L50.4022 113.84H51.0922L50.3022 119H49.2622L48.4422 114.68H48.3622L47.5222 119H46.4822L45.6922 113.84Z" fill="#E3116C"/>
<path d="M84.6187 115.89C84.6187 115.403 84.6721 114.937 84.7787 114.49C84.8921 114.037 85.0421 113.617 85.2287 113.23C85.4221 112.843 85.6454 112.497 85.8987 112.19C86.1521 111.877 86.4187 111.613 86.6987 111.4H87.5087C87.2154 111.62 86.9387 111.877 86.6787 112.17C86.4254 112.457 86.1987 112.773 85.9987 113.12C85.8054 113.46 85.6521 113.83 85.5387 114.23C85.4254 114.623 85.3687 115.033 85.3687 115.46V116.32C85.3687 116.747 85.4254 117.16 85.5387 117.56C85.6521 117.953 85.8054 118.323 85.9987 118.67C86.1987 119.01 86.4254 119.323 86.6787 119.61C86.9387 119.903 87.2154 120.16 87.5087 120.38H86.6987C86.4187 120.173 86.1521 119.913 85.8987 119.6C85.6454 119.287 85.4221 118.937 85.2287 118.55C85.0421 118.163 84.8921 117.747 84.7787 117.3C84.6721 116.847 84.6187 116.377 84.6187 115.89ZM92.7148 115.89C92.7148 116.377 92.6582 116.847 92.5448 117.3C92.4382 117.747 92.2882 118.163 92.0948 118.55C91.9082 118.937 91.6882 119.287 91.4348 119.6C91.1815 119.913 90.9148 120.173 90.6348 120.38H89.8248C90.1115 120.16 90.3848 119.903 90.6448 119.61C90.9048 119.323 91.1315 119.01 91.3248 118.67C91.5248 118.323 91.6815 117.953 91.7948 117.56C91.9082 117.16 91.9648 116.747 91.9648 116.32V115.46C91.9648 115.033 91.9082 114.623 91.7948 114.23C91.6815 113.83 91.5248 113.46 91.3248 113.12C91.1315 112.773 90.9048 112.457 90.6448 112.17C90.3848 111.877 90.1115 111.62 89.8248 111.4H90.6348C90.9148 111.613 91.1815 111.877 91.4348 112.19C91.6882 112.497 91.9082 112.843 92.0948 113.23C92.2882 113.617 92.4382 114.037 92.5448 114.49C92.6582 114.937 92.7148 115.403 92.7148 115.89ZM97.5309 117.64H98.8209L97.6709 120.41H97.0009L97.5309 117.64ZM97.9609 115.13C97.6876 115.13 97.4943 115.073 97.3809 114.96C97.2743 114.847 97.2209 114.703 97.2209 114.53V114.35C97.2209 114.177 97.2743 114.033 97.3809 113.92C97.4943 113.807 97.6876 113.75 97.9609 113.75C98.2343 113.75 98.4243 113.807 98.5309 113.92C98.6443 114.033 98.7009 114.177 98.7009 114.35V114.53C98.7009 114.703 98.6443 114.847 98.5309 114.96C98.4243 115.073 98.2343 115.13 97.9609 115.13Z" fill="#CDCDCD"/>
<path d="M58.7344 112.02H60.6844C61.5377 112.02 62.1744 112.313 62.5944 112.9C63.0144 113.487 63.2244 114.357 63.2244 115.51C63.2244 116.663 63.0144 117.533 62.5944 118.12C62.1744 118.707 61.5377 119 60.6844 119H58.7344V112.02ZM60.6444 118.27C61.2044 118.27 61.6244 118.077 61.9044 117.69C62.191 117.303 62.3344 116.757 62.3344 116.05V114.97C62.3344 114.263 62.191 113.717 61.9044 113.33C61.6244 112.943 61.2044 112.75 60.6444 112.75H59.5744V118.27H60.6444ZM68.9305 119C68.6171 119 68.3938 118.92 68.2605 118.76C68.1271 118.6 68.0438 118.4 68.0105 118.16H67.9605C67.8471 118.46 67.6638 118.697 67.4105 118.87C67.1638 119.037 66.8305 119.12 66.4105 119.12C65.8705 119.12 65.4405 118.98 65.1205 118.7C64.8005 118.42 64.6405 118.037 64.6405 117.55C64.6405 117.07 64.8138 116.7 65.1605 116.44C65.5138 116.18 66.0805 116.05 66.8605 116.05H67.9605V115.54C67.9605 115.16 67.8538 114.877 67.6405 114.69C67.4271 114.497 67.1238 114.4 66.7305 114.4C66.3838 114.4 66.1005 114.47 65.8805 114.61C65.6605 114.743 65.4838 114.927 65.3505 115.16L64.8105 114.76C64.8771 114.627 64.9671 114.497 65.0805 114.37C65.1938 114.243 65.3338 114.133 65.5005 114.04C65.6671 113.94 65.8571 113.863 66.0705 113.81C66.2838 113.75 66.5205 113.72 66.7805 113.72C67.3871 113.72 67.8671 113.873 68.2205 114.18C68.5805 114.487 68.7605 114.913 68.7605 115.46V118.3H69.4805V119H68.9305ZM66.5505 118.45C66.7571 118.45 66.9438 118.427 67.1105 118.38C67.2838 118.327 67.4338 118.26 67.5605 118.18C67.6871 118.093 67.7838 117.993 67.8505 117.88C67.9238 117.76 67.9605 117.633 67.9605 117.5V116.65H66.8605C66.3805 116.65 66.0305 116.717 65.8105 116.85C65.5905 116.983 65.4805 117.177 65.4805 117.43V117.64C65.4805 117.907 65.5738 118.11 65.7605 118.25C65.9538 118.383 66.2171 118.45 66.5505 118.45ZM73.4266 119C73.0332 119 72.7432 118.89 72.5566 118.67C72.3766 118.45 72.2866 118.167 72.2866 117.82V114.52H70.5666V113.84H71.8466C72.0199 113.84 72.1399 113.807 72.2066 113.74C72.2799 113.667 72.3166 113.543 72.3166 113.37V112.02H73.0866V113.84H75.4366V114.52H73.0866V118.32H75.4366V119H73.4266ZM79.4627 119.12C79.0893 119.12 78.7527 119.057 78.4527 118.93C78.1593 118.803 77.906 118.623 77.6927 118.39C77.486 118.15 77.326 117.867 77.2127 117.54C77.0993 117.207 77.0427 116.837 77.0427 116.43C77.0427 116.017 77.0993 115.643 77.2127 115.31C77.3327 114.977 77.496 114.693 77.7027 114.46C77.9093 114.22 78.156 114.037 78.4427 113.91C78.736 113.783 79.0593 113.72 79.4127 113.72C79.7593 113.72 80.0727 113.783 80.3527 113.91C80.6393 114.037 80.8827 114.213 81.0827 114.44C81.2827 114.66 81.436 114.923 81.5427 115.23C81.6493 115.537 81.7027 115.873 81.7027 116.24V116.62H77.8827V116.86C77.8827 117.087 77.9193 117.297 77.9927 117.49C78.066 117.683 78.1693 117.85 78.3027 117.99C78.4427 118.13 78.6093 118.24 78.8027 118.32C79.0027 118.393 79.2227 118.43 79.4627 118.43C79.8093 118.43 80.1093 118.35 80.3627 118.19C80.616 118.03 80.8093 117.81 80.9427 117.53L81.5327 117.93C81.3793 118.277 81.1227 118.563 80.7627 118.79C80.4093 119.01 79.976 119.12 79.4627 119.12ZM79.4127 114.38C79.1927 114.38 78.9893 114.42 78.8027 114.5C78.616 114.58 78.4527 114.69 78.3127 114.83C78.1793 114.97 78.0727 115.137 77.9927 115.33C77.9193 115.517 77.8827 115.723 77.8827 115.95V116.02H80.8427V115.91C80.8427 115.683 80.806 115.477 80.7327 115.29C80.666 115.103 80.5693 114.943 80.4427 114.81C80.3227 114.67 80.1727 114.563 79.9927 114.49C79.8193 114.417 79.626 114.38 79.4127 114.38Z" fill="#3AA6E3"/>
<path fill-rule="evenodd" clip-rule="evenodd" d="M57 27.3391C60.3137 27.3391 63 24.6528 63 21.3391C63 18.0254 60.3137 15.3391 57 15.3391C53.6863 15.3391 51 18.0254 51 21.3391C51 24.6528 53.6863 27.3391 57 27.3391Z" fill="#38C149"/>
<path d="M62.75 21.3391C62.75 24.5147 60.1756 27.0891 57 27.0891C53.8244 27.0891 51.25 24.5147 51.25 21.3391C51.25 18.1635 53.8244 15.5891 57 15.5891C60.1756 15.5891 62.75 18.1635 62.75 21.3391Z" stroke="black" stroke-opacity="0.12" stroke-width="0.5"/>
<path fill-rule="evenodd" clip-rule="evenodd" d="M37 27.3391C40.3137 27.3391 43 24.6528 43 21.3391C43 18.0254 40.3137 15.3391 37 15.3391C33.6863 15.3391 31 18.0254 31 21.3391C31 24.6528 33.6863 27.3391 37 27.3391Z" fill="#FFBB2E"/>
<path d="M42.75 21.3391C42.75 24.5147 40.1756 27.0891 37 27.0891C33.8244 27.0891 31.25 24.5147 31.25 21.3391C31.25 18.1635 33.8244 15.5891 37 15.5891C40.1756 15.5891 42.75 18.1635 42.75 21.3391Z" stroke="black" stroke-opacity="0.12" stroke-width="0.5"/>
<path fill-rule="evenodd" clip-rule="evenodd" d="M17 27.3391C20.3137 27.3391 23 24.6528 23 21.3391C23 18.0254 20.3137 15.3391 17 15.3391C13.6863 15.3391 11 18.0254 11 21.3391C11 24.6528 13.6863 27.3391 17 27.3391Z" fill="#FF5E57"/>
<path d="M22.75 21.3391C22.75 24.5147 20.1756 27.0891 17 27.0891C13.8244 27.0891 11.25 24.5147 11.25 21.3391C11.25 18.1635 13.8244 15.5891 17 15.5891C20.1756 15.5891 22.75 18.1635 22.75 21.3391Z" stroke="black" stroke-opacity="0.12" stroke-width="0.5"/>
<line y1="41.8391" x2="569" y2="41.8391" stroke="#242424"/>
<path d="M78 5.83911H159C160.933 5.83911 162.5 7.40611 162.5 9.33911V41.8391H74.5V9.33911C74.5 7.40611 76.067 5.83911 78 5.83911Z" fill="black" stroke="#242424" stroke-linecap="round"/>
<rect x="75" y="41.3391" width="87" height="1" fill="black"/>
<path d="M92.1702 24.5891C92.1702 24.0224 92.2836 23.5291 92.5102 23.1091C92.7369 22.6824 93.0502 22.3524 93.4502 22.1191C93.8569 21.8858 94.3202 21.7691 94.8402 21.7691C95.5136 21.7691 96.0669 21.9324 96.5002 22.2591C96.9402 22.5858 97.2302 23.0391 97.3702 23.6191H96.3902C96.2969 23.2858 96.1136 23.0224 95.8402 22.8291C95.5736 22.6358 95.2402 22.5391 94.8402 22.5391C94.3202 22.5391 93.9002 22.7191 93.5802 23.0791C93.2602 23.4324 93.1002 23.9358 93.1002 24.5891C93.1002 25.2491 93.2602 25.7591 93.5802 26.1191C93.9002 26.4791 94.3202 26.6591 94.8402 26.6591C95.2402 26.6591 95.5736 26.5658 95.8402 26.3791C96.1069 26.1924 96.2902 25.9258 96.3902 25.5791H97.3702C97.2236 26.1391 96.9302 26.5891 96.4902 26.9291C96.0502 27.2624 95.5002 27.4291 94.8402 27.4291C94.3202 27.4291 93.8569 27.3124 93.4502 27.0791C93.0502 26.8458 92.7369 26.5158 92.5102 26.0891C92.2836 25.6624 92.1702 25.1624 92.1702 24.5891ZM101.174 27.4291C100.661 27.4291 100.194 27.3124 99.7745 27.0791C99.3611 26.8458 99.0345 26.5158 98.7945 26.0891C98.5611 25.6558 98.4445 25.1558 98.4445 24.5891C98.4445 24.0291 98.5645 23.5358 98.8045 23.1091C99.0511 22.6758 99.3845 22.3458 99.8045 22.1191C100.224 21.8858 100.694 21.7691 101.214 21.7691C101.734 21.7691 102.204 21.8858 102.624 22.1191C103.044 22.3458 103.374 22.6724 103.614 23.0991C103.861 23.5258 103.984 24.0224 103.984 24.5891C103.984 25.1558 103.858 25.6558 103.604 26.0891C103.358 26.5158 103.021 26.8458 102.594 27.0791C102.168 27.3124 101.694 27.4291 101.174 27.4291ZM101.174 26.6291C101.501 26.6291 101.808 26.5524 102.094 26.3991C102.381 26.2458 102.611 26.0158 102.784 25.7091C102.964 25.4024 103.054 25.0291 103.054 24.5891C103.054 24.1491 102.968 23.7758 102.794 23.4691C102.621 23.1624 102.394 22.9358 102.114 22.7891C101.834 22.6358 101.531 22.5591 101.204 22.5591C100.871 22.5591 100.564 22.6358 100.284 22.7891C100.011 22.9358 99.7911 23.1624 99.6245 23.4691C99.4578 23.7758 99.3745 24.1491 99.3745 24.5891C99.3745 25.0358 99.4545 25.4124 99.6145 25.7191C99.7811 26.0258 100.001 26.2558 100.274 26.4091C100.548 26.5558 100.848 26.6291 101.174 26.6291ZM108.051 21.7591C108.718 21.7591 109.258 21.9624 109.671 22.3691C110.084 22.7691 110.291 23.3491 110.291 24.1091V27.3391H109.391V24.2391C109.391 23.6924 109.254 23.2758 108.981 22.9891C108.708 22.6958 108.334 22.5491 107.861 22.5491C107.381 22.5491 106.998 22.6991 106.711 22.9991C106.431 23.2991 106.291 23.7358 106.291 24.3091V27.3391H105.381V21.8591H106.291V22.6391C106.471 22.3591 106.714 22.1424 107.021 21.9891C107.334 21.8358 107.678 21.7591 108.051 21.7591ZM113.087 22.6091V25.8391C113.087 26.1058 113.144 26.2958 113.257 26.4091C113.371 26.5158 113.567 26.5691 113.847 26.5691H114.517V27.3391H113.697C113.191 27.3391 112.811 27.2224 112.557 26.9891C112.304 26.7558 112.177 26.3724 112.177 25.8391V22.6091H111.467V21.8591H112.177V20.4791H113.087V21.8591H114.517V22.6091H113.087ZM116.73 22.7491C116.89 22.4358 117.117 22.1924 117.41 22.0191C117.71 21.8458 118.073 21.7591 118.5 21.7591V22.6991H118.26C117.24 22.6991 116.73 23.2524 116.73 24.3591V27.3391H115.82V21.8591H116.73V22.7491ZM119.41 24.5791C119.41 24.0191 119.524 23.5291 119.75 23.1091C119.977 22.6824 120.287 22.3524 120.68 22.1191C121.08 21.8858 121.524 21.7691 122.01 21.7691C122.49 21.7691 122.907 21.8724 123.26 22.0791C123.614 22.2858 123.877 22.5458 124.05 22.8591V21.8591H124.97V27.3391H124.05V26.3191C123.87 26.6391 123.6 26.9058 123.24 27.1191C122.887 27.3258 122.474 27.4291 122 27.4291C121.514 27.4291 121.074 27.3091 120.68 27.0691C120.287 26.8291 119.977 26.4924 119.75 26.0591C119.524 25.6258 119.41 25.1324 119.41 24.5791ZM124.05 24.5891C124.05 24.1758 123.967 23.8158 123.8 23.5091C123.634 23.2024 123.407 22.9691 123.12 22.8091C122.84 22.6424 122.53 22.5591 122.19 22.5591C121.85 22.5591 121.54 22.6391 121.26 22.7991C120.98 22.9591 120.757 23.1924 120.59 23.4991C120.424 23.8058 120.34 24.1658 120.34 24.5791C120.34 24.9991 120.424 25.3658 120.59 25.6791C120.757 25.9858 120.98 26.2224 121.26 26.3891C121.54 26.5491 121.85 26.6291 122.19 26.6291C122.53 26.6291 122.84 26.5491 123.12 26.3891C123.407 26.2224 123.634 25.9858 123.8 25.6791C123.967 25.3658 124.05 25.0024 124.05 24.5891ZM126.368 24.5891C126.368 24.0224 126.482 23.5291 126.708 23.1091C126.935 22.6824 127.248 22.3524 127.648 22.1191C128.055 21.8858 128.518 21.7691 129.038 21.7691C129.712 21.7691 130.265 21.9324 130.698 22.2591C131.138 22.5858 131.428 23.0391 131.568 23.6191H130.588C130.495 23.2858 130.312 23.0224 130.038 22.8291C129.772 22.6358 129.438 22.5391 129.038 22.5391C128.518 22.5391 128.098 22.7191 127.778 23.0791C127.458 23.4324 127.298 23.9358 127.298 24.5891C127.298 25.2491 127.458 25.7591 127.778 26.1191C128.098 26.4791 128.518 26.6591 129.038 26.6591C129.438 26.6591 129.772 26.5658 130.038 26.3791C130.305 26.1924 130.488 25.9258 130.588 25.5791H131.568C131.422 26.1391 131.128 26.5891 130.688 26.9291C130.248 27.2624 129.698 27.4291 129.038 27.4291C128.518 27.4291 128.055 27.3124 127.648 27.0791C127.248 26.8458 126.935 26.5158 126.708 26.0891C126.482 25.6624 126.368 25.1624 126.368 24.5891ZM134.093 22.6091V25.8391C134.093 26.1058 134.149 26.2958 134.263 26.4091C134.376 26.5158 134.573 26.5691 134.853 26.5691H135.523V27.3391H134.703C134.196 27.3391 133.816 27.2224 133.563 26.9891C133.309 26.7558 133.183 26.3724 133.183 25.8391V22.6091H132.473V21.8591H133.183V20.4791H134.093V21.8591H135.523V22.6091H134.093ZM137.115 27.3991C136.942 27.3991 136.795 27.3391 136.675 27.2191C136.555 27.0991 136.495 26.9524 136.495 26.7791C136.495 26.6058 136.555 26.4591 136.675 26.3391C136.795 26.2191 136.942 26.1591 137.115 26.1591C137.282 26.1591 137.422 26.2191 137.535 26.3391C137.655 26.4591 137.715 26.6058 137.715 26.7791C137.715 26.9524 137.655 27.0991 137.535 27.2191C137.422 27.3391 137.282 27.3991 137.115 27.3991ZM139.615 20.9691C139.441 20.9691 139.295 20.9091 139.175 20.7891C139.061 20.6691 139.005 20.5224 139.005 20.3491C139.005 20.1758 139.061 20.0291 139.175 19.9091C139.295 19.7891 139.441 19.7291 139.615 19.7291C139.788 19.7291 139.931 19.7891 140.045 19.9091C140.165 20.0291 140.225 20.1758 140.225 20.3491C140.225 20.5224 140.165 20.6691 140.045 20.7891C139.931 20.9091 139.788 20.9691 139.615 20.9691ZM140.065 28.5291C140.065 29.0158 139.941 29.3724 139.695 29.5991C139.448 29.8258 139.088 29.9391 138.615 29.9391H138.085V29.1691H138.465C138.718 29.1691 138.895 29.1191 138.995 29.0191C139.101 28.9191 139.155 28.7491 139.155 28.5091V21.8591H140.065V28.5291ZM143.745 27.4291C143.325 27.4291 142.948 27.3591 142.615 27.2191C142.282 27.0724 142.018 26.8724 141.825 26.6191C141.632 26.3591 141.525 26.0624 141.505 25.7291H142.445C142.472 26.0024 142.598 26.2258 142.825 26.3991C143.058 26.5724 143.362 26.6591 143.735 26.6591C144.082 26.6591 144.355 26.5824 144.555 26.4291C144.755 26.2758 144.855 26.0824 144.855 25.8491C144.855 25.6091 144.748 25.4324 144.535 25.3191C144.322 25.1991 143.992 25.0824 143.545 24.9691C143.138 24.8624 142.805 24.7558 142.545 24.6491C142.292 24.5358 142.072 24.3724 141.885 24.1591C141.705 23.9391 141.615 23.6524 141.615 23.2991C141.615 23.0191 141.698 22.7624 141.865 22.5291C142.032 22.2958 142.268 22.1124 142.575 21.9791C142.882 21.8391 143.232 21.7691 143.625 21.7691C144.232 21.7691 144.722 21.9224 145.095 22.2291C145.468 22.5358 145.668 22.9558 145.695 23.4891H144.785C144.765 23.2024 144.648 22.9724 144.435 22.7991C144.228 22.6258 143.948 22.5391 143.595 22.5391C143.268 22.5391 143.008 22.6091 142.815 22.7491C142.622 22.8891 142.525 23.0724 142.525 23.2991C142.525 23.4791 142.582 23.6291 142.695 23.7491C142.815 23.8624 142.962 23.9558 143.135 24.0291C143.315 24.0958 143.562 24.1724 143.875 24.2591C144.268 24.3658 144.588 24.4724 144.835 24.5791C145.082 24.6791 145.292 24.8324 145.465 25.0391C145.645 25.2458 145.738 25.5158 145.745 25.8491C145.745 26.1491 145.662 26.4191 145.495 26.6591C145.328 26.8991 145.092 27.0891 144.785 27.2291C144.485 27.3624 144.138 27.4291 143.745 27.4291Z" fill="#CDCDCD"/>
<path d="M0 42.3391H24V367.339H6C2.68629 367.339 0 364.653 0 361.339V42.3391Z" fill="#1B1A1A"/>
<path d="M9.85195 62.3391V61.6091H11.852V55.9791H11.782L10.022 57.6191L9.53195 57.0891L11.382 55.3591H12.692V61.6091H14.532V62.3391H9.85195Z" fill="#CDCDCD"/>
<path d="M14.372 81.3391H9.71195V80.4791L12.042 78.3791C12.382 78.0724 12.662 77.7591 12.882 77.4391C13.102 77.1124 13.212 76.7691 13.212 76.4091V76.2891C13.212 75.8691 13.102 75.5458 12.882 75.3191C12.662 75.0858 12.3353 74.9691 11.902 74.9691C11.4753 74.9691 11.1453 75.0791 10.912 75.2991C10.6853 75.5124 10.5153 75.7991 10.402 76.1591L9.65195 75.8791C9.71862 75.6724 9.80862 75.4724 9.92195 75.2791C10.042 75.0791 10.192 74.9024 10.372 74.7491C10.552 74.5958 10.7686 74.4724 11.022 74.3791C11.282 74.2858 11.582 74.2391 11.922 74.2391C12.2686 74.2391 12.5753 74.2891 12.842 74.3891C13.1153 74.4891 13.342 74.6291 13.522 74.8091C13.7086 74.9891 13.8486 75.2024 13.942 75.4491C14.042 75.6958 14.092 75.9658 14.092 76.2591C14.092 76.5258 14.052 76.7758 13.972 77.0091C13.8986 77.2424 13.792 77.4658 13.652 77.6791C13.5186 77.8924 13.3553 78.1024 13.162 78.3091C12.9753 78.5091 12.7653 78.7091 12.532 78.9091L10.582 80.6091H14.372V81.3391Z" fill="#CDCDCD"/>
<path d="M11.702 96.3191C12.1886 96.3191 12.552 96.2124 12.792 95.9991C13.0386 95.7791 13.162 95.4991 13.162 95.1591V95.0891C13.162 94.7158 13.042 94.4358 12.802 94.2491C12.5686 94.0624 12.262 93.9691 11.882 93.9691C11.5086 93.9691 11.2053 94.0524 10.972 94.2191C10.7453 94.3791 10.5586 94.5924 10.412 94.8591L9.78195 94.3791C9.86862 94.2391 9.97529 94.1024 10.102 93.9691C10.2286 93.8291 10.3753 93.7058 10.542 93.5991C10.7153 93.4924 10.912 93.4058 11.132 93.3391C11.3586 93.2724 11.6153 93.2391 11.902 93.2391C12.202 93.2391 12.482 93.2791 12.742 93.3591C13.002 93.4324 13.2286 93.5458 13.422 93.6991C13.6153 93.8458 13.7653 94.0291 13.872 94.2491C13.9853 94.4691 14.042 94.7191 14.042 94.9991C14.042 95.2258 14.0053 95.4291 13.932 95.6091C13.8653 95.7891 13.7686 95.9458 13.642 96.0791C13.522 96.2124 13.3786 96.3258 13.212 96.4191C13.0453 96.5124 12.8686 96.5824 12.682 96.6291V96.6691C12.8753 96.7091 13.062 96.7758 13.242 96.8691C13.422 96.9558 13.582 97.0724 13.722 97.2191C13.862 97.3591 13.972 97.5324 14.052 97.7391C14.1386 97.9391 14.182 98.1691 14.182 98.4291C14.182 98.7291 14.122 99.0058 14.002 99.2591C13.8886 99.5058 13.7253 99.7191 13.512 99.8991C13.3053 100.072 13.052 100.209 12.752 100.309C12.4586 100.409 12.132 100.459 11.772 100.459C11.4653 100.459 11.192 100.426 10.952 100.359C10.7186 100.292 10.5086 100.202 10.322 100.089C10.142 99.9758 9.98195 99.8491 9.84195 99.7091C9.70862 99.5691 9.58862 99.4224 9.48195 99.2691L10.112 98.7891C10.2053 98.9291 10.302 99.0558 10.402 99.1691C10.502 99.2824 10.6153 99.3824 10.742 99.4691C10.8753 99.5491 11.0253 99.6124 11.192 99.6591C11.3586 99.7058 11.552 99.7291 11.772 99.7291C12.2653 99.7291 12.642 99.6158 12.902 99.3891C13.1686 99.1624 13.302 98.8391 13.302 98.4191V98.3391C13.302 97.9258 13.172 97.6058 12.912 97.3791C12.6586 97.1524 12.2753 97.0391 11.762 97.0391H10.932V96.3191H11.702Z" fill="#CDCDCD"/>
<path d="M12.782 119.339V117.969H9.34195V117.229L12.362 112.359H13.582V117.279H14.622V117.969H13.582V119.339H12.782ZM10.092 117.279H12.782V113.009H12.742L10.092 117.279Z" fill="#CDCDCD"/>
<path d="M14.012 132.089H10.892L10.692 134.759H10.762C10.9353 134.526 11.1286 134.342 11.342 134.209C11.5553 134.069 11.8486 133.999 12.222 133.999C12.5286 133.999 12.8086 134.049 13.062 134.149C13.322 134.242 13.5453 134.382 13.732 134.569C13.9186 134.756 14.0653 134.982 14.172 135.249C14.2786 135.509 14.332 135.809 14.332 136.149C14.332 136.489 14.2786 136.802 14.172 137.089C14.0653 137.369 13.9086 137.612 13.702 137.819C13.4953 138.019 13.2453 138.176 12.952 138.289C12.6586 138.402 12.3253 138.459 11.952 138.459C11.6586 138.459 11.3953 138.426 11.162 138.359C10.9353 138.292 10.732 138.202 10.552 138.089C10.3786 137.976 10.2253 137.849 10.092 137.709C9.95862 137.569 9.83862 137.422 9.73195 137.269L10.362 136.789C10.4553 136.929 10.5486 137.056 10.642 137.169C10.742 137.282 10.8553 137.382 10.982 137.469C11.1086 137.549 11.252 137.612 11.412 137.659C11.572 137.706 11.7586 137.729 11.972 137.729C12.452 137.729 12.8186 137.599 13.072 137.339C13.332 137.079 13.462 136.719 13.462 136.259V136.179C13.462 135.719 13.332 135.359 13.072 135.099C12.812 134.839 12.4386 134.709 11.952 134.709C11.6186 134.709 11.3586 134.766 11.172 134.879C10.992 134.992 10.8253 135.132 10.672 135.299L9.96195 135.199L10.212 131.359H14.012V132.089Z" fill="#CDCDCD"/>
<path d="M12.012 157.459C11.6453 157.459 11.3153 157.399 11.022 157.279C10.7286 157.152 10.4786 156.976 10.272 156.749C10.072 156.516 9.91529 156.232 9.80195 155.899C9.69529 155.566 9.64195 155.192 9.64195 154.779C9.64195 154.259 9.71862 153.772 9.87195 153.319C10.032 152.859 10.232 152.442 10.472 152.069C10.7186 151.689 10.992 151.356 11.292 151.069C11.592 150.776 11.8853 150.539 12.172 150.359H13.252C12.872 150.632 12.532 150.899 12.232 151.159C11.9386 151.419 11.6786 151.692 11.452 151.979C11.2253 152.259 11.0353 152.562 10.882 152.889C10.7286 153.209 10.602 153.572 10.502 153.979L10.552 153.999C10.7186 153.712 10.9386 153.476 11.212 153.289C11.4853 153.096 11.8386 152.999 12.272 152.999C12.5786 152.999 12.8586 153.049 13.112 153.149C13.3653 153.249 13.5853 153.392 13.772 153.579C13.9586 153.766 14.102 153.992 14.202 154.259C14.3086 154.526 14.362 154.822 14.362 155.149C14.362 155.489 14.3053 155.802 14.192 156.089C14.0786 156.369 13.9186 156.612 13.712 156.819C13.512 157.019 13.2653 157.176 12.972 157.289C12.6853 157.402 12.3653 157.459 12.012 157.459ZM12.002 156.749C12.482 156.749 12.852 156.619 13.112 156.359C13.3786 156.099 13.512 155.732 13.512 155.259V155.179C13.512 154.706 13.3786 154.339 13.112 154.079C12.852 153.819 12.482 153.689 12.002 153.689C11.522 153.689 11.1486 153.819 10.882 154.079C10.622 154.339 10.492 154.706 10.492 155.179V155.259C10.492 155.732 10.622 156.099 10.882 156.359C11.1486 156.619 11.522 156.749 12.002 156.749Z" fill="#CDCDCD"/>
<path d="M10.732 176.339L13.462 170.079H10.402V171.379H9.65195V169.359H14.312V170.099L11.632 176.339H10.732Z" fill="#CDCDCD"/>
<path d="M12.002 195.459C11.5953 195.459 11.2386 195.409 10.932 195.309C10.6253 195.202 10.3686 195.059 10.162 194.879C9.96195 194.699 9.80862 194.486 9.70195 194.239C9.60195 193.992 9.55195 193.726 9.55195 193.439C9.55195 192.959 9.68195 192.579 9.94195 192.299C10.202 192.019 10.5453 191.822 10.972 191.709V191.629C10.5986 191.502 10.302 191.299 10.082 191.019C9.86862 190.732 9.76195 190.389 9.76195 189.989C9.76195 189.456 9.95862 189.032 10.352 188.719C10.7453 188.399 11.2953 188.239 12.002 188.239C12.7086 188.239 13.2586 188.399 13.652 188.719C14.0453 189.032 14.242 189.456 14.242 189.989C14.242 190.389 14.132 190.732 13.912 191.019C13.6986 191.299 13.4053 191.502 13.032 191.629V191.709C13.4586 191.822 13.802 192.019 14.062 192.299C14.322 192.579 14.452 192.959 14.452 193.439C14.452 193.726 14.3986 193.992 14.292 194.239C14.192 194.486 14.0386 194.699 13.832 194.879C13.6253 195.059 13.3686 195.202 13.062 195.309C12.762 195.409 12.4086 195.459 12.002 195.459ZM12.002 194.749C12.4953 194.749 12.882 194.639 13.162 194.419C13.442 194.199 13.582 193.889 13.582 193.489V193.269C13.582 192.869 13.442 192.559 13.162 192.339C12.8886 192.119 12.502 192.009 12.002 192.009C11.502 192.009 11.112 192.119 10.832 192.339C10.5586 192.559 10.422 192.869 10.422 193.269V193.489C10.422 193.889 10.562 194.199 10.842 194.419C11.122 194.639 11.5086 194.749 12.002 194.749ZM12.002 191.329C12.4553 191.329 12.7986 191.232 13.032 191.039C13.272 190.846 13.392 190.569 13.392 190.209V190.069C13.392 189.709 13.2686 189.432 13.022 189.239C12.782 189.046 12.442 188.949 12.002 188.949C11.562 188.949 11.2186 189.046 10.972 189.239C10.732 189.432 10.612 189.709 10.612 190.069V190.209C10.612 190.569 10.7286 190.846 10.962 191.039C11.202 191.232 11.5486 191.329 12.002 191.329Z" fill="#CDCDCD"/>
<path d="M14.362 209.919C14.362 210.439 14.282 210.929 14.122 211.389C13.9686 211.842 13.7686 212.259 13.522 212.639C13.2753 213.012 13.002 213.346 12.702 213.639C12.4086 213.926 12.1186 214.159 11.832 214.339H10.752C11.132 214.066 11.4686 213.799 11.762 213.539C12.062 213.279 12.3253 213.009 12.552 212.729C12.7786 212.442 12.9686 212.139 13.122 211.819C13.2753 211.492 13.402 211.126 13.502 210.719L13.452 210.699C13.2786 210.986 13.0553 211.226 12.782 211.419C12.5153 211.606 12.1653 211.699 11.732 211.699C11.4253 211.699 11.142 211.649 10.882 211.549C10.6286 211.449 10.4086 211.306 10.222 211.119C10.042 210.932 9.89862 210.709 9.79195 210.449C9.69195 210.182 9.64195 209.882 9.64195 209.549C9.64195 209.209 9.69529 208.899 9.80195 208.619C9.91529 208.332 10.0753 208.089 10.282 207.889C10.4886 207.682 10.7353 207.522 11.022 207.409C11.3153 207.296 11.6386 207.239 11.992 207.239C12.3586 207.239 12.6886 207.302 12.982 207.429C13.2753 207.549 13.522 207.726 13.722 207.959C13.9286 208.186 14.0853 208.466 14.192 208.799C14.3053 209.132 14.362 209.506 14.362 209.919ZM12.002 211.009C12.482 211.009 12.852 210.879 13.112 210.619C13.3786 210.359 13.512 209.992 13.512 209.519V209.439C13.512 208.966 13.3786 208.599 13.112 208.339C12.852 208.079 12.482 207.949 12.002 207.949C11.522 207.949 11.1486 208.079 10.882 208.339C10.622 208.599 10.492 208.966 10.492 209.439V209.519C10.492 209.992 10.622 210.359 10.882 210.619C11.1486 210.879 11.522 211.009 12.002 211.009Z" fill="#CDCDCD"/>
<path d="M6.75391 233.339V232.609H8.75391V226.979H8.68391L6.92391 228.619L6.43391 228.089L8.28391 226.359H9.59391V232.609H11.4339V233.339H6.75391ZM15.1 233.459C14.6733 233.459 14.3067 233.379 14 233.219C13.6933 233.052 13.44 232.816 13.24 232.509C13.04 232.202 12.8933 231.826 12.8 231.379C12.7067 230.932 12.66 230.422 12.66 229.849C12.66 229.282 12.7067 228.776 12.8 228.329C12.8933 227.876 13.04 227.496 13.24 227.189C13.44 226.882 13.6933 226.649 14 226.489C14.3067 226.322 14.6733 226.239 15.1 226.239C15.5267 226.239 15.8933 226.322 16.2 226.489C16.5067 226.649 16.76 226.882 16.96 227.189C17.16 227.496 17.3067 227.876 17.4 228.329C17.4933 228.776 17.54 229.282 17.54 229.849C17.54 230.422 17.4933 230.932 17.4 231.379C17.3067 231.826 17.16 232.202 16.96 232.509C16.76 232.816 16.5067 233.052 16.2 233.219C15.8933 233.379 15.5267 233.459 15.1 233.459ZM15.1 232.729C15.38 232.729 15.62 232.676 15.82 232.569C16.02 232.456 16.18 232.299 16.3 232.099C16.4267 231.899 16.52 231.659 16.58 231.379C16.64 231.092 16.67 230.772 16.67 230.419V229.279C16.67 228.932 16.64 228.616 16.58 228.329C16.52 228.042 16.4267 227.799 16.3 227.599C16.18 227.399 16.02 227.246 15.82 227.139C15.62 227.026 15.38 226.969 15.1 226.969C14.82 226.969 14.58 227.026 14.38 227.139C14.18 227.246 14.0167 227.399 13.89 227.599C13.77 227.799 13.68 228.042 13.62 228.329C13.56 228.616 13.53 228.932 13.53 229.279V230.419C13.53 230.772 13.56 231.092 13.62 231.379C13.68 231.659 13.77 231.899 13.89 232.099C14.0167 232.299 14.18 232.456 14.38 232.569C14.58 232.676 14.82 232.729 15.1 232.729ZM15.1 230.439C14.8667 230.439 14.7033 230.392 14.61 230.299C14.5233 230.206 14.48 230.092 14.48 229.959V229.739C14.48 229.606 14.5233 229.492 14.61 229.399C14.7033 229.306 14.8667 229.259 15.1 229.259C15.3333 229.259 15.4933 229.306 15.58 229.399C15.6733 229.492 15.72 229.606 15.72 229.739V229.959C15.72 230.092 15.6733 230.206 15.58 230.299C15.4933 230.392 15.3333 230.439 15.1 230.439Z" fill="#CDCDCD"/>
<path d="M6.75391 252.339V251.609H8.75391V245.979H8.68391L6.92391 247.619L6.43391 247.089L8.28391 245.359H9.59391V251.609H11.4339V252.339H6.75391ZM12.95 252.339V251.609H14.95V245.979H14.88L13.12 247.619L12.63 247.089L14.48 245.359H15.79V251.609H17.63V252.339H12.95Z" fill="#CDCDCD"/>
<path d="M6.75391 271.339V270.609H8.75391V264.979H8.68391L6.92391 266.619L6.43391 266.089L8.28391 264.359H9.59391V270.609H11.4339V271.339H6.75391ZM17.47 271.339H12.81V270.479L15.14 268.379C15.48 268.072 15.76 267.759 15.98 267.439C16.2 267.112 16.31 266.769 16.31 266.409V266.289C16.31 265.869 16.2 265.546 15.98 265.319C15.76 265.086 15.4333 264.969 15 264.969C14.5733 264.969 14.2433 265.079 14.01 265.299C13.7833 265.512 13.6133 265.799 13.5 266.159L12.75 265.879C12.8167 265.672 12.9067 265.472 13.02 265.279C13.14 265.079 13.29 264.902 13.47 264.749C13.65 264.596 13.8667 264.472 14.12 264.379C14.38 264.286 14.68 264.239 15.02 264.239C15.3667 264.239 15.6733 264.289 15.94 264.389C16.2133 264.489 16.44 264.629 16.62 264.809C16.8067 264.989 16.9467 265.202 17.04 265.449C17.14 265.696 17.19 265.966 17.19 266.259C17.19 266.526 17.15 266.776 17.07 267.009C16.9967 267.242 16.89 267.466 16.75 267.679C16.6167 267.892 16.4533 268.102 16.26 268.309C16.0733 268.509 15.8633 268.709 15.63 268.909L13.68 270.609H17.47V271.339Z" fill="#CDCDCD"/>
<path d="M6.75391 290.339V289.609H8.75391V283.979H8.68391L6.92391 285.619L6.43391 285.089L8.28391 283.359H9.59391V289.609H11.4339V290.339H6.75391ZM14.8 286.319C15.2867 286.319 15.65 286.212 15.89 285.999C16.1367 285.779 16.26 285.499 16.26 285.159V285.089C16.26 284.716 16.14 284.436 15.9 284.249C15.6667 284.062 15.36 283.969 14.98 283.969C14.6067 283.969 14.3033 284.052 14.07 284.219C13.8433 284.379 13.6567 284.592 13.51 284.859L12.88 284.379C12.9667 284.239 13.0733 284.102 13.2 283.969C13.3267 283.829 13.4733 283.706 13.64 283.599C13.8133 283.492 14.01 283.406 14.23 283.339C14.4567 283.272 14.7133 283.239 15 283.239C15.3 283.239 15.58 283.279 15.84 283.359C16.1 283.432 16.3267 283.546 16.52 283.699C16.7133 283.846 16.8633 284.029 16.97 284.249C17.0833 284.469 17.14 284.719 17.14 284.999C17.14 285.226 17.1033 285.429 17.03 285.609C16.9633 285.789 16.8667 285.946 16.74 286.079C16.62 286.212 16.4767 286.326 16.31 286.419C16.1433 286.512 15.9667 286.582 15.78 286.629V286.669C15.9733 286.709 16.16 286.776 16.34 286.869C16.52 286.956 16.68 287.072 16.82 287.219C16.96 287.359 17.07 287.532 17.15 287.739C17.2367 287.939 17.28 288.169 17.28 288.429C17.28 288.729 17.22 289.006 17.1 289.259C16.9867 289.506 16.8233 289.719 16.61 289.899C16.4033 290.072 16.15 290.209 15.85 290.309C15.5567 290.409 15.23 290.459 14.87 290.459C14.5633 290.459 14.29 290.426 14.05 290.359C13.8167 290.292 13.6067 290.202 13.42 290.089C13.24 289.976 13.08 289.849 12.94 289.709C12.8067 289.569 12.6867 289.422 12.58 289.269L13.21 288.789C13.3033 288.929 13.4 289.056 13.5 289.169C13.6 289.282 13.7133 289.382 13.84 289.469C13.9733 289.549 14.1233 289.612 14.29 289.659C14.4567 289.706 14.65 289.729 14.87 289.729C15.3633 289.729 15.74 289.616 16 289.389C16.2667 289.162 16.4 288.839 16.4 288.419V288.339C16.4 287.926 16.27 287.606 16.01 287.379C15.7567 287.152 15.3733 287.039 14.86 287.039H14.03V286.319H14.8Z" fill="#CDCDCD"/>
</g>
<defs>
<filter id="filter0_d_236_1859" x="-4" y="-3.66089" width="577" height="375" filterUnits="userSpaceOnUse" color-interpolation-filters="sRGB">
<feFlood flood-opacity="0" result="BackgroundImageFix"/>
<feColorMatrix in="SourceAlpha" type="matrix" values="0 0 0 0 0 0 0 0 0 0 0 0 0 0 0 0 0 0 127 0" result="hardAlpha"/>
<feOffset/>
<feGaussianBlur stdDeviation="2"/>
<feComposite in2="hardAlpha" operator="out"/>
<feColorMatrix type="matrix" values="0 0 0 0 0 0 0 0 0 0 0 0 0 0 0 0 0 0 0.1 0"/>
<feBlend mode="normal" in2="BackgroundImageFix" result="effect1_dropShadow_236_1859"/>
<feBlend mode="normal" in="SourceGraphic" in2="effect1_dropShadow_236_1859" result="shape"/>
</filter>
<clipPath id="clip0_236_1859">
<path d="M0 0.339111H269V273.339C269 287.146 257.807 298.339 244 298.339H0V0.339111Z" fill="white"/>
</clipPath>
</defs>
</svg>
