<svg width="269" height="299" viewBox="0 0 269 299" fill="none" xmlns="http://www.w3.org/2000/svg">
<g clip-path="url(#clip0_236_1788)">
<g clip-path="url(#clip1_236_1788)">
<g filter="url(#filter0_b_236_1788)">
<rect x="1" y="1.33887" width="573" height="359" fill="white"/>
</g>
</g>
<path d="M6.46009 359.249L6.68709 358.803L6.46009 359.249ZM2.08993 354.879L2.53544 354.652L2.08993 354.879ZM572.91 354.879L572.465 354.652L572.91 354.879ZM568.54 359.249L568.767 359.694L568.54 359.249ZM568.54 2.4288L568.767 1.9833L568.54 2.4288ZM572.91 6.79896L573.356 6.57197L572.91 6.79896ZM6.46009 2.4288L6.68709 2.87431L6.46009 2.4288ZM17 1.83887H558V0.838867H17V1.83887ZM573.5 17.3389V344.339H574.5V17.3389H573.5ZM558 359.839H17V360.839H558V359.839ZM1.5 344.339V17.3389H0.5V344.339H1.5ZM17 359.839C14.1915 359.839 12.1152 359.838 10.4727 359.704C8.83614 359.571 7.67441 359.306 6.68709 358.803L6.2331 359.694C7.38489 360.281 8.69286 360.562 10.3913 360.701C12.0839 360.839 14.208 360.839 17 360.839V359.839ZM0.5 344.339C0.5 347.131 0.499611 349.255 0.637902 350.948C0.776671 352.646 1.05756 353.954 1.64443 355.106L2.53544 354.652C2.03237 353.664 1.7683 352.503 1.63458 350.866C1.50039 349.224 1.5 347.147 1.5 344.339H0.5ZM6.68709 358.803C4.89955 357.893 3.44624 356.439 2.53544 354.652L1.64443 355.106C2.6511 357.081 4.2574 358.688 6.2331 359.694L6.68709 358.803ZM573.5 344.339C573.5 347.147 573.5 349.224 573.365 350.866C573.232 352.503 572.968 353.664 572.465 354.652L573.356 355.106C573.942 353.954 574.223 352.646 574.362 350.948C574.5 349.255 574.5 347.131 574.5 344.339H573.5ZM558 360.839C560.792 360.839 562.916 360.839 564.609 360.701C566.307 360.562 567.615 360.281 568.767 359.694L568.313 358.803C567.326 359.306 566.164 359.571 564.527 359.704C562.885 359.838 560.809 359.839 558 359.839V360.839ZM572.465 354.652C571.554 356.439 570.1 357.893 568.313 358.803L568.767 359.694C570.743 358.688 572.349 357.081 573.356 355.106L572.465 354.652ZM558 1.83887C560.809 1.83887 562.885 1.83926 564.527 1.97345C566.164 2.10716 567.326 2.37124 568.313 2.87431L568.767 1.9833C567.615 1.39643 566.307 1.11554 564.609 0.97677C562.916 0.838478 560.792 0.838867 558 0.838867V1.83887ZM574.5 17.3389C574.5 14.5469 574.5 12.4228 574.362 10.7302C574.223 9.03173 573.942 7.72376 573.356 6.57197L572.465 7.02596C572.968 8.01328 573.232 9.175 573.365 10.8116C573.5 12.454 573.5 14.5304 573.5 17.3389H574.5ZM568.313 2.87431C570.1 3.7851 571.554 5.23842 572.465 7.02596L573.356 6.57197C572.349 4.59626 570.743 2.98997 568.767 1.9833L568.313 2.87431ZM17 0.838867C14.208 0.838867 12.0839 0.838478 10.3913 0.97677C8.69286 1.11554 7.38489 1.39643 6.2331 1.9833L6.68709 2.87431C7.67441 2.37124 8.83614 2.10716 10.4727 1.97345C12.1152 1.83926 14.1915 1.83887 17 1.83887V0.838867ZM1.5 17.3389C1.5 14.5304 1.50039 12.454 1.63458 10.8116C1.7683 9.175 2.03237 8.01328 2.53544 7.02596L1.64443 6.57197C1.05756 7.72376 0.776671 9.03173 0.637902 10.7302C0.499611 12.4228 0.5 14.5469 0.5 17.3389H1.5ZM6.2331 1.9833C4.2574 2.98997 2.6511 4.59626 1.64443 6.57197L2.53544 7.02596C3.44624 5.23842 4.89955 3.7851 6.68709 2.87431L6.2331 1.9833Z" fill="black" fill-opacity="0.12"/>
<g filter="url(#filter1_di_236_1788)">
<path d="M1 17.3389C1 11.7383 1 8.93808 2.08993 6.79896C3.04867 4.91734 4.57847 3.38754 6.46009 2.4288C8.59921 1.33887 11.3995 1.33887 17 1.33887H558C563.601 1.33887 566.401 1.33887 568.54 2.4288C570.422 3.38754 571.951 4.91734 572.91 6.79896C574 8.93808 574 11.7383 574 17.3389V29.3389H1V17.3389Z" fill="white"/>
<path fill-rule="evenodd" clip-rule="evenodd" d="M15 21.3389C18.3137 21.3389 21 18.6526 21 15.3389C21 12.0252 18.3137 9.33887 15 9.33887C11.6863 9.33887 9 12.0252 9 15.3389C9 18.6526 11.6863 21.3389 15 21.3389Z" fill="#FF5E57"/>
<path d="M20.75 15.3389C20.75 18.5145 18.1756 21.0889 15 21.0889C11.8244 21.0889 9.25 18.5145 9.25 15.3389C9.25 12.1632 11.8244 9.58887 15 9.58887C18.1756 9.58887 20.75 12.1632 20.75 15.3389Z" stroke="black" stroke-opacity="0.12" stroke-width="0.5"/>
<path fill-rule="evenodd" clip-rule="evenodd" d="M35 21.3389C38.3137 21.3389 41 18.6526 41 15.3389C41 12.0252 38.3137 9.33887 35 9.33887C31.6863 9.33887 29 12.0252 29 15.3389C29 18.6526 31.6863 21.3389 35 21.3389Z" fill="#FFBB2E"/>
<path d="M40.75 15.3389C40.75 18.5145 38.1756 21.0889 35 21.0889C31.8244 21.0889 29.25 18.5145 29.25 15.3389C29.25 12.1632 31.8244 9.58887 35 9.58887C38.1756 9.58887 40.75 12.1632 40.75 15.3389Z" stroke="black" stroke-opacity="0.12" stroke-width="0.5"/>
<path fill-rule="evenodd" clip-rule="evenodd" d="M55 21.3389C58.3137 21.3389 61 18.6526 61 15.3389C61 12.0252 58.3137 9.33887 55 9.33887C51.6863 9.33887 49 12.0252 49 15.3389C49 18.6526 51.6863 21.3389 55 21.3389Z" fill="#38C149"/>
<path d="M60.75 15.3389C60.75 18.5145 58.1756 21.0889 55 21.0889C51.8244 21.0889 49.25 18.5145 49.25 15.3389C49.25 12.1632 51.8244 9.58887 55 9.58887C58.1756 9.58887 60.75 12.1632 60.75 15.3389Z" stroke="black" stroke-opacity="0.12" stroke-width="0.5"/>
</g>
<path d="M254.787 20.542C256.926 20.542 258.354 19.4185 258.354 17.7554V17.7427C258.354 16.4985 257.466 15.7114 256.101 15.5845V15.5464C257.174 15.3242 258.011 14.5815 258.011 13.439V13.4263C258.011 11.9663 256.742 10.9761 254.774 10.9761C252.851 10.9761 251.562 12.0425 251.429 13.6802L251.423 13.7563H253.187L253.194 13.6992C253.27 12.9375 253.873 12.4487 254.774 12.4487C255.676 12.4487 256.202 12.9185 256.202 13.6802V13.6929C256.202 14.4355 255.58 14.9434 254.615 14.9434H253.594V16.3081H254.641C255.752 16.3081 256.406 16.7905 256.406 17.6665V17.6792C256.406 18.4536 255.764 18.9995 254.787 18.9995C253.797 18.9995 253.143 18.4917 253.06 17.7808L253.054 17.7109H251.219L251.226 17.7935C251.353 19.4312 252.718 20.542 254.787 20.542ZM263.019 20.4849C265.062 20.4849 265.964 19.3042 266.18 18.4282L266.192 18.3647H264.466L264.447 18.4028C264.32 18.6694 263.869 19.1011 263.057 19.1011C262.073 19.1011 261.457 18.4346 261.438 17.2856H266.25V16.708C266.25 14.5942 264.98 13.1978 262.942 13.1978C260.905 13.1978 259.604 14.626 259.604 16.8477V16.854C259.604 19.0947 260.892 20.4849 263.019 20.4849ZM262.974 14.5879C263.78 14.5879 264.358 15.1084 264.472 16.124H261.457C261.571 15.1338 262.168 14.5879 262.974 14.5879ZM267.715 20.3389H269.568V16.124C269.568 15.3242 270.076 14.7339 270.8 14.7339C271.523 14.7339 271.948 15.1719 271.948 15.9209V20.3389H273.802V16.0415C273.802 15.2861 274.284 14.7339 275.033 14.7339C275.808 14.7339 276.189 15.1592 276.189 16.0034V20.3389H278.042V15.54C278.042 14.0991 277.173 13.1978 275.782 13.1978C274.805 13.1978 273.992 13.7119 273.675 14.4863H273.561C273.275 13.6802 272.571 13.1978 271.618 13.1978C270.704 13.1978 269.981 13.6548 269.682 14.4419H269.568V13.3501H267.715V20.3389ZM287.161 20.5737C289.37 20.5737 290.938 19.2661 291.135 17.3491L291.141 17.2793H289.275L289.262 17.3301C289.059 18.3076 288.266 18.9487 287.168 18.9487C285.72 18.9487 284.825 17.73 284.825 15.7622V15.7495C284.825 13.7817 285.72 12.5693 287.161 12.5693C288.253 12.5693 289.072 13.2676 289.269 14.2959V14.3403H291.135V14.2642C290.957 12.3281 289.332 10.9443 287.161 10.9443C284.502 10.9443 282.864 12.7788 282.864 15.7495V15.7622C282.864 18.7329 284.508 20.5737 287.161 20.5737ZM292.854 20.3389H298.846V18.7583H294.771V11.1792H292.854V20.3389ZM300.533 20.3389H302.45V11.1792H300.533V20.3389Z" fill="#3D3D3D"/>
<path d="M110.25 143.01V119.664C110.249 118.9 110.048 118.15 109.667 117.487C109.286 116.825 108.738 116.274 108.078 115.889L87.2963 103.795C86.295 103.212 85.1572 102.905 83.9986 102.905C82.8401 102.905 81.7022 103.212 80.701 103.795L59.9225 115.889C59.2622 116.274 58.7143 116.825 58.3331 117.487C57.952 118.15 57.7509 118.9 57.75 119.664V143.01C57.7505 143.775 57.9513 144.526 58.3324 145.189C58.7136 145.852 59.2618 146.403 59.9225 146.788L80.7037 158.882C81.7052 159.464 82.843 159.771 84.0014 159.771C85.1598 159.771 86.2975 159.464 87.299 158.882L108.08 146.788C108.74 146.403 109.288 145.851 109.669 145.188C110.049 144.526 110.25 143.775 110.25 143.01Z" stroke="#242424" stroke-linecap="round" stroke-linejoin="round"/>
<path d="M58.4336 117.392L84 132.431L109.566 117.392" stroke="#242424" stroke-linecap="round" stroke-linejoin="round"/>
<path d="M84 159.774V132.431" stroke="#242424" stroke-linecap="round" stroke-linejoin="round"/>
<path d="M221.279 114.973C221.362 114.925 221.43 114.856 221.478 114.773C221.526 114.69 221.551 114.597 221.551 114.501C221.551 114.405 221.526 114.312 221.478 114.229C221.43 114.146 221.362 114.077 221.279 114.029L200.397 101.896C199.061 101.122 197.544 100.714 195.999 100.714C194.455 100.714 192.938 101.122 191.602 101.896L170.723 114.029C170.641 114.077 170.572 114.146 170.525 114.229C170.477 114.312 170.452 114.405 170.452 114.501C170.452 114.597 170.477 114.69 170.525 114.773C170.572 114.856 170.641 114.925 170.723 114.973L195.727 129.682C195.811 129.731 195.906 129.757 196.004 129.757C196.102 129.757 196.198 129.731 196.282 129.682L221.279 114.973Z" fill="#242424"/>
<path d="M168.383 118.694C168.299 118.646 168.205 118.621 168.108 118.621C168.012 118.621 167.918 118.647 167.834 118.695C167.751 118.744 167.682 118.813 167.634 118.897C167.587 118.98 167.562 119.075 167.563 119.172V142.946C167.565 144.091 167.867 145.216 168.438 146.209C169.01 147.202 169.832 148.028 170.822 148.604L192.992 161.897C193.075 161.945 193.17 161.971 193.265 161.971C193.361 161.971 193.456 161.946 193.539 161.898C193.622 161.85 193.691 161.781 193.739 161.698C193.787 161.615 193.812 161.52 193.813 161.424V133.841C193.812 133.746 193.787 133.651 193.739 133.568C193.691 133.485 193.622 133.416 193.539 133.368L168.383 118.694Z" fill="#242424"/>
<path d="M198.188 133.938V161.418C198.188 161.514 198.213 161.608 198.261 161.691C198.309 161.774 198.378 161.843 198.461 161.891C198.544 161.939 198.639 161.964 198.735 161.964C198.83 161.964 198.925 161.939 199.008 161.891L221.177 148.598C222.166 148.022 222.987 147.197 223.559 146.206C224.131 145.214 224.434 144.091 224.438 142.946V119.172C224.437 119.076 224.412 118.982 224.364 118.899C224.315 118.816 224.246 118.748 224.163 118.7C224.08 118.652 223.986 118.627 223.89 118.627C223.794 118.627 223.7 118.652 223.617 118.7L198.461 133.466C198.378 133.514 198.309 133.582 198.261 133.665C198.213 133.748 198.188 133.842 198.188 133.938V133.938Z" fill="#242424"/>
</g>
<defs>
<filter id="filter0_b_236_1788" x="-3" y="-2.66113" width="581" height="367" filterUnits="userSpaceOnUse" color-interpolation-filters="sRGB">
<feFlood flood-opacity="0" result="BackgroundImageFix"/>
<feGaussianBlur in="BackgroundImage" stdDeviation="2"/>
<feComposite in2="SourceAlpha" operator="in" result="effect1_backgroundBlur_236_1788"/>
<feBlend mode="normal" in="SourceGraphic" in2="effect1_backgroundBlur_236_1788" result="shape"/>
</filter>
<filter id="filter1_di_236_1788" x="1" y="1.33887" width="573" height="28.5" filterUnits="userSpaceOnUse" color-interpolation-filters="sRGB">
<feFlood flood-opacity="0" result="BackgroundImageFix"/>
<feColorMatrix in="SourceAlpha" type="matrix" values="0 0 0 0 0 0 0 0 0 0 0 0 0 0 0 0 0 0 127 0" result="hardAlpha"/>
<feOffset dy="0.5"/>
<feColorMatrix type="matrix" values="0 0 0 0 0 0 0 0 0 0 0 0 0 0 0 0 0 0 0.15 0"/>
<feBlend mode="normal" in2="BackgroundImageFix" result="effect1_dropShadow_236_1788"/>
<feBlend mode="normal" in="SourceGraphic" in2="effect1_dropShadow_236_1788" result="shape"/>
<feColorMatrix in="SourceAlpha" type="matrix" values="0 0 0 0 0 0 0 0 0 0 0 0 0 0 0 0 0 0 127 0" result="hardAlpha"/>
<feOffset dy="-0.5"/>
<feComposite in2="hardAlpha" operator="arithmetic" k2="-1" k3="1"/>
<feColorMatrix type="matrix" values="0 0 0 0 0 0 0 0 0 0 0 0 0 0 0 0 0 0 0.05 0"/>
<feBlend mode="normal" in2="shape" result="effect2_innerShadow_236_1788"/>
</filter>
<clipPath id="clip0_236_1788">
<path d="M0 0.338867H269V273.339C269 287.146 257.807 298.339 244 298.339H0V0.338867Z" fill="white"/>
</clipPath>
<clipPath id="clip1_236_1788">
<path d="M1 17.3389C1 11.7383 1 8.93808 2.08993 6.79896C3.04867 4.91734 4.57847 3.38754 6.46009 2.4288C8.59921 1.33887 11.3995 1.33887 17 1.33887H558C563.601 1.33887 566.401 1.33887 568.54 2.4288C570.422 3.38754 571.951 4.91734 572.91 6.79896C574 8.93808 574 11.7383 574 17.3389V344.339C574 349.939 574 352.74 572.91 354.879C571.951 356.76 570.422 358.29 568.54 359.249C566.401 360.339 563.601 360.339 558 360.339H17C11.3995 360.339 8.59921 360.339 6.46009 359.249C4.57847 358.29 3.04867 356.76 2.08993 354.879C1 352.74 1 349.939 1 344.339V17.3389Z" fill="white"/>
</clipPath>
</defs>
</svg>
