<svg width="269" height="299" viewBox="0 0 269 299" fill="none" xmlns="http://www.w3.org/2000/svg">
<g clip-path="url(#clip0_236_1859)">
<rect width="569" height="367" rx="6" fill="white"/>
<path d="M48.6222 62.12C47.7689 62.12 47.1322 61.81 46.7122 61.19C46.2989 60.57 46.0922 59.6767 46.0922 58.51C46.0922 57.3433 46.2989 56.45 46.7122 55.83C47.1322 55.21 47.7689 54.9 48.6222 54.9C48.9422 54.9 49.2189 54.9433 49.4522 55.03C49.6855 55.1167 49.8855 55.2333 50.0522 55.38C50.2189 55.5267 50.3589 55.6933 50.4722 55.88C50.5855 56.06 50.6855 56.2433 50.7722 56.43L50.0522 56.76C49.9922 56.6067 49.9222 56.4633 49.8422 56.33C49.7622 56.19 49.6655 56.07 49.5522 55.97C49.4455 55.8633 49.3155 55.78 49.1622 55.72C49.0155 55.66 48.8355 55.63 48.6222 55.63C48.0689 55.63 47.6555 55.84 47.3822 56.26C47.1155 56.68 46.9822 57.24 46.9822 57.94V59.08C46.9822 59.78 47.1155 60.34 47.3822 60.76C47.6555 61.18 48.0689 61.39 48.6222 61.39C48.8355 61.39 49.0155 61.36 49.1622 61.3C49.3155 61.24 49.4455 61.16 49.5522 61.06C49.6655 60.9533 49.7622 60.8333 49.8422 60.7C49.9222 60.56 49.9922 60.4133 50.0522 60.26L50.7722 60.59C50.6855 60.7833 50.5855 60.97 50.4722 61.15C50.3589 61.33 50.2189 61.4933 50.0522 61.64C49.8855 61.7867 49.6855 61.9033 49.4522 61.99C49.2189 62.0767 48.9422 62.12 48.6222 62.12ZM54.5883 62.12C54.2283 62.12 53.9016 62.0567 53.6083 61.93C53.3216 61.8033 53.0749 61.6233 52.8683 61.39C52.6683 61.15 52.5149 60.8667 52.4083 60.54C52.3016 60.2067 52.2483 59.8333 52.2483 59.42C52.2483 59.0133 52.3016 58.6433 52.4083 58.31C52.5149 57.9767 52.6683 57.6933 52.8683 57.46C53.0749 57.22 53.3216 57.0367 53.6083 56.91C53.9016 56.7833 54.2283 56.72 54.5883 56.72C54.9483 56.72 55.2716 56.7833 55.5583 56.91C55.8516 57.0367 56.0983 57.22 56.2983 57.46C56.5049 57.6933 56.6616 57.9767 56.7683 58.31C56.8749 58.6433 56.9283 59.0133 56.9283 59.42C56.9283 59.8333 56.8749 60.2067 56.7683 60.54C56.6616 60.8667 56.5049 61.15 56.2983 61.39C56.0983 61.6233 55.8516 61.8033 55.5583 61.93C55.2716 62.0567 54.9483 62.12 54.5883 62.12ZM54.5883 61.43C55.0349 61.43 55.3949 61.2967 55.6683 61.03C55.9416 60.7633 56.0783 60.35 56.0783 59.79V59.05C56.0783 58.49 55.9416 58.0767 55.6683 57.81C55.3949 57.5433 55.0349 57.41 54.5883 57.41C54.1416 57.41 53.7816 57.5433 53.5083 57.81C53.2349 58.0767 53.0983 58.49 53.0983 59.05V59.79C53.0983 60.35 53.2349 60.7633 53.5083 61.03C53.7816 61.2967 54.1416 61.43 54.5883 61.43ZM58.7644 62V56.84H59.5644V57.68H59.6044C59.6577 57.5533 59.7244 57.4333 59.8044 57.32C59.8844 57.2 59.981 57.0967 60.0944 57.01C60.2144 56.9233 60.3544 56.8533 60.5144 56.8C60.6744 56.7467 60.861 56.72 61.0744 56.72C61.6144 56.72 62.0477 56.8933 62.3744 57.24C62.701 57.58 62.8644 58.0633 62.8644 58.69V62H62.0644V58.83C62.0644 58.3567 61.961 58.0067 61.7544 57.78C61.5477 57.5467 61.2444 57.43 60.8444 57.43C60.6844 57.43 60.5277 57.45 60.3744 57.49C60.221 57.53 60.0844 57.59 59.9644 57.67C59.8444 57.75 59.7477 57.8533 59.6744 57.98C59.601 58.1067 59.5644 58.2533 59.5644 58.42V62H58.7644ZM67.2305 62C66.8371 62 66.5471 61.89 66.3605 61.67C66.1805 61.45 66.0905 61.1667 66.0905 60.82V57.52H64.3705V56.84H65.6505C65.8238 56.84 65.9438 56.8067 66.0105 56.74C66.0838 56.6667 66.1205 56.5433 66.1205 56.37V55.02H66.8905V56.84H69.2405V57.52H66.8905V61.32H69.2405V62H67.2305ZM70.9466 61.32H72.4566V57.52H70.9466V56.84H73.2566V58.14H73.3066C73.4132 57.7333 73.6132 57.4167 73.9066 57.19C74.2066 56.9567 74.5866 56.84 75.0466 56.84H75.7666V57.64H74.7966C74.3366 57.64 73.9632 57.7733 73.6766 58.04C73.3966 58.3067 73.2566 58.6567 73.2566 59.09V61.32H75.2566V62H70.9466V61.32ZM81.3227 62C81.0093 62 80.786 61.92 80.6527 61.76C80.5193 61.6 80.436 61.4 80.4027 61.16H80.3527C80.2393 61.46 80.056 61.6967 79.8027 61.87C79.556 62.0367 79.2227 62.12 78.8027 62.12C78.2627 62.12 77.8327 61.98 77.5127 61.7C77.1927 61.42 77.0327 61.0367 77.0327 60.55C77.0327 60.07 77.206 59.7 77.5527 59.44C77.906 59.18 78.4727 59.05 79.2527 59.05H80.3527V58.54C80.3527 58.16 80.246 57.8767 80.0327 57.69C79.8193 57.4967 79.516 57.4 79.1227 57.4C78.776 57.4 78.4927 57.47 78.2727 57.61C78.0527 57.7433 77.876 57.9267 77.7427 58.16L77.2027 57.76C77.2693 57.6267 77.3593 57.4967 77.4727 57.37C77.586 57.2433 77.726 57.1333 77.8927 57.04C78.0593 56.94 78.2493 56.8633 78.4627 56.81C78.676 56.75 78.9127 56.72 79.1727 56.72C79.7793 56.72 80.2593 56.8733 80.6127 57.18C80.9727 57.4867 81.1527 57.9133 81.1527 58.46V61.3H81.8727V62H81.3227ZM78.9427 61.45C79.1493 61.45 79.336 61.4267 79.5027 61.38C79.676 61.3267 79.826 61.26 79.9527 61.18C80.0793 61.0933 80.176 60.9933 80.2427 60.88C80.316 60.76 80.3527 60.6333 80.3527 60.5V59.65H79.2527C78.7727 59.65 78.4227 59.7167 78.2027 59.85C77.9827 59.9833 77.8727 60.1767 77.8727 60.43V60.64C77.8727 60.9067 77.966 61.11 78.1527 61.25C78.346 61.3833 78.6093 61.45 78.9427 61.45ZM85.7487 62.12C85.3754 62.12 85.0421 62.0567 84.7487 61.93C84.4621 61.7967 84.2187 61.6133 84.0187 61.38C83.8187 61.1467 83.6654 60.8633 83.5587 60.53C83.4587 60.1967 83.4087 59.8267 83.4087 59.42C83.4087 59.0133 83.4621 58.6433 83.5687 58.31C83.6754 57.9767 83.8287 57.6933 84.0287 57.46C84.2287 57.22 84.4721 57.0367 84.7587 56.91C85.0454 56.7833 85.3721 56.72 85.7387 56.72C86.2387 56.72 86.6454 56.83 86.9587 57.05C87.2721 57.27 87.5021 57.5567 87.6487 57.91L87.0087 58.25C86.9154 57.9833 86.7587 57.7767 86.5387 57.63C86.3254 57.4833 86.0587 57.41 85.7387 57.41C85.5054 57.41 85.2954 57.45 85.1087 57.53C84.9287 57.6033 84.7754 57.71 84.6487 57.85C84.5221 57.99 84.4254 58.1567 84.3587 58.35C84.2987 58.5433 84.2687 58.7533 84.2687 58.98V59.86C84.2687 60.0867 84.2987 60.2967 84.3587 60.49C84.4254 60.6833 84.5221 60.85 84.6487 60.99C84.7754 61.13 84.9321 61.24 85.1187 61.32C85.3054 61.3933 85.5187 61.43 85.7587 61.43C86.1054 61.43 86.3921 61.35 86.6187 61.19C86.8454 61.03 87.0254 60.81 87.1587 60.53L87.7287 60.92C87.5754 61.2667 87.3354 61.5533 87.0087 61.78C86.6887 62.0067 86.2687 62.12 85.7487 62.12ZM92.0148 62C91.6215 62 91.3315 61.89 91.1448 61.67C90.9648 61.45 90.8748 61.1667 90.8748 60.82V57.52H89.1548V56.84H90.4348C90.6082 56.84 90.7282 56.8067 90.7948 56.74C90.8682 56.6667 90.9048 56.5433 90.9048 56.37V55.02H91.6748V56.84H94.0248V57.52H91.6748V61.32H94.0248V62H92.0148ZM99.7709 62L99.1809 60.01H96.7309L96.1409 62H95.2709L97.4109 55.02H98.5209L100.661 62H99.7709ZM98.0009 55.91H97.9109L96.9309 59.28H98.9809L98.0009 55.91ZM104.217 62.12C103.677 62.12 103.21 62.03 102.817 61.85C102.43 61.6633 102.1 61.4167 101.827 61.11L102.367 60.64C102.614 60.9 102.884 61.1 103.177 61.24C103.47 61.38 103.824 61.45 104.237 61.45C104.637 61.45 104.964 61.38 105.217 61.24C105.477 61.0933 105.607 60.8667 105.607 60.56C105.607 60.4267 105.58 60.3167 105.527 60.23C105.48 60.1367 105.414 60.0633 105.327 60.01C105.24 59.9567 105.144 59.9167 105.037 59.89C104.93 59.8567 104.817 59.83 104.697 59.81L103.887 59.69C103.707 59.6633 103.51 59.6267 103.297 59.58C103.09 59.5333 102.9 59.46 102.727 59.36C102.554 59.2533 102.407 59.1133 102.287 58.94C102.174 58.7667 102.117 58.54 102.117 58.26C102.117 58 102.167 57.7767 102.267 57.59C102.374 57.3967 102.52 57.2367 102.707 57.11C102.894 56.9767 103.114 56.88 103.367 56.82C103.62 56.7533 103.897 56.72 104.197 56.72C104.664 56.72 105.067 56.7933 105.407 56.94C105.754 57.0867 106.05 57.29 106.297 57.55L105.777 58.04C105.717 57.9667 105.64 57.8933 105.547 57.82C105.46 57.74 105.35 57.67 105.217 57.61C105.09 57.5433 104.94 57.49 104.767 57.45C104.594 57.41 104.394 57.39 104.167 57.39C103.76 57.39 103.447 57.46 103.227 57.6C103.014 57.74 102.907 57.9433 102.907 58.21C102.907 58.3433 102.93 58.4567 102.977 58.55C103.03 58.6367 103.1 58.7067 103.187 58.76C103.274 58.8133 103.37 58.8567 103.477 58.89C103.59 58.9167 103.704 58.94 103.817 58.96L104.627 59.08C104.814 59.1067 105.01 59.1433 105.217 59.19C105.424 59.2367 105.614 59.3133 105.787 59.42C105.96 59.52 106.104 59.6567 106.217 59.83C106.337 60.0033 106.397 60.23 106.397 60.51C106.397 61.0233 106.197 61.42 105.797 61.7C105.404 61.98 104.877 62.12 104.217 62.12ZM110.413 62.12C109.873 62.12 109.406 62.03 109.013 61.85C108.626 61.6633 108.296 61.4167 108.023 61.11L108.563 60.64C108.81 60.9 109.08 61.1 109.373 61.24C109.666 61.38 110.02 61.45 110.433 61.45C110.833 61.45 111.16 61.38 111.413 61.24C111.673 61.0933 111.803 60.8667 111.803 60.56C111.803 60.4267 111.776 60.3167 111.723 60.23C111.676 60.1367 111.61 60.0633 111.523 60.01C111.436 59.9567 111.34 59.9167 111.233 59.89C111.126 59.8567 111.013 59.83 110.893 59.81L110.083 59.69C109.903 59.6633 109.706 59.6267 109.493 59.58C109.286 59.5333 109.096 59.46 108.923 59.36C108.75 59.2533 108.603 59.1133 108.483 58.94C108.37 58.7667 108.313 58.54 108.313 58.26C108.313 58 108.363 57.7767 108.463 57.59C108.57 57.3967 108.716 57.2367 108.903 57.11C109.09 56.9767 109.31 56.88 109.563 56.82C109.816 56.7533 110.093 56.72 110.393 56.72C110.86 56.72 111.263 56.7933 111.603 56.94C111.95 57.0867 112.246 57.29 112.493 57.55L111.973 58.04C111.913 57.9667 111.836 57.8933 111.743 57.82C111.656 57.74 111.546 57.67 111.413 57.61C111.286 57.5433 111.136 57.49 110.963 57.45C110.79 57.41 110.59 57.39 110.363 57.39C109.956 57.39 109.643 57.46 109.423 57.6C109.21 57.74 109.103 57.9433 109.103 58.21C109.103 58.3433 109.126 58.4567 109.173 58.55C109.226 58.6367 109.296 58.7067 109.383 58.76C109.47 58.8133 109.566 58.8567 109.673 58.89C109.786 58.9167 109.9 58.94 110.013 58.96L110.823 59.08C111.01 59.1067 111.206 59.1433 111.413 59.19C111.62 59.2367 111.81 59.3133 111.983 59.42C112.156 59.52 112.3 59.6567 112.413 59.83C112.533 60.0033 112.593 60.23 112.593 60.51C112.593 61.0233 112.393 61.42 111.993 61.7C111.6 61.98 111.073 62.12 110.413 62.12ZM116.639 62.12C116.266 62.12 115.929 62.0567 115.629 61.93C115.336 61.8033 115.083 61.6233 114.869 61.39C114.663 61.15 114.503 60.8667 114.389 60.54C114.276 60.2067 114.219 59.8367 114.219 59.43C114.219 59.0167 114.276 58.6433 114.389 58.31C114.509 57.9767 114.673 57.6933 114.879 57.46C115.086 57.22 115.333 57.0367 115.619 56.91C115.913 56.7833 116.236 56.72 116.589 56.72C116.936 56.72 117.249 56.7833 117.529 56.91C117.816 57.0367 118.059 57.2133 118.259 57.44C118.459 57.66 118.613 57.9233 118.719 58.23C118.826 58.5367 118.879 58.8733 118.879 59.24V59.62H115.059V59.86C115.059 60.0867 115.096 60.2967 115.169 60.49C115.243 60.6833 115.346 60.85 115.479 60.99C115.619 61.13 115.786 61.24 115.979 61.32C116.179 61.3933 116.399 61.43 116.639 61.43C116.986 61.43 117.286 61.35 117.539 61.19C117.793 61.03 117.986 60.81 118.119 60.53L118.709 60.93C118.556 61.2767 118.299 61.5633 117.939 61.79C117.586 62.01 117.153 62.12 116.639 62.12ZM116.589 57.38C116.369 57.38 116.166 57.42 115.979 57.5C115.793 57.58 115.629 57.69 115.489 57.83C115.356 57.97 115.249 58.1367 115.169 58.33C115.096 58.5167 115.059 58.7233 115.059 58.95V59.02H118.019V58.91C118.019 58.6833 117.983 58.4767 117.909 58.29C117.843 58.1033 117.746 57.9433 117.619 57.81C117.499 57.67 117.349 57.5633 117.169 57.49C116.996 57.4167 116.803 57.38 116.589 57.38ZM120.515 61.32H122.025V57.52H120.515V56.84H122.825V58.14H122.875C122.982 57.7333 123.182 57.4167 123.475 57.19C123.775 56.9567 124.155 56.84 124.615 56.84H125.335V57.64H124.365C123.905 57.64 123.532 57.7733 123.245 58.04C122.965 58.3067 122.825 58.6567 122.825 59.09V61.32H124.825V62H120.515V61.32ZM129.191 62C128.798 62 128.508 61.89 128.321 61.67C128.141 61.45 128.051 61.1667 128.051 60.82V57.52H126.331V56.84H127.611C127.785 56.84 127.905 56.8067 127.971 56.74C128.045 56.6667 128.081 56.5433 128.081 56.37V55.02H128.851V56.84H131.201V57.52H128.851V61.32H131.201V62H129.191Z" fill="#3AA6E3"/>
<path d="M134.187 58.89C134.187 58.4033 134.241 57.9367 134.347 57.49C134.461 57.0367 134.611 56.6167 134.797 56.23C134.991 55.8433 135.214 55.4967 135.467 55.19C135.721 54.8767 135.987 54.6133 136.267 54.4H137.077C136.784 54.62 136.507 54.8767 136.247 55.17C135.994 55.4567 135.767 55.7733 135.567 56.12C135.374 56.46 135.221 56.83 135.107 57.23C134.994 57.6233 134.937 58.0333 134.937 58.46V59.32C134.937 59.7467 134.994 60.16 135.107 60.56C135.221 60.9533 135.374 61.3233 135.567 61.67C135.767 62.01 135.994 62.3233 136.247 62.61C136.507 62.9033 136.784 63.16 137.077 63.38H136.267C135.987 63.1733 135.721 62.9133 135.467 62.6C135.214 62.2867 134.991 61.9367 134.797 61.55C134.611 61.1633 134.461 60.7467 134.347 60.3C134.241 59.8467 134.187 59.3767 134.187 58.89Z" fill="#666666"/>
<path d="M60.7844 81.12C60.4244 81.12 60.0977 81.0567 59.8044 80.93C59.5177 80.8033 59.271 80.6233 59.0644 80.39C58.8644 80.15 58.711 79.8667 58.6044 79.54C58.4977 79.2067 58.4444 78.8333 58.4444 78.42C58.4444 78.0133 58.4977 77.6433 58.6044 77.31C58.711 76.9767 58.8644 76.6933 59.0644 76.46C59.271 76.22 59.5177 76.0367 59.8044 75.91C60.0977 75.7833 60.4244 75.72 60.7844 75.72C61.1444 75.72 61.4677 75.7833 61.7544 75.91C62.0477 76.0367 62.2944 76.22 62.4944 76.46C62.701 76.6933 62.8577 76.9767 62.9644 77.31C63.071 77.6433 63.1244 78.0133 63.1244 78.42C63.1244 78.8333 63.071 79.2067 62.9644 79.54C62.8577 79.8667 62.701 80.15 62.4944 80.39C62.2944 80.6233 62.0477 80.8033 61.7544 80.93C61.4677 81.0567 61.1444 81.12 60.7844 81.12ZM60.7844 80.43C61.231 80.43 61.591 80.2967 61.8644 80.03C62.1377 79.7633 62.2744 79.35 62.2744 78.79V78.05C62.2744 77.49 62.1377 77.0767 61.8644 76.81C61.591 76.5433 61.231 76.41 60.7844 76.41C60.3377 76.41 59.9777 76.5433 59.7044 76.81C59.431 77.0767 59.2944 77.49 59.2944 78.05V78.79C59.2944 79.35 59.431 79.7633 59.7044 80.03C59.9777 80.2967 60.3377 80.43 60.7844 80.43ZM64.2805 75.84H64.9905L65.5805 80.3H65.6705L66.5505 75.84H67.4305L68.3105 80.3H68.4005L68.9905 75.84H69.6805L68.8905 81H67.8505L67.0305 76.68H66.9505L66.1105 81H65.0705L64.2805 75.84ZM71.1566 81V75.84H71.9566V76.68H71.9966C72.0499 76.5533 72.1166 76.4333 72.1966 76.32C72.2766 76.2 72.3732 76.0967 72.4866 76.01C72.6066 75.9233 72.7466 75.8533 72.9066 75.8C73.0666 75.7467 73.2532 75.72 73.4666 75.72C74.0066 75.72 74.4399 75.8933 74.7666 76.24C75.0932 76.58 75.2566 77.0633 75.2566 77.69V81H74.4566V77.83C74.4566 77.3567 74.3532 77.0067 74.1466 76.78C73.9399 76.5467 73.6366 76.43 73.2366 76.43C73.0766 76.43 72.9199 76.45 72.7666 76.49C72.6132 76.53 72.4766 76.59 72.3566 76.67C72.2366 76.75 72.1399 76.8533 72.0666 76.98C71.9932 77.1067 71.9566 77.2533 71.9566 77.42V81H71.1566ZM79.4627 81.12C79.0893 81.12 78.7527 81.0567 78.4527 80.93C78.1593 80.8033 77.906 80.6233 77.6927 80.39C77.486 80.15 77.326 79.8667 77.2127 79.54C77.0993 79.2067 77.0427 78.8367 77.0427 78.43C77.0427 78.0167 77.0993 77.6433 77.2127 77.31C77.3327 76.9767 77.496 76.6933 77.7027 76.46C77.9093 76.22 78.156 76.0367 78.4427 75.91C78.736 75.7833 79.0593 75.72 79.4127 75.72C79.7593 75.72 80.0727 75.7833 80.3527 75.91C80.6393 76.0367 80.8827 76.2133 81.0827 76.44C81.2827 76.66 81.436 76.9233 81.5427 77.23C81.6493 77.5367 81.7027 77.8733 81.7027 78.24V78.62H77.8827V78.86C77.8827 79.0867 77.9193 79.2967 77.9927 79.49C78.066 79.6833 78.1693 79.85 78.3027 79.99C78.4427 80.13 78.6093 80.24 78.8027 80.32C79.0027 80.3933 79.2227 80.43 79.4627 80.43C79.8093 80.43 80.1093 80.35 80.3627 80.19C80.616 80.03 80.8093 79.81 80.9427 79.53L81.5327 79.93C81.3793 80.2767 81.1227 80.5633 80.7627 80.79C80.4093 81.01 79.976 81.12 79.4627 81.12ZM79.4127 76.38C79.1927 76.38 78.9893 76.42 78.8027 76.5C78.616 76.58 78.4527 76.69 78.3127 76.83C78.1793 76.97 78.0727 77.1367 77.9927 77.33C77.9193 77.5167 77.8827 77.7233 77.8827 77.95V78.02H80.8427V77.91C80.8427 77.6833 80.806 77.4767 80.7327 77.29C80.666 77.1033 80.5693 76.9433 80.4427 76.81C80.3227 76.67 80.1727 76.5633 79.9927 76.49C79.8193 76.4167 79.626 76.38 79.4127 76.38ZM83.3387 80.32H84.8487V76.52H83.3387V75.84H85.6487V77.14H85.6987C85.8054 76.7333 86.0054 76.4167 86.2987 76.19C86.5987 75.9567 86.9787 75.84 87.4387 75.84H88.1587V76.64H87.1887C86.7287 76.64 86.3554 76.7733 86.0687 77.04C85.7887 77.3067 85.6487 77.6567 85.6487 78.09V80.32H87.6487V81H83.3387V80.32ZM124.695 81C124.382 81 124.159 80.92 124.025 80.76C123.892 80.6 123.809 80.4 123.775 80.16H123.725C123.612 80.46 123.429 80.6967 123.175 80.87C122.929 81.0367 122.595 81.12 122.175 81.12C121.635 81.12 121.205 80.98 120.885 80.7C120.565 80.42 120.405 80.0367 120.405 79.55C120.405 79.07 120.579 78.7 120.925 78.44C121.279 78.18 121.845 78.05 122.625 78.05H123.725V77.54C123.725 77.16 123.619 76.8767 123.405 76.69C123.192 76.4967 122.889 76.4 122.495 76.4C122.149 76.4 121.865 76.47 121.645 76.61C121.425 76.7433 121.249 76.9267 121.115 77.16L120.575 76.76C120.642 76.6267 120.732 76.4967 120.845 76.37C120.959 76.2433 121.099 76.1333 121.265 76.04C121.432 75.94 121.622 75.8633 121.835 75.81C122.049 75.75 122.285 75.72 122.545 75.72C123.152 75.72 123.632 75.8733 123.985 76.18C124.345 76.4867 124.525 76.9133 124.525 77.46V80.3H125.245V81H124.695ZM122.315 80.45C122.522 80.45 122.709 80.4267 122.875 80.38C123.049 80.3267 123.199 80.26 123.325 80.18C123.452 80.0933 123.549 79.9933 123.615 79.88C123.689 79.76 123.725 79.6333 123.725 79.5V78.65H122.625C122.145 78.65 121.795 78.7167 121.575 78.85C121.355 78.9833 121.245 79.1767 121.245 79.43V79.64C121.245 79.9067 121.339 80.11 121.525 80.25C121.719 80.3833 121.982 80.45 122.315 80.45ZM129.121 81.12C128.748 81.12 128.415 81.0567 128.121 80.93C127.835 80.7967 127.591 80.6133 127.391 80.38C127.191 80.1467 127.038 79.8633 126.931 79.53C126.831 79.1967 126.781 78.8267 126.781 78.42C126.781 78.0133 126.835 77.6433 126.941 77.31C127.048 76.9767 127.201 76.6933 127.401 76.46C127.601 76.22 127.845 76.0367 128.131 75.91C128.418 75.7833 128.745 75.72 129.111 75.72C129.611 75.72 130.018 75.83 130.331 76.05C130.645 76.27 130.875 76.5567 131.021 76.91L130.381 77.25C130.288 76.9833 130.131 76.7767 129.911 76.63C129.698 76.4833 129.431 76.41 129.111 76.41C128.878 76.41 128.668 76.45 128.481 76.53C128.301 76.6033 128.148 76.71 128.021 76.85C127.895 76.99 127.798 77.1567 127.731 77.35C127.671 77.5433 127.641 77.7533 127.641 77.98V78.86C127.641 79.0867 127.671 79.2967 127.731 79.49C127.798 79.6833 127.895 79.85 128.021 79.99C128.148 80.13 128.305 80.24 128.491 80.32C128.678 80.3933 128.891 80.43 129.131 80.43C129.478 80.43 129.765 80.35 129.991 80.19C130.218 80.03 130.398 79.81 130.531 79.53L131.101 79.92C130.948 80.2667 130.708 80.5533 130.381 80.78C130.061 81.0067 129.641 81.12 129.121 81.12ZM135.387 81C134.994 81 134.704 80.89 134.517 80.67C134.337 80.45 134.247 80.1667 134.247 79.82V76.52H132.527V75.84H133.807C133.981 75.84 134.101 75.8067 134.167 75.74C134.241 75.6667 134.277 75.5433 134.277 75.37V74.02H135.047V75.84H137.397V76.52H135.047V80.32H137.397V81H135.387ZM141.654 74.7C141.42 74.7 141.257 74.6533 141.164 74.56C141.07 74.46 141.024 74.3367 141.024 74.19V74.03C141.024 73.8833 141.07 73.7633 141.164 73.67C141.257 73.57 141.42 73.52 141.654 73.52C141.887 73.52 142.05 73.57 142.144 73.67C142.237 73.7633 142.284 73.8833 142.284 74.03V74.19C142.284 74.3367 142.237 74.46 142.144 74.56C142.05 74.6533 141.887 74.7 141.654 74.7ZM139.394 80.32H141.254V76.52H139.394V75.84H142.054V80.32H143.794V81H139.394V80.32ZM147.53 81.12C147.17 81.12 146.843 81.0567 146.55 80.93C146.263 80.8033 146.016 80.6233 145.81 80.39C145.61 80.15 145.456 79.8667 145.35 79.54C145.243 79.2067 145.19 78.8333 145.19 78.42C145.19 78.0133 145.243 77.6433 145.35 77.31C145.456 76.9767 145.61 76.6933 145.81 76.46C146.016 76.22 146.263 76.0367 146.55 75.91C146.843 75.7833 147.17 75.72 147.53 75.72C147.89 75.72 148.213 75.7833 148.5 75.91C148.793 76.0367 149.04 76.22 149.24 76.46C149.446 76.6933 149.603 76.9767 149.71 77.31C149.816 77.6433 149.87 78.0133 149.87 78.42C149.87 78.8333 149.816 79.2067 149.71 79.54C149.603 79.8667 149.446 80.15 149.24 80.39C149.04 80.6233 148.793 80.8033 148.5 80.93C148.213 81.0567 147.89 81.12 147.53 81.12ZM147.53 80.43C147.976 80.43 148.336 80.2967 148.61 80.03C148.883 79.7633 149.02 79.35 149.02 78.79V78.05C149.02 77.49 148.883 77.0767 148.61 76.81C148.336 76.5433 147.976 76.41 147.53 76.41C147.083 76.41 146.723 76.5433 146.45 76.81C146.176 77.0767 146.04 77.49 146.04 78.05V78.79C146.04 79.35 146.176 79.7633 146.45 80.03C146.723 80.2967 147.083 80.43 147.53 80.43ZM151.706 81V75.84H152.506V76.68H152.546C152.599 76.5533 152.666 76.4333 152.746 76.32C152.826 76.2 152.922 76.0967 153.036 76.01C153.156 75.9233 153.296 75.8533 153.456 75.8C153.616 75.7467 153.802 75.72 154.016 75.72C154.556 75.72 154.989 75.8933 155.316 76.24C155.642 76.58 155.806 77.0633 155.806 77.69V81H155.006V77.83C155.006 77.3567 154.902 77.0067 154.696 76.78C154.489 76.5467 154.186 76.43 153.786 76.43C153.626 76.43 153.469 76.45 153.316 76.49C153.162 76.53 153.026 76.59 152.906 76.67C152.786 76.75 152.689 76.8533 152.616 76.98C152.542 77.1067 152.506 77.2533 152.506 77.42V81H151.706ZM159.922 81.09C159.649 81.09 159.455 81.0333 159.342 80.92C159.235 80.8067 159.182 80.6633 159.182 80.49V80.31C159.182 80.1367 159.235 79.9933 159.342 79.88C159.455 79.7667 159.649 79.71 159.922 79.71C160.195 79.71 160.385 79.7667 160.492 79.88C160.605 79.9933 160.662 80.1367 160.662 80.31V80.49C160.662 80.6633 160.605 80.8067 160.492 80.92C160.385 81.0333 160.195 81.09 159.922 81.09ZM166.298 81.12C165.925 81.12 165.591 81.0567 165.298 80.93C165.011 80.7967 164.768 80.6133 164.568 80.38C164.368 80.1467 164.215 79.8633 164.108 79.53C164.008 79.1967 163.958 78.8267 163.958 78.42C163.958 78.0133 164.011 77.6433 164.118 77.31C164.225 76.9767 164.378 76.6933 164.578 76.46C164.778 76.22 165.021 76.0367 165.308 75.91C165.595 75.7833 165.921 75.72 166.288 75.72C166.788 75.72 167.195 75.83 167.508 76.05C167.821 76.27 168.051 76.5567 168.198 76.91L167.558 77.25C167.465 76.9833 167.308 76.7767 167.088 76.63C166.875 76.4833 166.608 76.41 166.288 76.41C166.055 76.41 165.845 76.45 165.658 76.53C165.478 76.6033 165.325 76.71 165.198 76.85C165.071 76.99 164.975 77.1567 164.908 77.35C164.848 77.5433 164.818 77.7533 164.818 77.98V78.86C164.818 79.0867 164.848 79.2967 164.908 79.49C164.975 79.6833 165.071 79.85 165.198 79.99C165.325 80.13 165.481 80.24 165.668 80.32C165.855 80.3933 166.068 80.43 166.308 80.43C166.655 80.43 166.941 80.35 167.168 80.19C167.395 80.03 167.575 79.81 167.708 79.53L168.278 79.92C168.125 80.2667 167.885 80.5533 167.558 80.78C167.238 81.0067 166.818 81.12 166.298 81.12ZM174.264 81C173.951 81 173.727 80.92 173.594 80.76C173.461 80.6 173.377 80.4 173.344 80.16H173.294C173.181 80.46 172.997 80.6967 172.744 80.87C172.497 81.0367 172.164 81.12 171.744 81.12C171.204 81.12 170.774 80.98 170.454 80.7C170.134 80.42 169.974 80.0367 169.974 79.55C169.974 79.07 170.147 78.7 170.494 78.44C170.847 78.18 171.414 78.05 172.194 78.05H173.294V77.54C173.294 77.16 173.187 76.8767 172.974 76.69C172.761 76.4967 172.457 76.4 172.064 76.4C171.717 76.4 171.434 76.47 171.214 76.61C170.994 76.7433 170.817 76.9267 170.684 77.16L170.144 76.76C170.211 76.6267 170.301 76.4967 170.414 76.37C170.527 76.2433 170.667 76.1333 170.834 76.04C171.001 75.94 171.191 75.8633 171.404 75.81C171.617 75.75 171.854 75.72 172.114 75.72C172.721 75.72 173.201 75.8733 173.554 76.18C173.914 76.4867 174.094 76.9133 174.094 77.46V80.3H174.814V81H174.264ZM171.884 80.45C172.091 80.45 172.277 80.4267 172.444 80.38C172.617 80.3267 172.767 80.26 172.894 80.18C173.021 80.0933 173.117 79.9933 173.184 79.88C173.257 79.76 173.294 79.6333 173.294 79.5V78.65H172.194C171.714 78.65 171.364 78.7167 171.144 78.85C170.924 78.9833 170.814 79.1767 170.814 79.43V79.64C170.814 79.9067 170.907 80.11 171.094 80.25C171.287 80.3833 171.551 80.45 171.884 80.45ZM176.31 80.32H178.11V74.28H176.31V73.6H178.91V80.32H180.71V81H176.31V80.32ZM182.506 80.32H184.306V74.28H182.506V73.6H185.106V80.32H186.906V81H182.506V80.32ZM190.992 81.12C190.619 81.12 190.282 81.0567 189.982 80.93C189.689 80.8033 189.436 80.6233 189.222 80.39C189.016 80.15 188.856 79.8667 188.742 79.54C188.629 79.2067 188.572 78.8367 188.572 78.43C188.572 78.0167 188.629 77.6433 188.742 77.31C188.862 76.9767 189.026 76.6933 189.232 76.46C189.439 76.22 189.686 76.0367 189.972 75.91C190.266 75.7833 190.589 75.72 190.942 75.72C191.289 75.72 191.602 75.7833 191.882 75.91C192.169 76.0367 192.412 76.2133 192.612 76.44C192.812 76.66 192.966 76.9233 193.072 77.23C193.179 77.5367 193.232 77.8733 193.232 78.24V78.62H189.412V78.86C189.412 79.0867 189.449 79.2967 189.522 79.49C189.596 79.6833 189.699 79.85 189.832 79.99C189.972 80.13 190.139 80.24 190.332 80.32C190.532 80.3933 190.752 80.43 190.992 80.43C191.339 80.43 191.639 80.35 191.892 80.19C192.146 80.03 192.339 79.81 192.472 79.53L193.062 79.93C192.909 80.2767 192.652 80.5633 192.292 80.79C191.939 81.01 191.506 81.12 190.992 81.12ZM190.942 76.38C190.722 76.38 190.519 76.42 190.332 76.5C190.146 76.58 189.982 76.69 189.842 76.83C189.709 76.97 189.602 77.1367 189.522 77.33C189.449 77.5167 189.412 77.7233 189.412 77.95V78.02H192.372V77.91C192.372 77.6833 192.336 77.4767 192.262 77.29C192.196 77.1033 192.099 76.9433 191.972 76.81C191.852 76.67 191.702 76.5633 191.522 76.49C191.349 76.4167 191.156 76.38 190.942 76.38ZM194.868 80.32H196.378V76.52H194.868V75.84H197.178V77.14H197.228C197.335 76.7333 197.535 76.4167 197.828 76.19C198.128 75.9567 198.508 75.84 198.968 75.84H199.688V76.64H198.718C198.258 76.64 197.885 76.7733 197.598 77.04C197.318 77.3067 197.178 77.6567 197.178 78.09V80.32H199.178V81H194.868V80.32Z" fill="#666666"/>
<path d="M95.5809 77.28V76.6H100.341V77.28H95.5809ZM95.5809 79.28V78.6H100.341V79.28H95.5809ZM101.777 77.28V76.6H106.537V77.28H101.777ZM101.777 79.28V78.6H106.537V79.28H101.777ZM107.973 77.28V76.6H112.733V77.28H107.973ZM107.973 79.28V78.6H112.733V79.28H107.973Z" fill="#E3116C"/>
<path d="M49.3422 96.89C49.3422 97.3767 49.2855 97.8467 49.1722 98.3C49.0655 98.7467 48.9155 99.1633 48.7222 99.55C48.5355 99.9367 48.3155 100.287 48.0622 100.6C47.8089 100.913 47.5422 101.173 47.2622 101.38H46.4522C46.7389 101.16 47.0122 100.903 47.2722 100.61C47.5322 100.323 47.7589 100.01 47.9522 99.67C48.1522 99.3233 48.3089 98.9533 48.4222 98.56C48.5355 98.16 48.5922 97.7467 48.5922 97.32V96.46C48.5922 96.0333 48.5355 95.6233 48.4222 95.23C48.3089 94.83 48.1522 94.46 47.9522 94.12C47.7589 93.7733 47.5322 93.4567 47.2722 93.17C47.0122 92.8767 46.7389 92.62 46.4522 92.4H47.2622C47.5422 92.6133 47.8089 92.8767 48.0622 93.19C48.3155 93.4967 48.5355 93.8433 48.7222 94.23C48.9155 94.6167 49.0655 95.0367 49.1722 95.49C49.2855 95.9367 49.3422 96.4033 49.3422 96.89ZM54.1583 98.64H55.4483L54.2983 101.41H53.6283L54.1583 98.64ZM54.5883 96.13C54.3149 96.13 54.1216 96.0733 54.0083 95.96C53.9016 95.8467 53.8483 95.7033 53.8483 95.53V95.35C53.8483 95.1767 53.9016 95.0333 54.0083 94.92C54.1216 94.8067 54.3149 94.75 54.5883 94.75C54.8616 94.75 55.0516 94.8067 55.1583 94.92C55.2716 95.0333 55.3283 95.1767 55.3283 95.35V95.53C55.3283 95.7033 55.2716 95.8467 55.1583 95.96C55.0516 96.0733 54.8616 96.13 54.5883 96.13Z" fill="#666666"/>
<path d="M48.4522 138.12C47.9122 138.12 47.4455 138.03 47.0522 137.85C46.6655 137.663 46.3355 137.417 46.0622 137.11L46.6022 136.64C46.8489 136.9 47.1189 137.1 47.4122 137.24C47.7055 137.38 48.0589 137.45 48.4722 137.45C48.8722 137.45 49.1989 137.38 49.4522 137.24C49.7122 137.093 49.8422 136.867 49.8422 136.56C49.8422 136.427 49.8155 136.317 49.7622 136.23C49.7155 136.137 49.6489 136.063 49.5622 136.01C49.4755 135.957 49.3789 135.917 49.2722 135.89C49.1655 135.857 49.0522 135.83 48.9322 135.81L48.1222 135.69C47.9422 135.663 47.7455 135.627 47.5322 135.58C47.3255 135.533 47.1355 135.46 46.9622 135.36C46.7889 135.253 46.6422 135.113 46.5222 134.94C46.4089 134.767 46.3522 134.54 46.3522 134.26C46.3522 134 46.4022 133.777 46.5022 133.59C46.6089 133.397 46.7555 133.237 46.9422 133.11C47.1289 132.977 47.3489 132.88 47.6022 132.82C47.8555 132.753 48.1322 132.72 48.4322 132.72C48.8989 132.72 49.3022 132.793 49.6422 132.94C49.9889 133.087 50.2855 133.29 50.5322 133.55L50.0122 134.04C49.9522 133.967 49.8755 133.893 49.7822 133.82C49.6955 133.74 49.5855 133.67 49.4522 133.61C49.3255 133.543 49.1755 133.49 49.0022 133.45C48.8289 133.41 48.6289 133.39 48.4022 133.39C47.9955 133.39 47.6822 133.46 47.4622 133.6C47.2489 133.74 47.1422 133.943 47.1422 134.21C47.1422 134.343 47.1655 134.457 47.2122 134.55C47.2655 134.637 47.3355 134.707 47.4222 134.76C47.5089 134.813 47.6055 134.857 47.7122 134.89C47.8255 134.917 47.9389 134.94 48.0522 134.96L48.8622 135.08C49.0489 135.107 49.2455 135.143 49.4522 135.19C49.6589 135.237 49.8489 135.313 50.0222 135.42C50.1955 135.52 50.3389 135.657 50.4522 135.83C50.5722 136.003 50.6322 136.23 50.6322 136.51C50.6322 137.023 50.4322 137.42 50.0322 137.7C49.6389 137.98 49.1122 138.12 48.4522 138.12ZM54.8383 138C54.4449 138 54.1549 137.89 53.9683 137.67C53.7883 137.45 53.6983 137.167 53.6983 136.82V133.52H51.9783V132.84H53.2583C53.4316 132.84 53.5516 132.807 53.6183 132.74C53.6916 132.667 53.7283 132.543 53.7283 132.37V131.02H54.4983V132.84H56.8483V133.52H54.4983V137.32H56.8483V138H54.8383ZM62.7344 138C62.421 138 62.1977 137.92 62.0644 137.76C61.931 137.6 61.8477 137.4 61.8144 137.16H61.7644C61.651 137.46 61.4677 137.697 61.2144 137.87C60.9677 138.037 60.6344 138.12 60.2144 138.12C59.6744 138.12 59.2444 137.98 58.9244 137.7C58.6044 137.42 58.4444 137.037 58.4444 136.55C58.4444 136.07 58.6177 135.7 58.9644 135.44C59.3177 135.18 59.8844 135.05 60.6644 135.05H61.7644V134.54C61.7644 134.16 61.6577 133.877 61.4444 133.69C61.231 133.497 60.9277 133.4 60.5344 133.4C60.1877 133.4 59.9044 133.47 59.6844 133.61C59.4644 133.743 59.2877 133.927 59.1544 134.16L58.6144 133.76C58.681 133.627 58.771 133.497 58.8844 133.37C58.9977 133.243 59.1377 133.133 59.3044 133.04C59.471 132.94 59.661 132.863 59.8744 132.81C60.0877 132.75 60.3244 132.72 60.5844 132.72C61.191 132.72 61.671 132.873 62.0244 133.18C62.3844 133.487 62.5644 133.913 62.5644 134.46V137.3H63.2844V138H62.7344ZM60.3544 137.45C60.561 137.45 60.7477 137.427 60.9144 137.38C61.0877 137.327 61.2377 137.26 61.3644 137.18C61.491 137.093 61.5877 136.993 61.6544 136.88C61.7277 136.76 61.7644 136.633 61.7644 136.5V135.65H60.6644C60.1844 135.65 59.8344 135.717 59.6144 135.85C59.3944 135.983 59.2844 136.177 59.2844 136.43V136.64C59.2844 136.907 59.3777 137.11 59.5644 137.25C59.7577 137.383 60.021 137.45 60.3544 137.45ZM67.2305 138C66.8371 138 66.5471 137.89 66.3605 137.67C66.1805 137.45 66.0905 137.167 66.0905 136.82V133.52H64.3705V132.84H65.6505C65.8238 132.84 65.9438 132.807 66.0105 132.74C66.0838 132.667 66.1205 132.543 66.1205 132.37V131.02H66.8905V132.84H69.2405V133.52H66.8905V137.32H69.2405V138H67.2305ZM73.2666 138.12C72.8932 138.12 72.5566 138.057 72.2566 137.93C71.9632 137.803 71.7099 137.623 71.4966 137.39C71.2899 137.15 71.1299 136.867 71.0166 136.54C70.9032 136.207 70.8466 135.837 70.8466 135.43C70.8466 135.017 70.9032 134.643 71.0166 134.31C71.1366 133.977 71.2999 133.693 71.5066 133.46C71.7132 133.22 71.9599 133.037 72.2466 132.91C72.5399 132.783 72.8632 132.72 73.2166 132.72C73.5632 132.72 73.8766 132.783 74.1566 132.91C74.4432 133.037 74.6866 133.213 74.8866 133.44C75.0866 133.66 75.2399 133.923 75.3466 134.23C75.4532 134.537 75.5066 134.873 75.5066 135.24V135.62H71.6866V135.86C71.6866 136.087 71.7232 136.297 71.7966 136.49C71.8699 136.683 71.9732 136.85 72.1066 136.99C72.2466 137.13 72.4132 137.24 72.6066 137.32C72.8066 137.393 73.0266 137.43 73.2666 137.43C73.6132 137.43 73.9132 137.35 74.1666 137.19C74.4199 137.03 74.6132 136.81 74.7466 136.53L75.3366 136.93C75.1832 137.277 74.9266 137.563 74.5666 137.79C74.2132 138.01 73.7799 138.12 73.2666 138.12ZM73.2166 133.38C72.9966 133.38 72.7932 133.42 72.6066 133.5C72.4199 133.58 72.2566 133.69 72.1166 133.83C71.9832 133.97 71.8766 134.137 71.7966 134.33C71.7232 134.517 71.6866 134.723 71.6866 134.95V135.02H74.6466V134.91C74.6466 134.683 74.6099 134.477 74.5366 134.29C74.4699 134.103 74.3732 133.943 74.2466 133.81C74.1266 133.67 73.9766 133.563 73.7966 133.49C73.6232 133.417 73.4299 133.38 73.2166 133.38ZM79.3727 138.09C79.0993 138.09 78.906 138.033 78.7927 137.92C78.686 137.807 78.6327 137.663 78.6327 137.49V137.31C78.6327 137.137 78.686 136.993 78.7927 136.88C78.906 136.767 79.0993 136.71 79.3727 136.71C79.646 136.71 79.836 136.767 79.9427 136.88C80.056 136.993 80.1127 137.137 80.1127 137.31V137.49C80.1127 137.663 80.056 137.807 79.9427 137.92C79.836 138.033 79.646 138.09 79.3727 138.09ZM83.3687 137.32H85.1687V131.28H83.3687V130.6H85.9687V137.32H87.7687V138H83.3687V137.32ZM93.7148 138C93.4015 138 93.1782 137.92 93.0448 137.76C92.9115 137.6 92.8282 137.4 92.7948 137.16H92.7448C92.6315 137.46 92.4482 137.697 92.1948 137.87C91.9482 138.037 91.6148 138.12 91.1948 138.12C90.6548 138.12 90.2248 137.98 89.9048 137.7C89.5848 137.42 89.4248 137.037 89.4248 136.55C89.4248 136.07 89.5982 135.7 89.9448 135.44C90.2982 135.18 90.8648 135.05 91.6448 135.05H92.7448V134.54C92.7448 134.16 92.6382 133.877 92.4248 133.69C92.2115 133.497 91.9082 133.4 91.5148 133.4C91.1682 133.4 90.8848 133.47 90.6648 133.61C90.4448 133.743 90.2682 133.927 90.1348 134.16L89.5948 133.76C89.6615 133.627 89.7515 133.497 89.8648 133.37C89.9782 133.243 90.1182 133.133 90.2848 133.04C90.4515 132.94 90.6415 132.863 90.8548 132.81C91.0682 132.75 91.3048 132.72 91.5648 132.72C92.1715 132.72 92.6515 132.873 93.0048 133.18C93.3648 133.487 93.5448 133.913 93.5448 134.46V137.3H94.2648V138H93.7148ZM91.3348 137.45C91.5415 137.45 91.7282 137.427 91.8948 137.38C92.0682 137.327 92.2182 137.26 92.3448 137.18C92.4715 137.093 92.5682 136.993 92.6348 136.88C92.7082 136.76 92.7448 136.633 92.7448 136.5V135.65H91.6448C91.1648 135.65 90.8148 135.717 90.5948 135.85C90.3748 135.983 90.2648 136.177 90.2648 136.43V136.64C90.2648 136.907 90.3582 137.11 90.5448 137.25C90.7382 137.383 91.0015 137.45 91.3348 137.45ZM98.0209 138.12C97.4809 138.12 97.0143 138.03 96.6209 137.85C96.2343 137.663 95.9043 137.417 95.6309 137.11L96.1709 136.64C96.4176 136.9 96.6876 137.1 96.9809 137.24C97.2743 137.38 97.6276 137.45 98.0409 137.45C98.4409 137.45 98.7676 137.38 99.0209 137.24C99.2809 137.093 99.4109 136.867 99.4109 136.56C99.4109 136.427 99.3843 136.317 99.3309 136.23C99.2843 136.137 99.2176 136.063 99.1309 136.01C99.0443 135.957 98.9476 135.917 98.8409 135.89C98.7343 135.857 98.6209 135.83 98.5009 135.81L97.6909 135.69C97.5109 135.663 97.3143 135.627 97.1009 135.58C96.8943 135.533 96.7043 135.46 96.5309 135.36C96.3576 135.253 96.2109 135.113 96.0909 134.94C95.9776 134.767 95.9209 134.54 95.9209 134.26C95.9209 134 95.9709 133.777 96.0709 133.59C96.1776 133.397 96.3243 133.237 96.5109 133.11C96.6976 132.977 96.9176 132.88 97.1709 132.82C97.4243 132.753 97.7009 132.72 98.0009 132.72C98.4676 132.72 98.8709 132.793 99.2109 132.94C99.5576 133.087 99.8543 133.29 100.101 133.55L99.5809 134.04C99.5209 133.967 99.4443 133.893 99.3509 133.82C99.2643 133.74 99.1543 133.67 99.0209 133.61C98.8943 133.543 98.7443 133.49 98.5709 133.45C98.3976 133.41 98.1976 133.39 97.9709 133.39C97.5643 133.39 97.2509 133.46 97.0309 133.6C96.8176 133.74 96.7109 133.943 96.7109 134.21C96.7109 134.343 96.7343 134.457 96.7809 134.55C96.8343 134.637 96.9043 134.707 96.9909 134.76C97.0776 134.813 97.1743 134.857 97.2809 134.89C97.3943 134.917 97.5076 134.94 97.6209 134.96L98.4309 135.08C98.6176 135.107 98.8143 135.143 99.0209 135.19C99.2276 135.237 99.4176 135.313 99.5909 135.42C99.7643 135.52 99.9076 135.657 100.021 135.83C100.141 136.003 100.201 136.23 100.201 136.51C100.201 137.023 100.001 137.42 99.6009 137.7C99.2076 137.98 98.6809 138.12 98.0209 138.12ZM104.407 138C104.014 138 103.724 137.89 103.537 137.67C103.357 137.45 103.267 137.167 103.267 136.82V133.52H101.547V132.84H102.827C103 132.84 103.12 132.807 103.187 132.74C103.26 132.667 103.297 132.543 103.297 132.37V131.02H104.067V132.84H106.417V133.52H104.067V137.32H106.417V138H104.407ZM110.773 131.75V138H109.933V131.75H107.603V131.02H113.103V131.75H110.773ZM114.159 138L116.079 135.38L114.209 132.84H115.169L115.949 133.93L116.569 134.79H116.609L117.209 133.93L117.979 132.84H118.899L117.009 135.37L118.949 138H117.989L117.119 136.79L116.529 135.97H116.489L115.919 136.79L115.079 138H114.159ZM126.561 134.28V133.6H131.321V134.28H126.561ZM126.561 136.28V135.6H131.321V136.28H126.561ZM141.314 138.12C140.687 138.12 140.174 138.007 139.774 137.78C139.374 137.547 139.044 137.25 138.784 136.89L139.394 136.39C139.667 136.73 139.954 136.983 140.254 137.15C140.56 137.317 140.924 137.4 141.344 137.4C141.85 137.4 142.237 137.283 142.504 137.05C142.77 136.817 142.904 136.49 142.904 136.07C142.904 135.73 142.807 135.467 142.614 135.28C142.42 135.087 142.084 134.95 141.604 134.87L140.824 134.74C140.484 134.68 140.197 134.59 139.964 134.47C139.737 134.35 139.554 134.207 139.414 134.04C139.274 133.867 139.174 133.68 139.114 133.48C139.054 133.273 139.024 133.06 139.024 132.84C139.024 132.2 139.234 131.717 139.654 131.39C140.074 131.063 140.64 130.9 141.354 130.9C141.914 130.9 142.384 130.993 142.764 131.18C143.15 131.367 143.46 131.63 143.694 131.97L143.104 132.48C142.91 132.227 142.677 132.02 142.404 131.86C142.13 131.7 141.777 131.62 141.344 131.62C140.87 131.62 140.507 131.72 140.254 131.92C140 132.12 139.874 132.42 139.874 132.82C139.874 133.133 139.967 133.39 140.154 133.59C140.347 133.783 140.69 133.923 141.184 134.01L141.934 134.14C142.274 134.2 142.56 134.29 142.794 134.41C143.027 134.53 143.214 134.673 143.354 134.84C143.5 135.007 143.604 135.193 143.664 135.4C143.724 135.607 143.754 135.823 143.754 136.05C143.754 136.697 143.54 137.203 143.114 137.57C142.694 137.937 142.094 138.12 141.314 138.12ZM145.07 138V132.84H145.81V133.44H145.85C145.93 133.24 146.043 133.07 146.19 132.93C146.336 132.79 146.553 132.72 146.84 132.72C147.14 132.72 147.363 132.797 147.51 132.95C147.656 133.097 147.746 133.29 147.78 133.53H147.81C147.903 133.297 148.036 133.103 148.21 132.95C148.383 132.797 148.623 132.72 148.93 132.72C149.35 132.72 149.63 132.867 149.77 133.16C149.916 133.453 149.99 133.873 149.99 134.42V138H149.25V134.55C149.25 134.11 149.203 133.807 149.11 133.64C149.023 133.467 148.86 133.38 148.62 133.38C148.406 133.38 148.233 133.45 148.1 133.59C147.966 133.723 147.9 133.93 147.9 134.21V138H147.16V134.55C147.16 134.11 147.113 133.807 147.02 133.64C146.933 133.467 146.773 133.38 146.54 133.38C146.326 133.38 146.15 133.45 146.01 133.59C145.876 133.723 145.81 133.93 145.81 134.21V138H145.07ZM155.676 138C155.362 138 155.139 137.92 155.006 137.76C154.872 137.6 154.789 137.4 154.756 137.16H154.706C154.592 137.46 154.409 137.697 154.156 137.87C153.909 138.037 153.576 138.12 153.156 138.12C152.616 138.12 152.186 137.98 151.866 137.7C151.546 137.42 151.386 137.037 151.386 136.55C151.386 136.07 151.559 135.7 151.906 135.44C152.259 135.18 152.826 135.05 153.606 135.05H154.706V134.54C154.706 134.16 154.599 133.877 154.386 133.69C154.172 133.497 153.869 133.4 153.476 133.4C153.129 133.4 152.846 133.47 152.626 133.61C152.406 133.743 152.229 133.927 152.096 134.16L151.556 133.76C151.622 133.627 151.712 133.497 151.826 133.37C151.939 133.243 152.079 133.133 152.246 133.04C152.412 132.94 152.602 132.863 152.816 132.81C153.029 132.75 153.266 132.72 153.526 132.72C154.132 132.72 154.612 132.873 154.966 133.18C155.326 133.487 155.506 133.913 155.506 134.46V137.3H156.226V138H155.676ZM153.296 137.45C153.502 137.45 153.689 137.427 153.856 137.38C154.029 137.327 154.179 137.26 154.306 137.18C154.432 137.093 154.529 136.993 154.596 136.88C154.669 136.76 154.706 136.633 154.706 136.5V135.65H153.606C153.126 135.65 152.776 135.717 152.556 135.85C152.336 135.983 152.226 136.177 152.226 136.43V136.64C152.226 136.907 152.319 137.11 152.506 137.25C152.699 137.383 152.962 137.45 153.296 137.45ZM157.692 137.32H159.202V133.52H157.692V132.84H160.002V134.14H160.052C160.159 133.733 160.359 133.417 160.652 133.19C160.952 132.957 161.332 132.84 161.792 132.84H162.512V133.64H161.542C161.082 133.64 160.709 133.773 160.422 134.04C160.142 134.307 160.002 134.657 160.002 135.09V137.32H162.002V138H157.692V137.32ZM166.368 138C165.975 138 165.685 137.89 165.498 137.67C165.318 137.45 165.228 137.167 165.228 136.82V133.52H163.508V132.84H164.788C164.961 132.84 165.081 132.807 165.148 132.74C165.221 132.667 165.258 132.543 165.258 132.37V131.02H166.028V132.84H168.378V133.52H166.028V137.32H168.378V138H166.368ZM170.214 138L169.664 131.02H170.414L170.704 135.02L170.854 137.13H170.934L171.854 132.84H172.794L173.714 137.13H173.794L173.944 135.02L174.234 131.02H174.964L174.414 138H173.204L172.354 133.83H172.274L171.424 138H170.214ZM178.6 138.12C178.227 138.12 177.89 138.057 177.59 137.93C177.297 137.803 177.043 137.623 176.83 137.39C176.623 137.15 176.463 136.867 176.35 136.54C176.237 136.207 176.18 135.837 176.18 135.43C176.18 135.017 176.237 134.643 176.35 134.31C176.47 133.977 176.633 133.693 176.84 133.46C177.047 133.22 177.293 133.037 177.58 132.91C177.873 132.783 178.197 132.72 178.55 132.72C178.897 132.72 179.21 132.783 179.49 132.91C179.777 133.037 180.02 133.213 180.22 133.44C180.42 133.66 180.573 133.923 180.68 134.23C180.787 134.537 180.84 134.873 180.84 135.24V135.62H177.02V135.86C177.02 136.087 177.057 136.297 177.13 136.49C177.203 136.683 177.307 136.85 177.44 136.99C177.58 137.13 177.747 137.24 177.94 137.32C178.14 137.393 178.36 137.43 178.6 137.43C178.947 137.43 179.247 137.35 179.5 137.19C179.753 137.03 179.947 136.81 180.08 136.53L180.67 136.93C180.517 137.277 180.26 137.563 179.9 137.79C179.547 138.01 179.113 138.12 178.6 138.12ZM178.55 133.38C178.33 133.38 178.127 133.42 177.94 133.5C177.753 133.58 177.59 133.69 177.45 133.83C177.317 133.97 177.21 134.137 177.13 134.33C177.057 134.517 177.02 134.723 177.02 134.95V135.02H179.98V134.91C179.98 134.683 179.943 134.477 179.87 134.29C179.803 134.103 179.707 133.943 179.58 133.81C179.46 133.67 179.31 133.563 179.13 133.49C178.957 133.417 178.763 133.38 178.55 133.38ZM186.656 138C186.343 138 186.12 137.92 185.986 137.76C185.853 137.6 185.77 137.4 185.736 137.16H185.686C185.573 137.46 185.39 137.697 185.136 137.87C184.89 138.037 184.556 138.12 184.136 138.12C183.596 138.12 183.166 137.98 182.846 137.7C182.526 137.42 182.366 137.037 182.366 136.55C182.366 136.07 182.54 135.7 182.886 135.44C183.24 135.18 183.806 135.05 184.586 135.05H185.686V134.54C185.686 134.16 185.58 133.877 185.366 133.69C185.153 133.497 184.85 133.4 184.456 133.4C184.11 133.4 183.826 133.47 183.606 133.61C183.386 133.743 183.21 133.927 183.076 134.16L182.536 133.76C182.603 133.627 182.693 133.497 182.806 133.37C182.92 133.243 183.06 133.133 183.226 133.04C183.393 132.94 183.583 132.863 183.796 132.81C184.01 132.75 184.246 132.72 184.506 132.72C185.113 132.72 185.593 132.873 185.946 133.18C186.306 133.487 186.486 133.913 186.486 134.46V137.3H187.206V138H186.656ZM184.276 137.45C184.483 137.45 184.67 137.427 184.836 137.38C185.01 137.327 185.16 137.26 185.286 137.18C185.413 137.093 185.51 136.993 185.576 136.88C185.65 136.76 185.686 136.633 185.686 136.5V135.65H184.586C184.106 135.65 183.756 135.717 183.536 135.85C183.316 135.983 183.206 136.177 183.206 136.43V136.64C183.206 136.907 183.3 137.11 183.486 137.25C183.68 137.383 183.943 137.45 184.276 137.45ZM190.392 138L188.542 132.84H189.352L190.092 135L190.892 137.33H190.932L191.732 135L192.472 132.84H193.262L191.412 138H190.392ZM197.188 138.12C196.815 138.12 196.478 138.057 196.178 137.93C195.885 137.803 195.632 137.623 195.418 137.39C195.212 137.15 195.052 136.867 194.938 136.54C194.825 136.207 194.768 135.837 194.768 135.43C194.768 135.017 194.825 134.643 194.938 134.31C195.058 133.977 195.222 133.693 195.428 133.46C195.635 133.22 195.882 133.037 196.168 132.91C196.462 132.783 196.785 132.72 197.138 132.72C197.485 132.72 197.798 132.783 198.078 132.91C198.365 133.037 198.608 133.213 198.808 133.44C199.008 133.66 199.162 133.923 199.268 134.23C199.375 134.537 199.428 134.873 199.428 135.24V135.62H195.608V135.86C195.608 136.087 195.645 136.297 195.718 136.49C195.792 136.683 195.895 136.85 196.028 136.99C196.168 137.13 196.335 137.24 196.528 137.32C196.728 137.393 196.948 137.43 197.188 137.43C197.535 137.43 197.835 137.35 198.088 137.19C198.342 137.03 198.535 136.81 198.668 136.53L199.258 136.93C199.105 137.277 198.848 137.563 198.488 137.79C198.135 138.01 197.702 138.12 197.188 138.12ZM197.138 133.38C196.918 133.38 196.715 133.42 196.528 133.5C196.342 133.58 196.178 133.69 196.038 133.83C195.905 133.97 195.798 134.137 195.718 134.33C195.645 134.517 195.608 134.723 195.608 134.95V135.02H198.568V134.91C198.568 134.683 198.532 134.477 198.458 134.29C198.392 134.103 198.295 133.943 198.168 133.81C198.048 133.67 197.898 133.563 197.718 133.49C197.545 133.417 197.352 133.38 197.138 133.38ZM203.295 138.09C203.021 138.09 202.828 138.033 202.715 137.92C202.608 137.807 202.555 137.663 202.555 137.49V137.31C202.555 137.137 202.608 136.993 202.715 136.88C202.828 136.767 203.021 136.71 203.295 136.71C203.568 136.71 203.758 136.767 203.865 136.88C203.978 136.993 204.035 137.137 204.035 137.31V137.49C204.035 137.663 203.978 137.807 203.865 137.92C203.758 138.033 203.568 138.09 203.295 138.09ZM209.741 138C209.347 138 209.057 137.89 208.871 137.67C208.691 137.45 208.601 137.167 208.601 136.82V133.52H206.881V132.84H208.161C208.334 132.84 208.454 132.807 208.521 132.74C208.594 132.667 208.631 132.543 208.631 132.37V131.02H209.401V132.84H211.751V133.52H209.401V137.32H211.751V138H209.741ZM213.457 137.32H214.967V133.52H213.457V132.84H215.767V134.14H215.817C215.923 133.733 216.123 133.417 216.417 133.19C216.717 132.957 217.097 132.84 217.557 132.84H218.277V133.64H217.307C216.847 133.64 216.473 133.773 216.187 134.04C215.907 134.307 215.767 134.657 215.767 135.09V137.32H217.767V138H213.457V137.32ZM223.833 138C223.519 138 223.296 137.92 223.163 137.76C223.029 137.6 222.946 137.4 222.913 137.16H222.863C222.749 137.46 222.566 137.697 222.313 137.87C222.066 138.037 221.733 138.12 221.313 138.12C220.773 138.12 220.343 137.98 220.023 137.7C219.703 137.42 219.543 137.037 219.543 136.55C219.543 136.07 219.716 135.7 220.063 135.44C220.416 135.18 220.983 135.05 221.763 135.05H222.863V134.54C222.863 134.16 222.756 133.877 222.543 133.69C222.329 133.497 222.026 133.4 221.633 133.4C221.286 133.4 221.003 133.47 220.783 133.61C220.563 133.743 220.386 133.927 220.253 134.16L219.713 133.76C219.779 133.627 219.869 133.497 219.983 133.37C220.096 133.243 220.236 133.133 220.403 133.04C220.569 132.94 220.759 132.863 220.973 132.81C221.186 132.75 221.423 132.72 221.683 132.72C222.289 132.72 222.769 132.873 223.123 133.18C223.483 133.487 223.663 133.913 223.663 134.46V137.3H224.383V138H223.833ZM221.453 137.45C221.659 137.45 221.846 137.427 222.013 137.38C222.186 137.327 222.336 137.26 222.463 137.18C222.589 137.093 222.686 136.993 222.753 136.88C222.826 136.76 222.863 136.633 222.863 136.5V135.65H221.763C221.283 135.65 220.933 135.717 220.713 135.85C220.493 135.983 220.383 136.177 220.383 136.43V136.64C220.383 136.907 220.476 137.11 220.663 137.25C220.856 137.383 221.119 137.45 221.453 137.45ZM226.059 138V132.84H226.859V133.68H226.899C226.952 133.553 227.019 133.433 227.099 133.32C227.179 133.2 227.276 133.097 227.389 133.01C227.509 132.923 227.649 132.853 227.809 132.8C227.969 132.747 228.156 132.72 228.369 132.72C228.909 132.72 229.342 132.893 229.669 133.24C229.996 133.58 230.159 134.063 230.159 134.69V138H229.359V134.83C229.359 134.357 229.256 134.007 229.049 133.78C228.842 133.547 228.539 133.43 228.139 133.43C227.979 133.43 227.822 133.45 227.669 133.49C227.516 133.53 227.379 133.59 227.259 133.67C227.139 133.75 227.042 133.853 226.969 133.98C226.896 134.107 226.859 134.253 226.859 134.42V138H226.059ZM234.335 138.12C233.795 138.12 233.328 138.03 232.935 137.85C232.548 137.663 232.218 137.417 231.945 137.11L232.485 136.64C232.732 136.9 233.002 137.1 233.295 137.24C233.588 137.38 233.942 137.45 234.355 137.45C234.755 137.45 235.082 137.38 235.335 137.24C235.595 137.093 235.725 136.867 235.725 136.56C235.725 136.427 235.698 136.317 235.645 136.23C235.598 136.137 235.532 136.063 235.445 136.01C235.358 135.957 235.262 135.917 235.155 135.89C235.048 135.857 234.935 135.83 234.815 135.81L234.005 135.69C233.825 135.663 233.628 135.627 233.415 135.58C233.208 135.533 233.018 135.46 232.845 135.36C232.672 135.253 232.525 135.113 232.405 134.94C232.292 134.767 232.235 134.54 232.235 134.26C232.235 134 232.285 133.777 232.385 133.59C232.492 133.397 232.638 133.237 232.825 133.11C233.012 132.977 233.232 132.88 233.485 132.82C233.738 132.753 234.015 132.72 234.315 132.72C234.782 132.72 235.185 132.793 235.525 132.94C235.872 133.087 236.168 133.29 236.415 133.55L235.895 134.04C235.835 133.967 235.758 133.893 235.665 133.82C235.578 133.74 235.468 133.67 235.335 133.61C235.208 133.543 235.058 133.49 234.885 133.45C234.712 133.41 234.512 133.39 234.285 133.39C233.878 133.39 233.565 133.46 233.345 133.6C233.132 133.74 233.025 133.943 233.025 134.21C233.025 134.343 233.048 134.457 233.095 134.55C233.148 134.637 233.218 134.707 233.305 134.76C233.392 134.813 233.488 134.857 233.595 134.89C233.708 134.917 233.822 134.94 233.935 134.96L234.745 135.08C234.932 135.107 235.128 135.143 235.335 135.19C235.542 135.237 235.732 135.313 235.905 135.42C236.078 135.52 236.222 135.657 236.335 135.83C236.455 136.003 236.515 136.23 236.515 136.51C236.515 137.023 236.315 137.42 235.915 137.7C235.522 137.98 234.995 138.12 234.335 138.12ZM242.421 138C242.108 138 241.884 137.92 241.751 137.76C241.618 137.6 241.534 137.4 241.501 137.16H241.451C241.338 137.46 241.154 137.697 240.901 137.87C240.654 138.037 240.321 138.12 239.901 138.12C239.361 138.12 238.931 137.98 238.611 137.7C238.291 137.42 238.131 137.037 238.131 136.55C238.131 136.07 238.304 135.7 238.651 135.44C239.004 135.18 239.571 135.05 240.351 135.05H241.451V134.54C241.451 134.16 241.344 133.877 241.131 133.69C240.918 133.497 240.614 133.4 240.221 133.4C239.874 133.4 239.591 133.47 239.371 133.61C239.151 133.743 238.974 133.927 238.841 134.16L238.301 133.76C238.368 133.627 238.458 133.497 238.571 133.37C238.684 133.243 238.824 133.133 238.991 133.04C239.158 132.94 239.348 132.863 239.561 132.81C239.774 132.75 240.011 132.72 240.271 132.72C240.878 132.72 241.358 132.873 241.711 133.18C242.071 133.487 242.251 133.913 242.251 134.46V137.3H242.971V138H242.421ZM240.041 137.45C240.248 137.45 240.434 137.427 240.601 137.38C240.774 137.327 240.924 137.26 241.051 137.18C241.178 137.093 241.274 136.993 241.341 136.88C241.414 136.76 241.451 136.633 241.451 136.5V135.65H240.351C239.871 135.65 239.521 135.717 239.301 135.85C239.081 135.983 238.971 136.177 238.971 136.43V136.64C238.971 136.907 239.064 137.11 239.251 137.25C239.444 137.383 239.708 137.45 240.041 137.45ZM246.847 138.12C246.474 138.12 246.141 138.057 245.847 137.93C245.561 137.797 245.317 137.613 245.117 137.38C244.917 137.147 244.764 136.863 244.657 136.53C244.557 136.197 244.507 135.827 244.507 135.42C244.507 135.013 244.561 134.643 244.667 134.31C244.774 133.977 244.927 133.693 245.127 133.46C245.327 133.22 245.571 133.037 245.857 132.91C246.144 132.783 246.471 132.72 246.837 132.72C247.337 132.72 247.744 132.83 248.057 133.05C248.371 133.27 248.601 133.557 248.747 133.91L248.107 134.25C248.014 133.983 247.857 133.777 247.637 133.63C247.424 133.483 247.157 133.41 246.837 133.41C246.604 133.41 246.394 133.45 246.207 133.53C246.027 133.603 245.874 133.71 245.747 133.85C245.621 133.99 245.524 134.157 245.457 134.35C245.397 134.543 245.367 134.753 245.367 134.98V135.86C245.367 136.087 245.397 136.297 245.457 136.49C245.524 136.683 245.621 136.85 245.747 136.99C245.874 137.13 246.031 137.24 246.217 137.32C246.404 137.393 246.617 137.43 246.857 137.43C247.204 137.43 247.491 137.35 247.717 137.19C247.944 137.03 248.124 136.81 248.257 136.53L248.827 136.92C248.674 137.267 248.434 137.553 248.107 137.78C247.787 138.007 247.367 138.12 246.847 138.12ZM253.113 138C252.72 138 252.43 137.89 252.243 137.67C252.063 137.45 251.973 137.167 251.973 136.82V133.52H250.253V132.84H251.533C251.707 132.84 251.827 132.807 251.893 132.74C251.967 132.667 252.003 132.543 252.003 132.37V131.02H252.773V132.84H255.123V133.52H252.773V137.32H255.123V138H253.113ZM259.379 131.7C259.146 131.7 258.983 131.653 258.889 131.56C258.796 131.46 258.749 131.337 258.749 131.19V131.03C258.749 130.883 258.796 130.763 258.889 130.67C258.983 130.57 259.146 130.52 259.379 130.52C259.613 130.52 259.776 130.57 259.869 130.67C259.963 130.763 260.009 130.883 260.009 131.03V131.19C260.009 131.337 259.963 131.46 259.869 131.56C259.776 131.653 259.613 131.7 259.379 131.7ZM257.119 137.32H258.979V133.52H257.119V132.84H259.779V137.32H261.519V138H257.119V137.32ZM265.255 138.12C264.895 138.12 264.569 138.057 264.275 137.93C263.989 137.803 263.742 137.623 263.535 137.39C263.335 137.15 263.182 136.867 263.075 136.54C262.969 136.207 262.915 135.833 262.915 135.42C262.915 135.013 262.969 134.643 263.075 134.31C263.182 133.977 263.335 133.693 263.535 133.46C263.742 133.22 263.989 133.037 264.275 132.91C264.569 132.783 264.895 132.72 265.255 132.72C265.615 132.72 265.939 132.783 266.225 132.91C266.519 133.037 266.765 133.22 266.965 133.46C267.172 133.693 267.329 133.977 267.435 134.31C267.542 134.643 267.595 135.013 267.595 135.42C267.595 135.833 267.542 136.207 267.435 136.54C267.329 136.867 267.172 137.15 266.965 137.39C266.765 137.623 266.519 137.803 266.225 137.93C265.939 138.057 265.615 138.12 265.255 138.12ZM265.255 137.43C265.702 137.43 266.062 137.297 266.335 137.03C266.609 136.763 266.745 136.35 266.745 135.79V135.05C266.745 134.49 266.609 134.077 266.335 133.81C266.062 133.543 265.702 133.41 265.255 133.41C264.809 133.41 264.449 133.543 264.175 133.81C263.902 134.077 263.765 134.49 263.765 135.05V135.79C263.765 136.35 263.902 136.763 264.175 137.03C264.449 137.297 264.809 137.43 265.255 137.43ZM269.432 138V132.84H270.232V133.68H270.272C270.325 133.553 270.392 133.433 270.472 133.32C270.552 133.2 270.648 133.097 270.762 133.01C270.882 132.923 271.022 132.853 271.182 132.8C271.342 132.747 271.528 132.72 271.742 132.72C272.282 132.72 272.715 132.893 273.042 133.24C273.368 133.58 273.532 134.063 273.532 134.69V138H272.732V134.83C272.732 134.357 272.628 134.007 272.422 133.78C272.215 133.547 271.912 133.43 271.512 133.43C271.352 133.43 271.195 133.45 271.042 133.49C270.888 133.53 270.752 133.59 270.632 133.67C270.512 133.75 270.415 133.853 270.342 133.98C270.268 134.107 270.232 134.253 270.232 134.42V138H269.432ZM277.648 138.09C277.374 138.09 277.181 138.033 277.068 137.92C276.961 137.807 276.908 137.663 276.908 137.49V137.31C276.908 137.137 276.961 136.993 277.068 136.88C277.181 136.767 277.374 136.71 277.648 136.71C277.921 136.71 278.111 136.767 278.218 136.88C278.331 136.993 278.388 137.137 278.388 137.31V137.49C278.388 137.663 278.331 137.807 278.218 137.92C278.111 138.033 277.921 138.09 277.648 138.09ZM284.164 131.7C283.93 131.7 283.767 131.653 283.674 131.56C283.58 131.46 283.534 131.337 283.534 131.19V131.03C283.534 130.883 283.58 130.763 283.674 130.67C283.767 130.57 283.93 130.52 284.164 130.52C284.397 130.52 284.56 130.57 284.654 130.67C284.747 130.763 284.794 130.883 284.794 131.03V131.19C284.794 131.337 284.747 131.46 284.654 131.56C284.56 131.653 284.397 131.7 284.164 131.7ZM281.904 137.32H283.764V133.52H281.904V132.84H284.564V137.32H286.304V138H281.904V137.32ZM291.29 137.16H291.25C290.917 137.8 290.387 138.12 289.66 138.12C289.027 138.12 288.53 137.883 288.17 137.41C287.817 136.937 287.64 136.273 287.64 135.42C287.64 134.567 287.817 133.903 288.17 133.43C288.53 132.957 289.027 132.72 289.66 132.72C290.387 132.72 290.917 133.04 291.25 133.68H291.29V130.6H292.09V138H291.29V137.16ZM289.97 137.41C290.15 137.41 290.32 137.387 290.48 137.34C290.64 137.293 290.78 137.227 290.9 137.14C291.02 137.047 291.113 136.937 291.18 136.81C291.253 136.677 291.29 136.523 291.29 136.35V134.49C291.29 134.317 291.253 134.167 291.18 134.04C291.113 133.907 291.02 133.797 290.9 133.71C290.78 133.617 290.64 133.547 290.48 133.5C290.32 133.453 290.15 133.43 289.97 133.43C289.503 133.43 289.14 133.573 288.88 133.86C288.627 134.14 288.5 134.513 288.5 134.98V135.86C288.5 136.327 288.627 136.703 288.88 136.99C289.14 137.27 289.503 137.41 289.97 137.41ZM295.806 136.64H297.096L295.946 139.41H295.276L295.806 136.64ZM296.236 134.13C295.963 134.13 295.769 134.073 295.656 133.96C295.549 133.847 295.496 133.703 295.496 133.53V133.35C295.496 133.177 295.549 133.033 295.656 132.92C295.769 132.807 295.963 132.75 296.236 132.75C296.509 132.75 296.699 132.807 296.806 132.92C296.919 133.033 296.976 133.177 296.976 133.35V133.53C296.976 133.703 296.919 133.847 296.806 133.96C296.699 134.073 296.509 134.13 296.236 134.13Z" fill="#666666"/>
<path fill-rule="evenodd" clip-rule="evenodd" d="M57 27C60.3137 27 63 24.3137 63 21C63 17.6863 60.3137 15 57 15C53.6863 15 51 17.6863 51 21C51 24.3137 53.6863 27 57 27Z" fill="#38C149"/>
<path d="M62.75 21C62.75 24.1756 60.1756 26.75 57 26.75C53.8244 26.75 51.25 24.1756 51.25 21C51.25 17.8244 53.8244 15.25 57 15.25C60.1756 15.25 62.75 17.8244 62.75 21Z" stroke="black" stroke-opacity="0.12" stroke-width="0.5"/>
<path fill-rule="evenodd" clip-rule="evenodd" d="M37 27C40.3137 27 43 24.3137 43 21C43 17.6863 40.3137 15 37 15C33.6863 15 31 17.6863 31 21C31 24.3137 33.6863 27 37 27Z" fill="#FFBB2E"/>
<path d="M42.75 21C42.75 24.1756 40.1756 26.75 37 26.75C33.8244 26.75 31.25 24.1756 31.25 21C31.25 17.8244 33.8244 15.25 37 15.25C40.1756 15.25 42.75 17.8244 42.75 21Z" stroke="black" stroke-opacity="0.12" stroke-width="0.5"/>
<path fill-rule="evenodd" clip-rule="evenodd" d="M17 27C20.3137 27 23 24.3137 23 21C23 17.6863 20.3137 15 17 15C13.6863 15 11 17.6863 11 21C11 24.3137 13.6863 27 17 27Z" fill="#FF5E57"/>
<path d="M22.75 21C22.75 24.1756 20.1756 26.75 17 26.75C13.8244 26.75 11.25 24.1756 11.25 21C11.25 17.8244 13.8244 15.25 17 15.25C20.1756 15.25 22.75 17.8244 22.75 21Z" stroke="black" stroke-opacity="0.12" stroke-width="0.5"/>
<line y1="41.5" x2="569" y2="41.5" stroke="#EAEAEA"/>
<path d="M78 5.5H159C160.933 5.5 162.5 7.067 162.5 9V41.5H74.5V9C74.5 7.067 76.067 5.5 78 5.5Z" fill="white" stroke="#EAEAEA" stroke-linecap="round"/>
<rect x="75" y="41" width="87" height="1" fill="white"/>
<path d="M92.1702 24.25C92.1702 23.6833 92.2836 23.19 92.5102 22.77C92.7369 22.3433 93.0502 22.0133 93.4502 21.78C93.8569 21.5467 94.3202 21.43 94.8402 21.43C95.5136 21.43 96.0669 21.5933 96.5002 21.92C96.9402 22.2467 97.2302 22.7 97.3702 23.28H96.3902C96.2969 22.9467 96.1136 22.6833 95.8402 22.49C95.5736 22.2967 95.2402 22.2 94.8402 22.2C94.3202 22.2 93.9002 22.38 93.5802 22.74C93.2602 23.0933 93.1002 23.5967 93.1002 24.25C93.1002 24.91 93.2602 25.42 93.5802 25.78C93.9002 26.14 94.3202 26.32 94.8402 26.32C95.2402 26.32 95.5736 26.2267 95.8402 26.04C96.1069 25.8533 96.2902 25.5867 96.3902 25.24H97.3702C97.2236 25.8 96.9302 26.25 96.4902 26.59C96.0502 26.9233 95.5002 27.09 94.8402 27.09C94.3202 27.09 93.8569 26.9733 93.4502 26.74C93.0502 26.5067 92.7369 26.1767 92.5102 25.75C92.2836 25.3233 92.1702 24.8233 92.1702 24.25ZM101.174 27.09C100.661 27.09 100.194 26.9733 99.7745 26.74C99.3611 26.5067 99.0345 26.1767 98.7945 25.75C98.5611 25.3167 98.4445 24.8167 98.4445 24.25C98.4445 23.69 98.5645 23.1967 98.8045 22.77C99.0511 22.3367 99.3845 22.0067 99.8045 21.78C100.224 21.5467 100.694 21.43 101.214 21.43C101.734 21.43 102.204 21.5467 102.624 21.78C103.044 22.0067 103.374 22.3333 103.614 22.76C103.861 23.1867 103.984 23.6833 103.984 24.25C103.984 24.8167 103.858 25.3167 103.604 25.75C103.358 26.1767 103.021 26.5067 102.594 26.74C102.168 26.9733 101.694 27.09 101.174 27.09ZM101.174 26.29C101.501 26.29 101.808 26.2133 102.094 26.06C102.381 25.9067 102.611 25.6767 102.784 25.37C102.964 25.0633 103.054 24.69 103.054 24.25C103.054 23.81 102.968 23.4367 102.794 23.13C102.621 22.8233 102.394 22.5967 102.114 22.45C101.834 22.2967 101.531 22.22 101.204 22.22C100.871 22.22 100.564 22.2967 100.284 22.45C100.011 22.5967 99.7911 22.8233 99.6245 23.13C99.4578 23.4367 99.3745 23.81 99.3745 24.25C99.3745 24.6967 99.4545 25.0733 99.6145 25.38C99.7811 25.6867 100.001 25.9167 100.274 26.07C100.548 26.2167 100.848 26.29 101.174 26.29ZM108.051 21.42C108.718 21.42 109.258 21.6233 109.671 22.03C110.084 22.43 110.291 23.01 110.291 23.77V27H109.391V23.9C109.391 23.3533 109.254 22.9367 108.981 22.65C108.708 22.3567 108.334 22.21 107.861 22.21C107.381 22.21 106.998 22.36 106.711 22.66C106.431 22.96 106.291 23.3967 106.291 23.97V27H105.381V21.52H106.291V22.3C106.471 22.02 106.714 21.8033 107.021 21.65C107.334 21.4967 107.678 21.42 108.051 21.42ZM113.087 22.27V25.5C113.087 25.7667 113.144 25.9567 113.257 26.07C113.371 26.1767 113.567 26.23 113.847 26.23H114.517V27H113.697C113.191 27 112.811 26.8833 112.557 26.65C112.304 26.4167 112.177 26.0333 112.177 25.5V22.27H111.467V21.52H112.177V20.14H113.087V21.52H114.517V22.27H113.087ZM116.73 22.41C116.89 22.0967 117.117 21.8533 117.41 21.68C117.71 21.5067 118.073 21.42 118.5 21.42V22.36H118.26C117.24 22.36 116.73 22.9133 116.73 24.02V27H115.82V21.52H116.73V22.41ZM119.41 24.24C119.41 23.68 119.524 23.19 119.75 22.77C119.977 22.3433 120.287 22.0133 120.68 21.78C121.08 21.5467 121.524 21.43 122.01 21.43C122.49 21.43 122.907 21.5333 123.26 21.74C123.614 21.9467 123.877 22.2067 124.05 22.52V21.52H124.97V27H124.05V25.98C123.87 26.3 123.6 26.5667 123.24 26.78C122.887 26.9867 122.474 27.09 122 27.09C121.514 27.09 121.074 26.97 120.68 26.73C120.287 26.49 119.977 26.1533 119.75 25.72C119.524 25.2867 119.41 24.7933 119.41 24.24ZM124.05 24.25C124.05 23.8367 123.967 23.4767 123.8 23.17C123.634 22.8633 123.407 22.63 123.12 22.47C122.84 22.3033 122.53 22.22 122.19 22.22C121.85 22.22 121.54 22.3 121.26 22.46C120.98 22.62 120.757 22.8533 120.59 23.16C120.424 23.4667 120.34 23.8267 120.34 24.24C120.34 24.66 120.424 25.0267 120.59 25.34C120.757 25.6467 120.98 25.8833 121.26 26.05C121.54 26.21 121.85 26.29 122.19 26.29C122.53 26.29 122.84 26.21 123.12 26.05C123.407 25.8833 123.634 25.6467 123.8 25.34C123.967 25.0267 124.05 24.6633 124.05 24.25ZM126.368 24.25C126.368 23.6833 126.482 23.19 126.708 22.77C126.935 22.3433 127.248 22.0133 127.648 21.78C128.055 21.5467 128.518 21.43 129.038 21.43C129.712 21.43 130.265 21.5933 130.698 21.92C131.138 22.2467 131.428 22.7 131.568 23.28H130.588C130.495 22.9467 130.312 22.6833 130.038 22.49C129.772 22.2967 129.438 22.2 129.038 22.2C128.518 22.2 128.098 22.38 127.778 22.74C127.458 23.0933 127.298 23.5967 127.298 24.25C127.298 24.91 127.458 25.42 127.778 25.78C128.098 26.14 128.518 26.32 129.038 26.32C129.438 26.32 129.772 26.2267 130.038 26.04C130.305 25.8533 130.488 25.5867 130.588 25.24H131.568C131.422 25.8 131.128 26.25 130.688 26.59C130.248 26.9233 129.698 27.09 129.038 27.09C128.518 27.09 128.055 26.9733 127.648 26.74C127.248 26.5067 126.935 26.1767 126.708 25.75C126.482 25.3233 126.368 24.8233 126.368 24.25ZM134.093 22.27V25.5C134.093 25.7667 134.149 25.9567 134.263 26.07C134.376 26.1767 134.573 26.23 134.853 26.23H135.523V27H134.703C134.196 27 133.816 26.8833 133.563 26.65C133.309 26.4167 133.183 26.0333 133.183 25.5V22.27H132.473V21.52H133.183V20.14H134.093V21.52H135.523V22.27H134.093ZM137.115 27.06C136.942 27.06 136.795 27 136.675 26.88C136.555 26.76 136.495 26.6133 136.495 26.44C136.495 26.2667 136.555 26.12 136.675 26C136.795 25.88 136.942 25.82 137.115 25.82C137.282 25.82 137.422 25.88 137.535 26C137.655 26.12 137.715 26.2667 137.715 26.44C137.715 26.6133 137.655 26.76 137.535 26.88C137.422 27 137.282 27.06 137.115 27.06ZM139.615 20.63C139.441 20.63 139.295 20.57 139.175 20.45C139.061 20.33 139.005 20.1833 139.005 20.01C139.005 19.8367 139.061 19.69 139.175 19.57C139.295 19.45 139.441 19.39 139.615 19.39C139.788 19.39 139.931 19.45 140.045 19.57C140.165 19.69 140.225 19.8367 140.225 20.01C140.225 20.1833 140.165 20.33 140.045 20.45C139.931 20.57 139.788 20.63 139.615 20.63ZM140.065 28.19C140.065 28.6767 139.941 29.0333 139.695 29.26C139.448 29.4867 139.088 29.6 138.615 29.6H138.085V28.83H138.465C138.718 28.83 138.895 28.78 138.995 28.68C139.101 28.58 139.155 28.41 139.155 28.17V21.52H140.065V28.19ZM143.745 27.09C143.325 27.09 142.948 27.02 142.615 26.88C142.282 26.7333 142.018 26.5333 141.825 26.28C141.632 26.02 141.525 25.7233 141.505 25.39H142.445C142.472 25.6633 142.598 25.8867 142.825 26.06C143.058 26.2333 143.362 26.32 143.735 26.32C144.082 26.32 144.355 26.2433 144.555 26.09C144.755 25.9367 144.855 25.7433 144.855 25.51C144.855 25.27 144.748 25.0933 144.535 24.98C144.322 24.86 143.992 24.7433 143.545 24.63C143.138 24.5233 142.805 24.4167 142.545 24.31C142.292 24.1967 142.072 24.0333 141.885 23.82C141.705 23.6 141.615 23.3133 141.615 22.96C141.615 22.68 141.698 22.4233 141.865 22.19C142.032 21.9567 142.268 21.7733 142.575 21.64C142.882 21.5 143.232 21.43 143.625 21.43C144.232 21.43 144.722 21.5833 145.095 21.89C145.468 22.1967 145.668 22.6167 145.695 23.15H144.785C144.765 22.8633 144.648 22.6333 144.435 22.46C144.228 22.2867 143.948 22.2 143.595 22.2C143.268 22.2 143.008 22.27 142.815 22.41C142.622 22.55 142.525 22.7333 142.525 22.96C142.525 23.14 142.582 23.29 142.695 23.41C142.815 23.5233 142.962 23.6167 143.135 23.69C143.315 23.7567 143.562 23.8333 143.875 23.92C144.268 24.0267 144.588 24.1333 144.835 24.24C145.082 24.34 145.292 24.4933 145.465 24.7C145.645 24.9067 145.738 25.1767 145.745 25.51C145.745 25.81 145.662 26.08 145.495 26.32C145.328 26.56 145.092 26.75 144.785 26.89C144.485 27.0233 144.138 27.09 143.745 27.09Z" fill="#666666"/>
<path d="M0 42H24V367H6C2.68629 367 0 364.314 0 361V42Z" fill="#FAFAFA"/>
<path d="M8.60391 57.98C9.09057 57.98 9.45391 57.8733 9.69391 57.66C9.94057 57.44 10.0639 57.16 10.0639 56.82V56.75C10.0639 56.3767 9.94391 56.0967 9.70391 55.91C9.47057 55.7233 9.16391 55.63 8.78391 55.63C8.41057 55.63 8.10724 55.7133 7.87391 55.88C7.64724 56.04 7.46057 56.2533 7.31391 56.52L6.68391 56.04C6.77057 55.9 6.87724 55.7633 7.00391 55.63C7.13057 55.49 7.27724 55.3667 7.44391 55.26C7.61724 55.1533 7.81391 55.0667 8.03391 55C8.26057 54.9333 8.51724 54.9 8.80391 54.9C9.10391 54.9 9.38391 54.94 9.64391 55.02C9.90391 55.0933 10.1306 55.2067 10.3239 55.36C10.5172 55.5067 10.6672 55.69 10.7739 55.91C10.8872 56.13 10.9439 56.38 10.9439 56.66C10.9439 56.8867 10.9072 57.09 10.8339 57.27C10.7672 57.45 10.6706 57.6067 10.5439 57.74C10.4239 57.8733 10.2806 57.9867 10.1139 58.08C9.94724 58.1733 9.77057 58.2433 9.58391 58.29V58.33C9.77724 58.37 9.96391 58.4367 10.1439 58.53C10.3239 58.6167 10.4839 58.7333 10.6239 58.88C10.7639 59.02 10.8739 59.1933 10.9539 59.4C11.0406 59.6 11.0839 59.83 11.0839 60.09C11.0839 60.39 11.0239 60.6667 10.9039 60.92C10.7906 61.1667 10.6272 61.38 10.4139 61.56C10.2072 61.7333 9.95391 61.87 9.65391 61.97C9.36057 62.07 9.03391 62.12 8.67391 62.12C8.36724 62.12 8.09391 62.0867 7.85391 62.02C7.62057 61.9533 7.41057 61.8633 7.22391 61.75C7.04391 61.6367 6.88391 61.51 6.74391 61.37C6.61057 61.23 6.49057 61.0833 6.38391 60.93L7.01391 60.45C7.10724 60.59 7.20391 60.7167 7.30391 60.83C7.40391 60.9433 7.51724 61.0433 7.64391 61.13C7.77724 61.21 7.92724 61.2733 8.09391 61.32C8.26057 61.3667 8.45391 61.39 8.67391 61.39C9.16724 61.39 9.54391 61.2767 9.80391 61.05C10.0706 60.8233 10.2039 60.5 10.2039 60.08V60C10.2039 59.5867 10.0739 59.2667 9.81391 59.04C9.56057 58.8133 9.17724 58.7 8.66391 58.7H7.83391V57.98H8.60391ZM15.88 62V60.63H12.44V59.89L15.46 55.02H16.68V59.94H17.72V60.63H16.68V62H15.88ZM13.19 59.94H15.88V55.67H15.84L13.19 59.94Z" fill="#666666"/>
<path d="M8.60391 76.98C9.09057 76.98 9.45391 76.8733 9.69391 76.66C9.94057 76.44 10.0639 76.16 10.0639 75.82V75.75C10.0639 75.3767 9.94391 75.0967 9.70391 74.91C9.47057 74.7233 9.16391 74.63 8.78391 74.63C8.41057 74.63 8.10724 74.7133 7.87391 74.88C7.64724 75.04 7.46057 75.2533 7.31391 75.52L6.68391 75.04C6.77057 74.9 6.87724 74.7633 7.00391 74.63C7.13057 74.49 7.27724 74.3667 7.44391 74.26C7.61724 74.1533 7.81391 74.0667 8.03391 74C8.26057 73.9333 8.51724 73.9 8.80391 73.9C9.10391 73.9 9.38391 73.94 9.64391 74.02C9.90391 74.0933 10.1306 74.2067 10.3239 74.36C10.5172 74.5067 10.6672 74.69 10.7739 74.91C10.8872 75.13 10.9439 75.38 10.9439 75.66C10.9439 75.8867 10.9072 76.09 10.8339 76.27C10.7672 76.45 10.6706 76.6067 10.5439 76.74C10.4239 76.8733 10.2806 76.9867 10.1139 77.08C9.94724 77.1733 9.77057 77.2433 9.58391 77.29V77.33C9.77724 77.37 9.96391 77.4367 10.1439 77.53C10.3239 77.6167 10.4839 77.7333 10.6239 77.88C10.7639 78.02 10.8739 78.1933 10.9539 78.4C11.0406 78.6 11.0839 78.83 11.0839 79.09C11.0839 79.39 11.0239 79.6667 10.9039 79.92C10.7906 80.1667 10.6272 80.38 10.4139 80.56C10.2072 80.7333 9.95391 80.87 9.65391 80.97C9.36057 81.07 9.03391 81.12 8.67391 81.12C8.36724 81.12 8.09391 81.0867 7.85391 81.02C7.62057 80.9533 7.41057 80.8633 7.22391 80.75C7.04391 80.6367 6.88391 80.51 6.74391 80.37C6.61057 80.23 6.49057 80.0833 6.38391 79.93L7.01391 79.45C7.10724 79.59 7.20391 79.7167 7.30391 79.83C7.40391 79.9433 7.51724 80.0433 7.64391 80.13C7.77724 80.21 7.92724 80.2733 8.09391 80.32C8.26057 80.3667 8.45391 80.39 8.67391 80.39C9.16724 80.39 9.54391 80.2767 9.80391 80.05C10.0706 79.8233 10.2039 79.5 10.2039 79.08V79C10.2039 78.5867 10.0739 78.2667 9.81391 78.04C9.56057 77.8133 9.17724 77.7 8.66391 77.7H7.83391V76.98H8.60391ZM17.11 74.75H13.99L13.79 77.42H13.86C14.0333 77.1867 14.2267 77.0033 14.44 76.87C14.6533 76.73 14.9467 76.66 15.32 76.66C15.6267 76.66 15.9067 76.71 16.16 76.81C16.42 76.9033 16.6433 77.0433 16.83 77.23C17.0167 77.4167 17.1633 77.6433 17.27 77.91C17.3767 78.17 17.43 78.47 17.43 78.81C17.43 79.15 17.3767 79.4633 17.27 79.75C17.1633 80.03 17.0067 80.2733 16.8 80.48C16.5933 80.68 16.3433 80.8367 16.05 80.95C15.7567 81.0633 15.4233 81.12 15.05 81.12C14.7567 81.12 14.4933 81.0867 14.26 81.02C14.0333 80.9533 13.83 80.8633 13.65 80.75C13.4767 80.6367 13.3233 80.51 13.19 80.37C13.0567 80.23 12.9367 80.0833 12.83 79.93L13.46 79.45C13.5533 79.59 13.6467 79.7167 13.74 79.83C13.84 79.9433 13.9533 80.0433 14.08 80.13C14.2067 80.21 14.35 80.2733 14.51 80.32C14.67 80.3667 14.8567 80.39 15.07 80.39C15.55 80.39 15.9167 80.26 16.17 80C16.43 79.74 16.56 79.38 16.56 78.92V78.84C16.56 78.38 16.43 78.02 16.17 77.76C15.91 77.5 15.5367 77.37 15.05 77.37C14.7167 77.37 14.4567 77.4267 14.27 77.54C14.09 77.6533 13.9233 77.7933 13.77 77.96L13.06 77.86L13.31 74.02H17.11V74.75Z" fill="#666666"/>
<path d="M8.60391 95.98C9.09057 95.98 9.45391 95.8733 9.69391 95.66C9.94057 95.44 10.0639 95.16 10.0639 94.82V94.75C10.0639 94.3767 9.94391 94.0967 9.70391 93.91C9.47057 93.7233 9.16391 93.63 8.78391 93.63C8.41057 93.63 8.10724 93.7133 7.87391 93.88C7.64724 94.04 7.46057 94.2533 7.31391 94.52L6.68391 94.04C6.77057 93.9 6.87724 93.7633 7.00391 93.63C7.13057 93.49 7.27724 93.3667 7.44391 93.26C7.61724 93.1533 7.81391 93.0667 8.03391 93C8.26057 92.9333 8.51724 92.9 8.80391 92.9C9.10391 92.9 9.38391 92.94 9.64391 93.02C9.90391 93.0933 10.1306 93.2067 10.3239 93.36C10.5172 93.5067 10.6672 93.69 10.7739 93.91C10.8872 94.13 10.9439 94.38 10.9439 94.66C10.9439 94.8867 10.9072 95.09 10.8339 95.27C10.7672 95.45 10.6706 95.6067 10.5439 95.74C10.4239 95.8733 10.2806 95.9867 10.1139 96.08C9.94724 96.1733 9.77057 96.2433 9.58391 96.29V96.33C9.77724 96.37 9.96391 96.4367 10.1439 96.53C10.3239 96.6167 10.4839 96.7333 10.6239 96.88C10.7639 97.02 10.8739 97.1933 10.9539 97.4C11.0406 97.6 11.0839 97.83 11.0839 98.09C11.0839 98.39 11.0239 98.6667 10.9039 98.92C10.7906 99.1667 10.6272 99.38 10.4139 99.56C10.2072 99.7333 9.95391 99.87 9.65391 99.97C9.36057 100.07 9.03391 100.12 8.67391 100.12C8.36724 100.12 8.09391 100.087 7.85391 100.02C7.62057 99.9533 7.41057 99.8633 7.22391 99.75C7.04391 99.6367 6.88391 99.51 6.74391 99.37C6.61057 99.23 6.49057 99.0833 6.38391 98.93L7.01391 98.45C7.10724 98.59 7.20391 98.7167 7.30391 98.83C7.40391 98.9433 7.51724 99.0433 7.64391 99.13C7.77724 99.21 7.92724 99.2733 8.09391 99.32C8.26057 99.3667 8.45391 99.39 8.67391 99.39C9.16724 99.39 9.54391 99.2767 9.80391 99.05C10.0706 98.8233 10.2039 98.5 10.2039 98.08V98C10.2039 97.5867 10.0739 97.2667 9.81391 97.04C9.56057 96.8133 9.17724 96.7 8.66391 96.7H7.83391V95.98H8.60391ZM15.11 100.12C14.7433 100.12 14.4133 100.06 14.12 99.94C13.8267 99.8133 13.5767 99.6367 13.37 99.41C13.17 99.1767 13.0133 98.8933 12.9 98.56C12.7933 98.2267 12.74 97.8533 12.74 97.44C12.74 96.92 12.8167 96.4333 12.97 95.98C13.13 95.52 13.33 95.1033 13.57 94.73C13.8167 94.35 14.09 94.0167 14.39 93.73C14.69 93.4367 14.9833 93.2 15.27 93.02H16.35C15.97 93.2933 15.63 93.56 15.33 93.82C15.0367 94.08 14.7767 94.3533 14.55 94.64C14.3233 94.92 14.1333 95.2233 13.98 95.55C13.8267 95.87 13.7 96.2333 13.6 96.64L13.65 96.66C13.8167 96.3733 14.0367 96.1367 14.31 95.95C14.5833 95.7567 14.9367 95.66 15.37 95.66C15.6767 95.66 15.9567 95.71 16.21 95.81C16.4633 95.91 16.6833 96.0533 16.87 96.24C17.0567 96.4267 17.2 96.6533 17.3 96.92C17.4067 97.1867 17.46 97.4833 17.46 97.81C17.46 98.15 17.4033 98.4633 17.29 98.75C17.1767 99.03 17.0167 99.2733 16.81 99.48C16.61 99.68 16.3633 99.8367 16.07 99.95C15.7833 100.063 15.4633 100.12 15.11 100.12ZM15.1 99.41C15.58 99.41 15.95 99.28 16.21 99.02C16.4767 98.76 16.61 98.3933 16.61 97.92V97.84C16.61 97.3667 16.4767 97 16.21 96.74C15.95 96.48 15.58 96.35 15.1 96.35C14.62 96.35 14.2467 96.48 13.98 96.74C13.72 97 13.59 97.3667 13.59 97.84V97.92C13.59 98.3933 13.72 98.76 13.98 99.02C14.2467 99.28 14.62 99.41 15.1 99.41Z" fill="#666666"/>
<path d="M8.60391 114.98C9.09057 114.98 9.45391 114.873 9.69391 114.66C9.94057 114.44 10.0639 114.16 10.0639 113.82V113.75C10.0639 113.377 9.94391 113.097 9.70391 112.91C9.47057 112.723 9.16391 112.63 8.78391 112.63C8.41057 112.63 8.10724 112.713 7.87391 112.88C7.64724 113.04 7.46057 113.253 7.31391 113.52L6.68391 113.04C6.77057 112.9 6.87724 112.763 7.00391 112.63C7.13057 112.49 7.27724 112.367 7.44391 112.26C7.61724 112.153 7.81391 112.067 8.03391 112C8.26057 111.933 8.51724 111.9 8.80391 111.9C9.10391 111.9 9.38391 111.94 9.64391 112.02C9.90391 112.093 10.1306 112.207 10.3239 112.36C10.5172 112.507 10.6672 112.69 10.7739 112.91C10.8872 113.13 10.9439 113.38 10.9439 113.66C10.9439 113.887 10.9072 114.09 10.8339 114.27C10.7672 114.45 10.6706 114.607 10.5439 114.74C10.4239 114.873 10.2806 114.987 10.1139 115.08C9.94724 115.173 9.77057 115.243 9.58391 115.29V115.33C9.77724 115.37 9.96391 115.437 10.1439 115.53C10.3239 115.617 10.4839 115.733 10.6239 115.88C10.7639 116.02 10.8739 116.193 10.9539 116.4C11.0406 116.6 11.0839 116.83 11.0839 117.09C11.0839 117.39 11.0239 117.667 10.9039 117.92C10.7906 118.167 10.6272 118.38 10.4139 118.56C10.2072 118.733 9.95391 118.87 9.65391 118.97C9.36057 119.07 9.03391 119.12 8.67391 119.12C8.36724 119.12 8.09391 119.087 7.85391 119.02C7.62057 118.953 7.41057 118.863 7.22391 118.75C7.04391 118.637 6.88391 118.51 6.74391 118.37C6.61057 118.23 6.49057 118.083 6.38391 117.93L7.01391 117.45C7.10724 117.59 7.20391 117.717 7.30391 117.83C7.40391 117.943 7.51724 118.043 7.64391 118.13C7.77724 118.21 7.92724 118.273 8.09391 118.32C8.26057 118.367 8.45391 118.39 8.67391 118.39C9.16724 118.39 9.54391 118.277 9.80391 118.05C10.0706 117.823 10.2039 117.5 10.2039 117.08V117C10.2039 116.587 10.0739 116.267 9.81391 116.04C9.56057 115.813 9.17724 115.7 8.66391 115.7H7.83391V114.98H8.60391ZM13.83 119L16.56 112.74H13.5V114.04H12.75V112.02H17.41V112.76L14.73 119H13.83Z" fill="#666666"/>
<path d="M8.60391 133.98C9.09057 133.98 9.45391 133.873 9.69391 133.66C9.94057 133.44 10.0639 133.16 10.0639 132.82V132.75C10.0639 132.377 9.94391 132.097 9.70391 131.91C9.47057 131.723 9.16391 131.63 8.78391 131.63C8.41057 131.63 8.10724 131.713 7.87391 131.88C7.64724 132.04 7.46057 132.253 7.31391 132.52L6.68391 132.04C6.77057 131.9 6.87724 131.763 7.00391 131.63C7.13057 131.49 7.27724 131.367 7.44391 131.26C7.61724 131.153 7.81391 131.067 8.03391 131C8.26057 130.933 8.51724 130.9 8.80391 130.9C9.10391 130.9 9.38391 130.94 9.64391 131.02C9.90391 131.093 10.1306 131.207 10.3239 131.36C10.5172 131.507 10.6672 131.69 10.7739 131.91C10.8872 132.13 10.9439 132.38 10.9439 132.66C10.9439 132.887 10.9072 133.09 10.8339 133.27C10.7672 133.45 10.6706 133.607 10.5439 133.74C10.4239 133.873 10.2806 133.987 10.1139 134.08C9.94724 134.173 9.77057 134.243 9.58391 134.29V134.33C9.77724 134.37 9.96391 134.437 10.1439 134.53C10.3239 134.617 10.4839 134.733 10.6239 134.88C10.7639 135.02 10.8739 135.193 10.9539 135.4C11.0406 135.6 11.0839 135.83 11.0839 136.09C11.0839 136.39 11.0239 136.667 10.9039 136.92C10.7906 137.167 10.6272 137.38 10.4139 137.56C10.2072 137.733 9.95391 137.87 9.65391 137.97C9.36057 138.07 9.03391 138.12 8.67391 138.12C8.36724 138.12 8.09391 138.087 7.85391 138.02C7.62057 137.953 7.41057 137.863 7.22391 137.75C7.04391 137.637 6.88391 137.51 6.74391 137.37C6.61057 137.23 6.49057 137.083 6.38391 136.93L7.01391 136.45C7.10724 136.59 7.20391 136.717 7.30391 136.83C7.40391 136.943 7.51724 137.043 7.64391 137.13C7.77724 137.21 7.92724 137.273 8.09391 137.32C8.26057 137.367 8.45391 137.39 8.67391 137.39C9.16724 137.39 9.54391 137.277 9.80391 137.05C10.0706 136.823 10.2039 136.5 10.2039 136.08V136C10.2039 135.587 10.0739 135.267 9.81391 135.04C9.56057 134.813 9.17724 134.7 8.66391 134.7H7.83391V133.98H8.60391ZM15.1 138.12C14.6933 138.12 14.3367 138.07 14.03 137.97C13.7233 137.863 13.4667 137.72 13.26 137.54C13.06 137.36 12.9067 137.147 12.8 136.9C12.7 136.653 12.65 136.387 12.65 136.1C12.65 135.62 12.78 135.24 13.04 134.96C13.3 134.68 13.6433 134.483 14.07 134.37V134.29C13.6967 134.163 13.4 133.96 13.18 133.68C12.9667 133.393 12.86 133.05 12.86 132.65C12.86 132.117 13.0567 131.693 13.45 131.38C13.8433 131.06 14.3933 130.9 15.1 130.9C15.8067 130.9 16.3567 131.06 16.75 131.38C17.1433 131.693 17.34 132.117 17.34 132.65C17.34 133.05 17.23 133.393 17.01 133.68C16.7967 133.96 16.5033 134.163 16.13 134.29V134.37C16.5567 134.483 16.9 134.68 17.16 134.96C17.42 135.24 17.55 135.62 17.55 136.1C17.55 136.387 17.4967 136.653 17.39 136.9C17.29 137.147 17.1367 137.36 16.93 137.54C16.7233 137.72 16.4667 137.863 16.16 137.97C15.86 138.07 15.5067 138.12 15.1 138.12ZM15.1 137.41C15.5933 137.41 15.98 137.3 16.26 137.08C16.54 136.86 16.68 136.55 16.68 136.15V135.93C16.68 135.53 16.54 135.22 16.26 135C15.9867 134.78 15.6 134.67 15.1 134.67C14.6 134.67 14.21 134.78 13.93 135C13.6567 135.22 13.52 135.53 13.52 135.93V136.15C13.52 136.55 13.66 136.86 13.94 137.08C14.22 137.3 14.6067 137.41 15.1 137.41ZM15.1 133.99C15.5533 133.99 15.8967 133.893 16.13 133.7C16.37 133.507 16.49 133.23 16.49 132.87V132.73C16.49 132.37 16.3667 132.093 16.12 131.9C15.88 131.707 15.54 131.61 15.1 131.61C14.66 131.61 14.3167 131.707 14.07 131.9C13.83 132.093 13.71 132.37 13.71 132.73V132.87C13.71 133.23 13.8267 133.507 14.06 133.7C14.3 133.893 14.6467 133.99 15.1 133.99Z" fill="#666666"/>
<path d="M8.60391 152.98C9.09057 152.98 9.45391 152.873 9.69391 152.66C9.94057 152.44 10.0639 152.16 10.0639 151.82V151.75C10.0639 151.377 9.94391 151.097 9.70391 150.91C9.47057 150.723 9.16391 150.63 8.78391 150.63C8.41057 150.63 8.10724 150.713 7.87391 150.88C7.64724 151.04 7.46057 151.253 7.31391 151.52L6.68391 151.04C6.77057 150.9 6.87724 150.763 7.00391 150.63C7.13057 150.49 7.27724 150.367 7.44391 150.26C7.61724 150.153 7.81391 150.067 8.03391 150C8.26057 149.933 8.51724 149.9 8.80391 149.9C9.10391 149.9 9.38391 149.94 9.64391 150.02C9.90391 150.093 10.1306 150.207 10.3239 150.36C10.5172 150.507 10.6672 150.69 10.7739 150.91C10.8872 151.13 10.9439 151.38 10.9439 151.66C10.9439 151.887 10.9072 152.09 10.8339 152.27C10.7672 152.45 10.6706 152.607 10.5439 152.74C10.4239 152.873 10.2806 152.987 10.1139 153.08C9.94724 153.173 9.77057 153.243 9.58391 153.29V153.33C9.77724 153.37 9.96391 153.437 10.1439 153.53C10.3239 153.617 10.4839 153.733 10.6239 153.88C10.7639 154.02 10.8739 154.193 10.9539 154.4C11.0406 154.6 11.0839 154.83 11.0839 155.09C11.0839 155.39 11.0239 155.667 10.9039 155.92C10.7906 156.167 10.6272 156.38 10.4139 156.56C10.2072 156.733 9.95391 156.87 9.65391 156.97C9.36057 157.07 9.03391 157.12 8.67391 157.12C8.36724 157.12 8.09391 157.087 7.85391 157.02C7.62057 156.953 7.41057 156.863 7.22391 156.75C7.04391 156.637 6.88391 156.51 6.74391 156.37C6.61057 156.23 6.49057 156.083 6.38391 155.93L7.01391 155.45C7.10724 155.59 7.20391 155.717 7.30391 155.83C7.40391 155.943 7.51724 156.043 7.64391 156.13C7.77724 156.21 7.92724 156.273 8.09391 156.32C8.26057 156.367 8.45391 156.39 8.67391 156.39C9.16724 156.39 9.54391 156.277 9.80391 156.05C10.0706 155.823 10.2039 155.5 10.2039 155.08V155C10.2039 154.587 10.0739 154.267 9.81391 154.04C9.56057 153.813 9.17724 153.7 8.66391 153.7H7.83391V152.98H8.60391ZM17.46 152.58C17.46 153.1 17.38 153.59 17.22 154.05C17.0667 154.503 16.8667 154.92 16.62 155.3C16.3733 155.673 16.1 156.007 15.8 156.3C15.5067 156.587 15.2167 156.82 14.93 157H13.85C14.23 156.727 14.5667 156.46 14.86 156.2C15.16 155.94 15.4233 155.67 15.65 155.39C15.8767 155.103 16.0667 154.8 16.22 154.48C16.3733 154.153 16.5 153.787 16.6 153.38L16.55 153.36C16.3767 153.647 16.1533 153.887 15.88 154.08C15.6133 154.267 15.2633 154.36 14.83 154.36C14.5233 154.36 14.24 154.31 13.98 154.21C13.7267 154.11 13.5067 153.967 13.32 153.78C13.14 153.593 12.9967 153.37 12.89 153.11C12.79 152.843 12.74 152.543 12.74 152.21C12.74 151.87 12.7933 151.56 12.9 151.28C13.0133 150.993 13.1733 150.75 13.38 150.55C13.5867 150.343 13.8333 150.183 14.12 150.07C14.4133 149.957 14.7367 149.9 15.09 149.9C15.4567 149.9 15.7867 149.963 16.08 150.09C16.3733 150.21 16.62 150.387 16.82 150.62C17.0267 150.847 17.1833 151.127 17.29 151.46C17.4033 151.793 17.46 152.167 17.46 152.58ZM15.1 153.67C15.58 153.67 15.95 153.54 16.21 153.28C16.4767 153.02 16.61 152.653 16.61 152.18V152.1C16.61 151.627 16.4767 151.26 16.21 151C15.95 150.74 15.58 150.61 15.1 150.61C14.62 150.61 14.2467 150.74 13.98 151C13.72 151.26 13.59 151.627 13.59 152.1V152.18C13.59 152.653 13.72 153.02 13.98 153.28C14.2467 153.54 14.62 153.67 15.1 153.67Z" fill="#666666"/>
<path d="M9.68391 176V174.63H6.24391V173.89L9.26391 169.02H10.4839V173.94H11.5239V174.63H10.4839V176H9.68391ZM6.99391 173.94H9.68391V169.67H9.64391L6.99391 173.94ZM15.1 176.12C14.6733 176.12 14.3067 176.04 14 175.88C13.6933 175.713 13.44 175.477 13.24 175.17C13.04 174.863 12.8933 174.487 12.8 174.04C12.7067 173.593 12.66 173.083 12.66 172.51C12.66 171.943 12.7067 171.437 12.8 170.99C12.8933 170.537 13.04 170.157 13.24 169.85C13.44 169.543 13.6933 169.31 14 169.15C14.3067 168.983 14.6733 168.9 15.1 168.9C15.5267 168.9 15.8933 168.983 16.2 169.15C16.5067 169.31 16.76 169.543 16.96 169.85C17.16 170.157 17.3067 170.537 17.4 170.99C17.4933 171.437 17.54 171.943 17.54 172.51C17.54 173.083 17.4933 173.593 17.4 174.04C17.3067 174.487 17.16 174.863 16.96 175.17C16.76 175.477 16.5067 175.713 16.2 175.88C15.8933 176.04 15.5267 176.12 15.1 176.12ZM15.1 175.39C15.38 175.39 15.62 175.337 15.82 175.23C16.02 175.117 16.18 174.96 16.3 174.76C16.4267 174.56 16.52 174.32 16.58 174.04C16.64 173.753 16.67 173.433 16.67 173.08V171.94C16.67 171.593 16.64 171.277 16.58 170.99C16.52 170.703 16.4267 170.46 16.3 170.26C16.18 170.06 16.02 169.907 15.82 169.8C15.62 169.687 15.38 169.63 15.1 169.63C14.82 169.63 14.58 169.687 14.38 169.8C14.18 169.907 14.0167 170.06 13.89 170.26C13.77 170.46 13.68 170.703 13.62 170.99C13.56 171.277 13.53 171.593 13.53 171.94V173.08C13.53 173.433 13.56 173.753 13.62 174.04C13.68 174.32 13.77 174.56 13.89 174.76C14.0167 174.96 14.18 175.117 14.38 175.23C14.58 175.337 14.82 175.39 15.1 175.39ZM15.1 173.1C14.8667 173.1 14.7033 173.053 14.61 172.96C14.5233 172.867 14.48 172.753 14.48 172.62V172.4C14.48 172.267 14.5233 172.153 14.61 172.06C14.7033 171.967 14.8667 171.92 15.1 171.92C15.3333 171.92 15.4933 171.967 15.58 172.06C15.6733 172.153 15.72 172.267 15.72 172.4V172.62C15.72 172.753 15.6733 172.867 15.58 172.96C15.4933 173.053 15.3333 173.1 15.1 173.1Z" fill="#666666"/>
<path d="M9.68391 195V193.63H6.24391V192.89L9.26391 188.02H10.4839V192.94H11.5239V193.63H10.4839V195H9.68391ZM6.99391 192.94H9.68391V188.67H9.64391L6.99391 192.94ZM12.95 195V194.27H14.95V188.64H14.88L13.12 190.28L12.63 189.75L14.48 188.02H15.79V194.27H17.63V195H12.95Z" fill="#666666"/>
<path d="M9.68391 214V212.63H6.24391V211.89L9.26391 207.02H10.4839V211.94H11.5239V212.63H10.4839V214H9.68391ZM6.99391 211.94H9.68391V207.67H9.64391L6.99391 211.94ZM17.47 214H12.81V213.14L15.14 211.04C15.48 210.733 15.76 210.42 15.98 210.1C16.2 209.773 16.31 209.43 16.31 209.07V208.95C16.31 208.53 16.2 208.207 15.98 207.98C15.76 207.747 15.4333 207.63 15 207.63C14.5733 207.63 14.2433 207.74 14.01 207.96C13.7833 208.173 13.6133 208.46 13.5 208.82L12.75 208.54C12.8167 208.333 12.9067 208.133 13.02 207.94C13.14 207.74 13.29 207.563 13.47 207.41C13.65 207.257 13.8667 207.133 14.12 207.04C14.38 206.947 14.68 206.9 15.02 206.9C15.3667 206.9 15.6733 206.95 15.94 207.05C16.2133 207.15 16.44 207.29 16.62 207.47C16.8067 207.65 16.9467 207.863 17.04 208.11C17.14 208.357 17.19 208.627 17.19 208.92C17.19 209.187 17.15 209.437 17.07 209.67C16.9967 209.903 16.89 210.127 16.75 210.34C16.6167 210.553 16.4533 210.763 16.26 210.97C16.0733 211.17 15.8633 211.37 15.63 211.57L13.68 213.27H17.47V214Z" fill="#666666"/>
<path d="M9.68391 233V231.63H6.24391V230.89L9.26391 226.02H10.4839V230.94H11.5239V231.63H10.4839V233H9.68391ZM6.99391 230.94H9.68391V226.67H9.64391L6.99391 230.94ZM14.8 228.98C15.2867 228.98 15.65 228.873 15.89 228.66C16.1367 228.44 16.26 228.16 16.26 227.82V227.75C16.26 227.377 16.14 227.097 15.9 226.91C15.6667 226.723 15.36 226.63 14.98 226.63C14.6067 226.63 14.3033 226.713 14.07 226.88C13.8433 227.04 13.6567 227.253 13.51 227.52L12.88 227.04C12.9667 226.9 13.0733 226.763 13.2 226.63C13.3267 226.49 13.4733 226.367 13.64 226.26C13.8133 226.153 14.01 226.067 14.23 226C14.4567 225.933 14.7133 225.9 15 225.9C15.3 225.9 15.58 225.94 15.84 226.02C16.1 226.093 16.3267 226.207 16.52 226.36C16.7133 226.507 16.8633 226.69 16.97 226.91C17.0833 227.13 17.14 227.38 17.14 227.66C17.14 227.887 17.1033 228.09 17.03 228.27C16.9633 228.45 16.8667 228.607 16.74 228.74C16.62 228.873 16.4767 228.987 16.31 229.08C16.1433 229.173 15.9667 229.243 15.78 229.29V229.33C15.9733 229.37 16.16 229.437 16.34 229.53C16.52 229.617 16.68 229.733 16.82 229.88C16.96 230.02 17.07 230.193 17.15 230.4C17.2367 230.6 17.28 230.83 17.28 231.09C17.28 231.39 17.22 231.667 17.1 231.92C16.9867 232.167 16.8233 232.38 16.61 232.56C16.4033 232.733 16.15 232.87 15.85 232.97C15.5567 233.07 15.23 233.12 14.87 233.12C14.5633 233.12 14.29 233.087 14.05 233.02C13.8167 232.953 13.6067 232.863 13.42 232.75C13.24 232.637 13.08 232.51 12.94 232.37C12.8067 232.23 12.6867 232.083 12.58 231.93L13.21 231.45C13.3033 231.59 13.4 231.717 13.5 231.83C13.6 231.943 13.7133 232.043 13.84 232.13C13.9733 232.21 14.1233 232.273 14.29 232.32C14.4567 232.367 14.65 232.39 14.87 232.39C15.3633 232.39 15.74 232.277 16 232.05C16.2667 231.823 16.4 231.5 16.4 231.08V231C16.4 230.587 16.27 230.267 16.01 230.04C15.7567 229.813 15.3733 229.7 14.86 229.7H14.03V228.98H14.8Z" fill="#666666"/>
<path d="M9.68391 252V250.63H6.24391V249.89L9.26391 245.02H10.4839V249.94H11.5239V250.63H10.4839V252H9.68391ZM6.99391 249.94H9.68391V245.67H9.64391L6.99391 249.94ZM15.88 252V250.63H12.44V249.89L15.46 245.02H16.68V249.94H17.72V250.63H16.68V252H15.88ZM13.19 249.94H15.88V245.67H15.84L13.19 249.94Z" fill="#666666"/>
<path d="M9.68391 271V269.63H6.24391V268.89L9.26391 264.02H10.4839V268.94H11.5239V269.63H10.4839V271H9.68391ZM6.99391 268.94H9.68391V264.67H9.64391L6.99391 268.94ZM17.11 264.75H13.99L13.79 267.42H13.86C14.0333 267.187 14.2267 267.003 14.44 266.87C14.6533 266.73 14.9467 266.66 15.32 266.66C15.6267 266.66 15.9067 266.71 16.16 266.81C16.42 266.903 16.6433 267.043 16.83 267.23C17.0167 267.417 17.1633 267.643 17.27 267.91C17.3767 268.17 17.43 268.47 17.43 268.81C17.43 269.15 17.3767 269.463 17.27 269.75C17.1633 270.03 17.0067 270.273 16.8 270.48C16.5933 270.68 16.3433 270.837 16.05 270.95C15.7567 271.063 15.4233 271.12 15.05 271.12C14.7567 271.12 14.4933 271.087 14.26 271.02C14.0333 270.953 13.83 270.863 13.65 270.75C13.4767 270.637 13.3233 270.51 13.19 270.37C13.0567 270.23 12.9367 270.083 12.83 269.93L13.46 269.45C13.5533 269.59 13.6467 269.717 13.74 269.83C13.84 269.943 13.9533 270.043 14.08 270.13C14.2067 270.21 14.35 270.273 14.51 270.32C14.67 270.367 14.8567 270.39 15.07 270.39C15.55 270.39 15.9167 270.26 16.17 270C16.43 269.74 16.56 269.38 16.56 268.92V268.84C16.56 268.38 16.43 268.02 16.17 267.76C15.91 267.5 15.5367 267.37 15.05 267.37C14.7167 267.37 14.4567 267.427 14.27 267.54C14.09 267.653 13.9233 267.793 13.77 267.96L13.06 267.86L13.31 264.02H17.11V264.75Z" fill="#666666"/>
<path d="M9.68391 290V288.63H6.24391V287.89L9.26391 283.02H10.4839V287.94H11.5239V288.63H10.4839V290H9.68391ZM6.99391 287.94H9.68391V283.67H9.64391L6.99391 287.94ZM15.11 290.12C14.7433 290.12 14.4133 290.06 14.12 289.94C13.8267 289.813 13.5767 289.637 13.37 289.41C13.17 289.177 13.0133 288.893 12.9 288.56C12.7933 288.227 12.74 287.853 12.74 287.44C12.74 286.92 12.8167 286.433 12.97 285.98C13.13 285.52 13.33 285.103 13.57 284.73C13.8167 284.35 14.09 284.017 14.39 283.73C14.69 283.437 14.9833 283.2 15.27 283.02H16.35C15.97 283.293 15.63 283.56 15.33 283.82C15.0367 284.08 14.7767 284.353 14.55 284.64C14.3233 284.92 14.1333 285.223 13.98 285.55C13.8267 285.87 13.7 286.233 13.6 286.64L13.65 286.66C13.8167 286.373 14.0367 286.137 14.31 285.95C14.5833 285.757 14.9367 285.66 15.37 285.66C15.6767 285.66 15.9567 285.71 16.21 285.81C16.4633 285.91 16.6833 286.053 16.87 286.24C17.0567 286.427 17.2 286.653 17.3 286.92C17.4067 287.187 17.46 287.483 17.46 287.81C17.46 288.15 17.4033 288.463 17.29 288.75C17.1767 289.03 17.0167 289.273 16.81 289.48C16.61 289.68 16.3633 289.837 16.07 289.95C15.7833 290.063 15.4633 290.12 15.11 290.12ZM15.1 289.41C15.58 289.41 15.95 289.28 16.21 289.02C16.4767 288.76 16.61 288.393 16.61 287.92V287.84C16.61 287.367 16.4767 287 16.21 286.74C15.95 286.48 15.58 286.35 15.1 286.35C14.62 286.35 14.2467 286.48 13.98 286.74C13.72 287 13.59 287.367 13.59 287.84V287.92C13.59 288.393 13.72 288.76 13.98 289.02C14.2467 289.28 14.62 289.41 15.1 289.41Z" fill="#666666"/>
</g>
<defs>
<clipPath id="clip0_236_1859">
<path d="M0 0.339111H269V273.339C269 287.146 257.807 298.339 244 298.339H0V0.339111Z" fill="white"/>
</clipPath>
</defs>
</svg>
