<svg width="1024" height="1024" viewBox="0 0 1024 1024" fill="none" xmlns="http://www.w3.org/2000/svg">
  <path d="M896 0H128C57.3075 0 0 57.3075 0 128V896C0 966.692 57.3075 1024 128 1024H896C966.692 1024 1024 966.692 1024 896V128C1024 57.3075 966.692 0 896 0Z" fill="url(#paint0_linear_97_6255)"/>
  <path d="M432 832H144C117.49 832 96 853.49 96 880C96 906.51 117.49 928 144 928H432C458.51 928 480 906.51 480 880C480 853.49 458.51 832 432 832Z" fill="white"/>
  <path d="M238.272 508.445C214.763 508.445 191.861 504.797 169.568 497.501C147.68 489.799 130.251 478.045 117.28 462.237L154.976 405.693L158.016 400.829L163.488 404.477C164.299 407.719 165.109 410.964 165.92 414.205C167.136 417.447 170.176 421.501 175.04 426.365C182.741 432.852 191.456 438.119 201.184 442.173C211.317 445.821 222.261 447.645 234.016 447.645C251.851 447.645 265.632 442.58 275.36 432.445C285.493 422.311 290.56 409.14 290.56 392.925C290.56 369.012 282.656 352.596 266.848 343.677C251.04 334.356 226.517 331.719 193.28 335.773V275.581C216.384 276.392 234.421 274.568 247.392 270.109C260.768 265.65 270.091 259.368 275.36 251.261C280.629 243.154 283.264 234.44 283.264 225.117C283.264 210.93 279.008 199.784 270.496 191.677C261.984 183.165 250.027 178.909 234.624 178.909C222.464 178.909 210.507 181.341 198.752 186.205C187.403 191.069 177.472 198.568 168.96 208.701L124.576 163.709C139.573 146.685 157.205 134.525 177.472 127.229C197.739 119.933 218.005 116.285 238.272 116.285C260.971 116.285 281.237 120.541 299.072 129.053C317.312 137.565 331.498 149.32 341.632 164.317C352.17 178.909 357.44 195.731 357.44 214.781C357.44 228.968 354.4 241.736 348.32 253.085C342.646 264.434 335.146 274.162 325.824 282.269C316.907 289.97 307.787 295.645 298.464 299.293C309.408 303.346 320.15 309.426 330.688 317.533C341.632 325.639 350.55 336.18 357.44 349.149C364.33 361.716 367.776 377.117 367.776 395.357C367.776 416.436 362.506 435.687 351.968 453.117C341.43 470.141 326.432 483.719 306.976 493.853C287.52 503.581 264.619 508.445 238.272 508.445Z" fill="white"/>
  <path d="M615.005 138.241V183.041H675.165V211.457H615.005V258.817H682.845V288.001H579.165V109.057H682.845V138.241H615.005ZM910.23 109.313V288.001H874.39V171.777L826.518 288.001H799.382L751.254 171.777V288.001H715.414V109.313H756.118L812.95 242.177L869.782 109.313H910.23Z" fill="white"/>
  <defs>
    <linearGradient id="paint0_linear_97_6255" x1="-34.1334" y1="-34.1334" x2="1058.13" y2="1058.13" gradientUnits="userSpaceOnUse">
      <stop stop-color="#3AA6E3"/>
      <stop offset="1" stop-color="#7E6CDA"/>
    </linearGradient>
  </defs>
</svg>