<svg width="1024" height="1024" viewBox="0 0 1024 1024" fill="none" xmlns="http://www.w3.org/2000/svg">
  <path d="M471.702 0.263254C469.31 0.515104 461.628 1.39658 454.702 2.0262C356.225 12.352 259.258 54.0331 180.174 120.27C165.567 132.358 132.321 165.602 120.232 180.21C54.7481 258.409 16.4654 346.179 2.36119 450.066C-0.787063 473.111 -0.787063 550.932 2.36119 573.976C16.4654 677.864 54.7481 765.634 120.232 843.833C132.321 858.44 165.567 891.685 180.174 903.773C258.377 969.254 346.15 1007.54 450.042 1021.64C473.088 1024.79 550.912 1024.79 573.958 1021.64C677.85 1007.54 765.623 969.254 843.826 903.773C858.434 891.685 891.679 858.44 903.768 843.833C969.252 765.634 1007.53 677.864 1021.64 573.976C1024.79 550.932 1024.79 473.111 1021.64 450.066C1007.53 346.179 969.252 258.409 903.768 180.21C891.679 165.602 858.434 132.358 843.826 120.27C765.875 55.0405 677.22 16.2557 574.713 2.5299C563.631 1.0188 547.512 0.389179 517.667 0.137329C494.874 -0.11452 474.095 0.0114047 471.702 0.263254ZM477.999 54.6627C477.999 69.3959 479.006 101.381 480.392 131.729C481.147 146.588 482.029 167.869 482.406 178.95C483.792 218.239 487.947 321.371 488.577 330.564L489.207 339.756L483.54 339.127C480.392 338.875 477.495 338.119 476.991 337.742C476.614 337.238 475.732 328.549 475.228 318.349C472.962 273.52 465.532 99.6179 464.776 74.1811L464.021 46.2258L467.547 45.7221C469.436 45.4702 472.584 45.0925 474.599 44.9665L477.999 44.8406V54.6627ZM598.514 51.6406C598.64 51.7665 599.018 89.7958 599.395 136.136C599.899 182.602 600.529 224.283 600.907 228.817C601.284 233.476 601.158 237.505 600.529 237.757C600.025 238.135 596.877 238.135 593.729 237.757L587.936 237.254L587.054 200.61C586.551 180.336 585.921 157.921 585.669 150.617C584.662 128.329 583.78 52.648 584.536 50.7591C585.039 49.3739 586.425 49.248 591.714 50.1295C595.366 50.885 598.388 51.5146 598.514 51.6406ZM307.238 93.8253C307.993 94.9587 313.912 164.343 321.216 255.135C323.609 285.987 326.001 314.194 326.379 317.72C327.009 324.142 326.883 324.394 322.853 326.912C320.586 328.297 318.32 329.431 317.816 329.431C317.438 329.431 316.683 326.157 316.305 322.127C314.542 305.757 307.742 226.676 302.956 169.506C300.186 135.884 297.667 105.788 297.289 102.514C296.66 96.9735 296.786 96.4698 300.06 94.7068C304.09 92.5661 306.356 92.1883 307.238 93.8253ZM653.923 119.136C657.449 120.395 657.827 121.025 658.583 128.203C659.842 140.795 659.464 200.987 658.079 200.987C654.427 200.987 646.871 196.706 646.241 194.313C645.864 192.802 645.486 174.921 645.486 154.647C645.486 113.721 644.982 116.114 653.923 119.136ZM421.33 125.055C421.33 128.455 422.212 147.217 423.219 166.988C424.227 186.758 425.36 211.817 425.864 222.646C426.745 244.557 426.997 243.802 418.56 244.305C414.404 244.431 414.404 244.431 414.152 238.135C413.901 234.609 413.271 223.654 412.515 213.58C411.886 203.506 410.374 181.721 409.367 165.099C408.36 148.477 407.1 131.981 406.723 128.455C405.967 122.158 406.093 121.907 409.493 120.647C411.508 119.892 415.034 119.262 417.301 119.262C421.33 119.136 421.33 119.136 421.33 125.055ZM770.66 142.306L774.942 144.069L775.823 160.943C776.201 170.136 776.453 190.032 776.201 205.017L775.823 232.468L770.534 229.824L765.245 227.306L764.867 185.499C764.616 162.454 764.742 142.936 764.993 142.055C765.497 140.166 765.497 140.166 770.66 142.306ZM540.712 158.803C541.468 159.558 543.231 220.632 543.357 251.609L543.483 270.246L537.564 269.364C534.164 268.987 531.393 268.609 531.267 268.483C530.89 268.231 527.112 174.921 527.112 165.854V156.536L533.534 157.291C537.186 157.795 540.334 158.425 540.712 158.803ZM830.729 167.743C832.24 169.506 832.492 197.084 832.87 349.201C833.248 523.858 833.248 528.392 830.981 528.392C829.596 528.392 827.707 527.636 826.573 526.755C824.684 525.369 824.432 510.133 823.803 360.912C823.299 270.498 822.669 188.395 822.292 178.447L821.536 160.314L825.188 162.958C827.329 164.469 829.721 166.61 830.729 167.743ZM717.77 193.558C718.399 194.061 719.029 201.239 719.155 209.424C719.785 237.254 719.91 407.882 719.281 408.385C719.029 408.637 716.762 408.008 714.244 407L709.71 405.111V297.949V190.913L713.236 191.669C715.125 192.173 717.14 192.928 717.77 193.558ZM370.203 200.61C370.581 204.01 371.21 211.691 371.588 217.987C371.966 224.157 372.847 238.261 373.603 249.216C375.114 271.379 374.862 272.764 367.684 272.764C363.906 272.764 363.403 272.387 362.899 268.609C361.64 261.179 357.232 199.224 357.862 198.217C358.491 197.335 365.04 195.069 368.062 194.817C368.818 194.691 369.825 197.335 370.203 200.61ZM161.915 232.72C163.3 246.068 166.07 274.024 168.085 294.801C170.226 315.579 171.989 333.208 171.989 333.964C171.989 335.475 162.292 340.26 161.285 339.253C160.655 338.623 148.062 227.18 148.062 222.143C148.062 219.12 157.759 206.402 159.018 207.787C159.396 208.039 160.655 219.246 161.915 232.72ZM655.686 245.942L659.338 248.083L659.464 275.283C659.59 290.142 659.842 306.764 659.842 312.179C660.094 323.512 658.708 325.401 651.908 323.008L648.004 321.623V310.794C648.004 304.749 647.627 287.246 647.123 271.757L646.367 243.802H649.264C650.775 243.802 653.671 244.809 655.686 245.942ZM217.198 294.801C219.465 318.979 223.117 359.778 225.509 385.467L229.791 432.059L224.88 436.97L220.094 441.881L219.213 431.933C218.709 426.393 216.19 400.704 213.546 374.763C210.901 348.823 207.123 311.171 205.234 291.149L201.708 254.883L206.62 250.35C211.027 246.194 211.531 246.068 212.412 248.335C212.916 249.594 215.057 270.498 217.198 294.801ZM122.876 310.038C125.647 334.845 132.951 400.83 139.247 456.615C145.544 512.399 151.462 566.169 152.596 576.243C153.603 586.317 155.366 601.554 156.374 610.243C158.137 624.976 158.137 625.983 156.122 627.494C153.099 629.761 151.84 629.509 151.84 626.865C151.84 625.731 150.707 616.161 149.322 605.835C147.055 588.584 143.277 559.369 134.84 493.762C133.077 480.54 129.676 454.222 127.284 435.207C124.765 416.193 121.113 387.86 119.098 372.245C117.083 356.63 113.683 329.934 111.543 312.683C109.276 295.557 107.891 280.32 108.268 278.683C109.15 275.283 116.58 263.446 117.335 264.202C117.587 264.579 120.106 285.105 122.876 310.038ZM84.3416 364.312C86.2306 379.423 89.7566 407 92.1493 425.763C94.542 444.4 97.5643 467.696 98.9495 477.392L101.342 495.022L98.6977 497.288C97.1865 498.547 95.6753 499.051 95.1716 498.547C94.6679 498.044 93.6605 493.007 92.9049 487.466C92.1493 481.925 87.4899 449.563 82.4527 415.689L73.5117 353.986L76.408 345.423C77.9192 340.764 79.5563 336.986 79.9341 336.986C80.4378 336.986 82.3268 349.327 84.3416 364.312ZM775.697 347.816C777.46 349.579 777.712 357.386 777.712 415.185V480.54H774.186C766.505 480.54 766.631 482.429 766.127 410.904L765.749 345.801H769.779C771.92 345.801 774.69 346.682 775.697 347.816ZM500.037 370.356C528.497 374.638 553.305 382.571 577.861 395.163C593.729 403.348 601.284 409.015 618.915 425.889C645.108 450.948 661.227 472.859 676.339 503.836C698.376 548.917 706.94 588.836 717.77 695.872C722.681 743.849 729.103 830.863 730.489 866.5C730.866 876.825 731.748 893.825 732.503 904.277C733.889 926.44 735.526 923.418 716.007 932.862C688.932 945.958 662.864 955.025 628.485 963.462C586.425 973.788 559.224 977.062 517.667 977.187L487.444 977.313L487.696 962.832C487.696 954.899 488.451 936.388 489.207 921.907C492.985 851.766 492.229 763.241 487.318 714.131C484.547 685.924 479.132 651.672 476.11 644.117C475.48 642.479 478.377 641.094 490.844 636.813C513.637 628.88 533.408 618.932 536.43 614.02C541.845 604.702 532.149 591.354 519.808 591.354C517.667 591.354 511.244 593.621 505.326 596.265C477.117 609.235 420.575 624.472 387.959 627.872C365.417 630.265 330.409 628.88 306.104 624.472C292.882 622.08 269.207 613.139 249.436 602.939C226.643 591.102 212.664 575.362 208.509 556.725C206.242 546.651 206.872 526.503 209.768 515.17C212.916 502.703 221.731 484.57 229.791 473.992C265.681 426.77 339.728 385.845 415.664 371.489C439.842 366.956 474.095 366.452 500.037 370.356ZM888.531 374.26C893.064 376.149 893.568 376.652 893.568 380.934C893.82 415.311 893.064 493.888 892.435 497.162C892.309 498.296 885.76 498.422 882.99 497.414C881.227 496.785 880.975 489.985 880.975 434.452C880.975 394.66 881.479 372.245 882.234 372.245C882.864 372.245 885.76 373.126 888.531 374.26ZM943.562 443.392L948.096 445.281L947.214 549.547C946.207 682.398 946.081 686.301 941.295 697.76C933.488 716.523 933.866 720.301 934.621 637.946C934.873 596.769 935.503 555.088 935.755 545.392C936.006 535.695 936.258 508.37 936.384 484.57C936.384 455.859 936.762 441.504 937.643 441.504C938.399 441.504 941.044 442.385 943.562 443.392ZM186.219 474.748C186.975 484.948 186.723 485.955 183.071 494.014L179.041 502.577L177.53 489.985C175.137 469.837 175.137 468.955 179.923 465.933C182.063 464.422 184.33 463.414 184.708 463.666C185.086 463.918 185.841 468.955 186.219 474.748ZM108.394 550.68C109.528 561.006 118.343 629.509 122.876 663.131C129.676 715.138 130.18 722.568 127.158 719.42C126.78 719.042 123.884 701.538 120.861 680.509C101.216 544.762 101.342 545.643 102.979 544.636C106.379 542.369 107.513 543.629 108.394 550.68ZM199.064 608.354C199.819 611.502 203.471 645.628 203.471 649.783C203.471 653.309 198.938 656.583 196.923 654.568C196.293 653.939 194.656 643.235 193.397 630.894C192.012 618.428 190.627 605.458 190.249 602.058L189.493 595.761L193.901 600.798C196.419 603.569 198.686 606.969 199.064 608.354ZM300.689 655.828C302.075 657.087 302.956 662.124 304.09 675.724C305.978 700.279 306.23 698.39 301.067 698.39C295.778 698.39 295.904 698.768 294.141 676.605C292.378 654.065 292.378 654.316 295.778 654.316C297.415 654.316 299.556 655.072 300.689 655.828ZM400.426 657.716C400.678 658.976 401.308 666.531 401.811 674.464C402.189 682.398 403.322 700.279 404.33 714.131C407.856 765.004 407.982 771.426 405.841 771.426C403.448 771.426 403.196 769.538 400.426 733.649C399.419 718.79 397.53 695.368 396.27 681.642C395.137 667.916 394.381 656.457 394.759 656.205C396.144 654.694 399.796 655.828 400.426 657.716ZM163.678 681.894C164.433 683.027 169.218 723.323 175.137 778.352C176.9 794.974 178.663 810.967 179.041 813.989L179.671 819.404L176.522 817.389C174.13 815.752 173.248 814.115 173.248 811.219C173.248 803.285 167.833 751.027 163.678 719.042C161.285 700.909 159.396 684.916 159.396 683.405C159.396 680.761 162.418 679.753 163.678 681.894ZM890.42 734.53L889.538 787.167L886.39 791.826C879.212 802.404 879.59 804.419 879.968 745.486L880.219 691.464L884.879 686.679C887.397 684.161 889.916 682.02 890.42 682.02C890.798 682.02 890.798 705.694 890.42 734.53ZM773.934 818.019C774.564 891.181 774.438 896.847 772.423 899.114C771.164 900.499 770.031 901.381 769.653 901.003C768.771 899.996 767.512 740.449 768.519 739.567C769.023 739.064 770.282 738.812 771.416 738.938C773.053 739.316 773.431 748.256 773.934 818.019ZM362.647 767.901C363.529 775.708 366.677 813.108 367.936 830.737C368.692 842.574 368.692 842.952 365.921 843.833C364.41 844.337 362.647 844.211 362.143 843.581C361.262 842.7 358.491 814.745 355.091 771.678L354.21 761.352H358.114C361.765 761.352 362.017 761.604 362.647 767.901ZM263.666 811.974C264.548 812.856 265.177 816.004 265.177 819.152C265.177 822.426 266.688 839.426 268.325 857.055C273.111 905.284 273.489 911.833 271.348 910.573C268.074 908.684 265.177 905.788 265.807 905.033C266.059 904.529 265.555 898.233 264.548 891.055C263.666 883.751 262.533 871.914 262.029 864.611C261.525 857.307 260.392 843.959 259.384 835.018C256.992 812.982 257.118 810.463 259.888 810.463C261.147 810.463 262.784 811.093 263.666 811.974ZM323.231 896.722C323.609 899.492 324.364 909.818 324.868 919.64C325.749 938.529 325.372 939.914 320.209 936.01C318.697 934.877 317.69 930.092 316.179 915.736C313.534 889.796 313.408 890.803 318.32 891.307C321.972 891.685 322.475 892.188 323.231 896.722Z" fill="black"/>
  <path d="M278.274 430.674C265.177 436.341 264.17 454.096 276.511 460.392C285.452 464.925 294.519 462.785 299.179 454.977C307.994 440.622 293.638 424 278.274 430.674Z" fill="black"/>
  <path d="M363.654 442.763C351.565 450.193 351.565 468.074 363.654 475.503C375.618 482.681 391.107 473.237 391.107 458.881C391.107 445.03 375.24 435.711 363.654 442.763Z" fill="black"/>
</svg>